<?xml version="1.0" encoding="UTF-8" standalone="no"?>
<svg
   xmlns:dc="http://purl.org/dc/elements/1.1/"
   xmlns:cc="http://creativecommons.org/ns#"
   xmlns:rdf="http://www.w3.org/1999/02/22-rdf-syntax-ns#"
   xmlns:svg="http://www.w3.org/2000/svg"
   xmlns="http://www.w3.org/2000/svg"
   xmlns:sodipodi="http://sodipodi.sourceforge.net/DTD/sodipodi-0.dtd"
   xmlns:inkscape="http://www.inkscape.org/namespaces/inkscape"
   version="1.1"
   id="svg2"
   xml:space="preserve"
   width="666.66669"
   height="666.66669"
   viewBox="0 0 666.66669 666.66669"
   sodipodi:docname="3910343.eps"><metadata
     id="metadata8"><rdf:RDF><cc:Work
         rdf:about=""><dc:format>image/svg+xml</dc:format><dc:type
           rdf:resource="http://purl.org/dc/dcmitype/StillImage" /></cc:Work></rdf:RDF></metadata><defs
     id="defs6"><clipPath
       clipPathUnits="userSpaceOnUse"
       id="clipPath144"><path
         d="m 3116.49,3817.36 c 0,0 28.46,-6.16 29.45,-34.58 0.99,-28.41 -29.96,-26.48 -29.96,-26.48 0,0 -26.71,34.39 0.51,61.06 z"
         id="path142" /></clipPath></defs><sodipodi:namedview
     pagecolor="#ffffff"
     bordercolor="#666666"
     borderopacity="1"
     objecttolerance="10"
     gridtolerance="10"
     guidetolerance="10"
     inkscape:pageopacity="0"
     inkscape:pageshadow="2"
     inkscape:window-width="640"
     inkscape:window-height="480"
     id="namedview4" /><g
     id="g10"
     inkscape:groupmode="layer"
     inkscape:label="ink_ext_XXXXXX"
     transform="matrix(1.3333333,0,0,-1.3333333,0,666.66667)"><g
       id="g12"
       transform="scale(0.1)"><path
         d="M 5000,0 H 0 V 5000 H 5000 V 0"
         style="fill:#e5edfd;fill-opacity:1;fill-rule:nonzero;stroke:none"
         id="path14" /><path
         d="m 3915.87,3496.48 c 0,0 30.95,89.34 123.82,91.63 92.86,2.29 59.52,-54.98 157.15,-45.82 97.62,9.17 61.91,119.13 214.3,142.04 152.39,22.9 216.68,-187.85 216.68,-187.85 h -711.95"
         style="fill:#ffffff;fill-opacity:1;fill-rule:nonzero;stroke:none"
         id="path16" /><path
         d="m 2305.76,4564.69 c 0,0 23.11,66.72 92.46,68.44 69.35,1.71 44.46,-41.06 117.37,-34.22 72.9,6.84 46.23,88.96 160.02,106.06 113.81,17.11 161.82,-140.28 161.82,-140.28 h -531.67"
         style="fill:#ffffff;fill-opacity:1;fill-rule:nonzero;stroke:none"
         id="path18" /><path
         d="m 256.848,3891.71 c 0,0 20.656,59.62 82.632,61.15 61.973,1.53 39.731,-36.69 104.883,-30.57 65.153,6.11 41.317,79.49 143.024,94.78 101.707,15.29 144.609,-125.36 144.609,-125.36 H 256.848"
         style="fill:#ffffff;fill-opacity:1;fill-rule:nonzero;stroke:none"
         id="path20" /><path
         d="M 2665.69,381.941 H 1247.92 c -157.22,0 -284.666,127.45 -284.666,284.68 V 3992.92 c 0,157.22 127.446,284.67 284.666,284.67 h 1417.77 c 157.23,0 284.68,-127.45 284.68,-284.67 V 666.621 c 0,-157.23 -127.45,-284.68 -284.68,-284.68"
         style="fill:#e5edfd;fill-opacity:1;fill-rule:nonzero;stroke:none"
         id="path22" /><path
         d="M 2665.69,4277.59 H 1247.92 c -157.22,0 -284.666,-127.45 -284.666,-284.67 V 666.621 c 0,-157.23 127.446,-284.68 284.666,-284.68 h 1417.77 c 157.23,0 284.68,127.45 284.68,284.68 V 3992.92 c 0,157.22 -127.45,284.67 -284.68,284.67 z m 0,-97.48 c 103.23,0 187.2,-83.98 187.2,-187.19 V 666.621 c 0,-103.223 -83.97,-187.199 -187.2,-187.199 H 1247.92 c -103.22,0 -187.19,83.976 -187.19,187.199 V 3992.92 c 0,103.21 83.97,187.19 187.19,187.19 h 1417.77"
         style="fill:#060000;fill-opacity:1;fill-rule:nonzero;stroke:none"
         id="path24" /><path
         d="m 2400.37,4267.75 h -887.11 v -103.19 c 0,-45.73 37.07,-82.8 82.79,-82.8 h 721.51 c 45.73,0 82.81,37.07 82.81,82.8 v 103.19 0"
         style="fill:#060000;fill-opacity:1;fill-rule:nonzero;stroke:none"
         id="path26" /><path
         d="m 1791.68,4190.43 h 340.17"
         style="fill:none;stroke:#ffffff;stroke-width:7.63983;stroke-linecap:round;stroke-linejoin:round;stroke-miterlimit:10;stroke-dasharray:none;stroke-opacity:1"
         id="path28" /><path
         d="M 2311.08,809.98 H 1297.86 c -43.77,0 -79.26,35.489 -79.26,79.262 v 846.248 c 0,43.77 35.49,79.26 79.26,79.26 h 1013.22 c 43.77,0 79.26,-35.49 79.26,-79.26 V 889.242 c 0,-43.773 -35.49,-79.262 -79.26,-79.262"
         style="fill:#9bbdf9;fill-opacity:1;fill-rule:nonzero;stroke:none"
         id="path30" /><path
         d="m 1646.87,1378.27 h -232.83 c -17.4,0 -31.52,14.11 -31.52,31.52 v 232.84 c 0,17.4 14.12,31.51 31.52,31.51 h 232.83 c 17.41,0 31.52,-14.11 31.52,-31.51 v -232.84 c 0,-17.41 -14.11,-31.52 -31.52,-31.52"
         style="fill:#ffffff;fill-opacity:1;fill-rule:nonzero;stroke:none"
         id="path32" /><path
         d="m 1779.38,1580.8 h 267.43"
         style="fill:none;stroke:#000000;stroke-width:13;stroke-linecap:round;stroke-linejoin:round;stroke-miterlimit:10;stroke-dasharray:none;stroke-opacity:1"
         id="path34" /><path
         d="m 1779.38,1485.58 h 431.26"
         style="fill:none;stroke:#000000;stroke-width:13;stroke-linecap:round;stroke-linejoin:round;stroke-miterlimit:10;stroke-dasharray:none;stroke-opacity:1"
         id="path36" /><path
         d="m 1382.52,1255.1 h 295.87"
         style="fill:none;stroke:#ffffff;stroke-width:13;stroke-linecap:round;stroke-linejoin:round;stroke-miterlimit:10;stroke-dasharray:none;stroke-opacity:1"
         id="path38" /><path
         d="m 1382.52,1156.78 h 828.12"
         style="fill:none;stroke:#ffffff;stroke-width:13;stroke-linecap:round;stroke-linejoin:round;stroke-miterlimit:10;stroke-dasharray:none;stroke-opacity:1"
         id="path40" /><path
         d="m 1382.52,1048.46 h 828.12"
         style="fill:none;stroke:#ffffff;stroke-width:13;stroke-linecap:round;stroke-linejoin:round;stroke-miterlimit:10;stroke-dasharray:none;stroke-opacity:1"
         id="path42" /><path
         d="m 786.137,3313.96 c 0,-131.06 -106.242,-237.31 -237.309,-237.31 -131.062,0 -237.312,106.25 -237.312,237.31 0,131.06 106.25,237.31 237.312,237.31 131.067,0 237.309,-106.25 237.309,-237.31"
         style="fill:#dc761c;fill-opacity:1;fill-rule:nonzero;stroke:none"
         id="path44" /><path
         d="m 453.23,3302.66 74.485,-55.17 127.605,132.41"
         style="fill:none;stroke:#ffffff;stroke-width:21.3607;stroke-linecap:round;stroke-linejoin:round;stroke-miterlimit:10;stroke-dasharray:none;stroke-opacity:1"
         id="path46" /><path
         d="M 1475.83,2027.94 H 681.234 c -28.632,0 -51.847,23.21 -51.847,51.85 v 553.62 c 0,28.64 23.215,51.85 51.847,51.85 h 794.596 c 28.63,0 51.85,-23.21 51.85,-51.85 v -553.62 c 0,-28.64 -23.22,-51.85 -51.85,-51.85"
         style="fill:#4479fa;fill-opacity:1;fill-rule:nonzero;stroke:none"
         id="path48" /><path
         d="m 1075.09,2348.32 c -34.49,0 -62.45,27.96 -62.45,62.45 0,34.49 27.96,62.46 62.45,62.46 34.49,0 62.46,-27.97 62.46,-62.46 0,-34.49 -27.97,-62.45 -62.46,-62.45 z m 141.92,61.79 c 0,78.38 -63.54,141.91 -141.92,141.91 -78.375,0 -141.914,-63.53 -141.914,-141.91 0,-26.19 7.219,-50.64 19.59,-71.7 h -0.078 l 0.402,-0.53 c 5.445,-9.17 11.851,-17.67 19.144,-25.37 l 102.856,-136.24 102.75,136.12 c 7.38,7.77 13.85,16.36 19.34,25.64 l 0.3,0.38 h -0.06 c 12.37,21.06 19.59,45.51 19.59,71.7"
         style="fill:#ffffff;fill-opacity:1;fill-rule:nonzero;stroke:none"
         id="path50" /><path
         d="M 2641.65,2782.06 H 1271.36 c -43.78,0 -79.26,35.48 -79.26,79.25 v 846.25 c 0,43.77 35.48,79.26 79.26,79.26 h 1370.29 c 43.77,0 79.26,-35.49 79.26,-79.26 v -846.25 c 0,-43.77 -35.49,-79.25 -79.26,-79.25"
         style="fill:#ffffff;fill-opacity:1;fill-rule:nonzero;stroke:none"
         id="path52" /><path
         d="m 1549.59,3287.81 h -204.16 c -15.26,0 -27.63,12.38 -27.63,27.64 v 204.16 c 0,15.26 12.37,27.64 27.63,27.64 h 204.16 c 15.27,0 27.64,-12.38 27.64,-27.64 v -204.16 c 0,-15.26 -12.37,-27.64 -27.64,-27.64"
         style="fill:#9bbdf9;fill-opacity:1;fill-rule:nonzero;stroke:none"
         id="path54" /><path
         d="m 1880.1,3287.81 h -204.16 c -15.27,0 -27.64,12.38 -27.64,27.64 v 204.16 c 0,15.26 12.37,27.64 27.64,27.64 h 204.16 c 15.26,0 27.63,-12.38 27.63,-27.64 v -204.16 c 0,-15.26 -12.37,-27.64 -27.63,-27.64"
         style="fill:#9bbdf9;fill-opacity:1;fill-rule:nonzero;stroke:none"
         id="path56" /><path
         d="m 2210.61,3287.81 h -204.17 c -15.26,0 -27.64,12.38 -27.64,27.64 v 204.16 c 0,15.26 12.38,27.64 27.64,27.64 h 204.17 c 15.25,0 27.63,-12.38 27.63,-27.64 v -204.16 c 0,-15.26 -12.38,-27.64 -27.63,-27.64"
         style="fill:#9bbdf9;fill-opacity:1;fill-rule:nonzero;stroke:none"
         id="path58" /><path
         d="m 2541.1,3287.81 h -204.16 c -15.26,0 -27.63,12.38 -27.63,27.64 v 204.16 c 0,15.26 12.37,27.64 27.63,27.64 h 204.16 c 15.27,0 27.64,-12.38 27.64,-27.64 v -204.16 c 0,-15.26 -12.37,-27.64 -27.64,-27.64"
         style="fill:#dc761c;fill-opacity:1;fill-rule:nonzero;stroke:none"
         id="path60" /><path
         d="m 1549.59,2937.86 h -204.16 c -15.26,0 -27.63,12.37 -27.63,27.63 v 204.16 c 0,15.27 12.37,27.64 27.63,27.64 h 204.16 c 15.27,0 27.64,-12.37 27.64,-27.64 v -204.16 c 0,-15.26 -12.37,-27.63 -27.64,-27.63"
         style="fill:#9bbdf9;fill-opacity:1;fill-rule:nonzero;stroke:none"
         id="path62" /><path
         d="m 1880.1,2937.86 h -204.16 c -15.27,0 -27.64,12.37 -27.64,27.63 v 204.16 c 0,15.27 12.37,27.64 27.64,27.64 h 204.16 c 15.26,0 27.63,-12.37 27.63,-27.64 v -204.16 c 0,-15.26 -12.37,-27.63 -27.63,-27.63"
         style="fill:#9bbdf9;fill-opacity:1;fill-rule:nonzero;stroke:none"
         id="path64" /><path
         d="m 2210.61,2937.86 h -204.17 c -15.26,0 -27.64,12.37 -27.64,27.63 v 204.16 c 0,15.27 12.38,27.64 27.64,27.64 h 204.17 c 15.25,0 27.63,-12.37 27.63,-27.64 v -204.16 c 0,-15.26 -12.38,-27.63 -27.63,-27.63"
         style="fill:#9bbdf9;fill-opacity:1;fill-rule:nonzero;stroke:none"
         id="path66" /><path
         d="m 2541.1,2937.86 h -204.16 c -15.26,0 -27.63,12.37 -27.63,27.63 v 204.16 c 0,15.27 12.37,27.64 27.63,27.64 h 204.16 c 15.27,0 27.64,-12.37 27.64,-27.64 v -204.16 c 0,-15.26 -12.37,-27.63 -27.64,-27.63"
         style="fill:#9bbdf9;fill-opacity:1;fill-rule:nonzero;stroke:none"
         id="path68" /><g
         id="g70"
         transform="scale(10)"><text
           transform="matrix(1,0,0,-1,131.78,361.099)"
           style="font-variant:normal;font-weight:normal;font-size:14.6968px;font-family:BuiltTitlingRg;-inkscape-font-specification:BuiltTitlingRg-Regular;writing-mode:lr-tb;fill:#dc761c;fill-opacity:1;fill-rule:nonzero;stroke:none"
           id="text74"><tspan
             x="0 5.6435714 11.081562 15.975596 21.619143 27.335941 32.391602"
             y="0"
             sodipodi:role="line"
             id="tspan72">october</tspan></text></g><path
         d="M 2669.05,2027.94 H 1772.6 c -28.64,0 -51.85,23.21 -51.85,51.85 v 553.62 c 0,28.64 23.21,51.85 51.85,51.85 h 896.45 c 28.65,0 51.86,-23.21 51.86,-51.85 v -553.62 c 0,-28.64 -23.21,-51.85 -51.86,-51.85"
         style="fill:#ffffff;fill-opacity:1;fill-rule:nonzero;stroke:none"
         id="path76" /><path
         d="m 2584.92,2461.26 h -710.5 c -15.26,0 -27.63,12.37 -27.63,27.64 v 94.16 c 0,15.26 12.37,27.63 27.63,27.63 h 710.5 c 15.27,0 27.64,-12.37 27.64,-27.63 v -94.16 c 0,-15.27 -12.37,-27.64 -27.64,-27.64"
         style="fill:#9bbdf9;fill-opacity:1;fill-rule:nonzero;stroke:none"
         id="path78" /><path
         d="m 1856.79,2363.39 h 348.98"
         style="fill:none;stroke:#000000;stroke-width:13;stroke-linecap:round;stroke-linejoin:round;stroke-miterlimit:10;stroke-dasharray:none;stroke-opacity:1"
         id="path80" /><path
         d="m 1856.79,2278.4 h 745.77"
         style="fill:none;stroke:#000000;stroke-width:13;stroke-linecap:round;stroke-linejoin:round;stroke-miterlimit:10;stroke-dasharray:none;stroke-opacity:1"
         id="path82" /><path
         d="m 1856.79,2184.67 h 745.77"
         style="fill:none;stroke:#000000;stroke-width:13;stroke-linecap:round;stroke-linejoin:round;stroke-miterlimit:10;stroke-dasharray:none;stroke-opacity:1"
         id="path84" /><path
         d="m 3149.78,1023.9 h -519.63 c -34.87,0 -63.13,28.26 -63.13,63.12 v 450.69 c 0,34.86 28.26,63.12 63.13,63.12 h 519.63 c 34.86,0 63.12,-28.26 63.12,-63.12 v -450.69 c 0,-34.86 -28.26,-63.12 -63.12,-63.12"
         style="fill:#dc761c;fill-opacity:1;fill-rule:nonzero;stroke:none"
         id="path86" /><path
         d="m 2889.93,1256.13 c -31.13,0.01 -56.37,25.25 -56.37,56.37 0,31.12 25.24,56.36 56.37,56.36 31.12,0 56.36,-25.24 56.36,-56.36 0,-0.11 0,-0.21 0,-0.31 -0.18,-31.01 -25.35,-56.06 -56.36,-56.06 z m 127.99,81.37 -21.21,3.72 c -2.49,9.25 -6.17,18.14 -10.96,26.43 l 12.37,17.63 c 4.55,6.48 3.78,15.3 -1.82,20.88 l -12.71,12.71 c -5.67,5.5 -14.48,6.12 -20.88,1.49 l -17.64,-12.37 c -8.29,4.78 -17.17,8.47 -26.42,10.95 l -3.65,21.69 c -1.33,7.7 -7.94,13.37 -15.74,13.52 h -18.32 c -7.94,0.01 -14.74,-5.69 -16.09,-13.52 l -3.71,-21.15 c -9.25,-2.49 -18.13,-6.16 -26.42,-10.95 l -17.57,11.83 c -6.49,4.54 -15.29,3.77 -20.89,-1.82 l -12.71,-12.71 c -5.59,-5.6 -6.36,-14.4 -1.82,-20.89 l 12.37,-17.64 c -4.78,-8.29 -8.47,-17.17 -10.95,-26.42 l -21.15,-3.71 c -7.82,-1.36 -13.53,-8.15 -13.51,-16.09 v -17.97 c -0.02,-7.94 5.69,-14.74 13.51,-16.09 l 21.15,-3.72 c 2.48,-9.25 6.17,-18.12 10.95,-26.42 l -12.37,-17.64 c -4.54,-6.48 -3.77,-15.28 1.82,-20.88 l 12.71,-12.71 c 5.6,-5.6 14.4,-6.36 20.89,-1.82 l 17.63,12.37 c 8.3,-4.78 17.18,-8.47 26.43,-10.95 l 3.71,-21.16 c 1.35,-7.82 8.15,-13.52 16.09,-13.51 h 18.25 c 7.94,-0.01 14.72,5.69 16.08,13.51 l 3.71,21.16 c 9.25,2.48 18.14,6.16 26.43,10.95 l 17.23,-12.1 c 6.48,-4.55 15.29,-3.78 20.88,1.83 l 12.71,12.7 c 5.6,5.59 6.37,14.41 1.82,20.88 l -12.37,17.78 c 4.79,8.29 8.47,17.17 10.96,26.42 l 21.21,3.71 c 7.83,1.36 13.53,8.16 13.52,16.09 v 17.97 c -0.01,7.92 -5.72,14.67 -13.52,16.02"
         style="fill:#ffffff;fill-opacity:1;fill-rule:nonzero;stroke:none"
         id="path88" /><path
         d="M 404.031,381.941 H 4503.44"
         style="fill:none;stroke:#000000;stroke-width:7.5;stroke-linecap:butt;stroke-linejoin:miter;stroke-miterlimit:10;stroke-dasharray:none;stroke-opacity:1"
         id="path90" /><path
         d="m 3754.7,4086.4 h 403.08 c 99.64,0 180.42,80.78 180.42,180.43 v 0 c 0,99.65 -80.78,180.43 -180.42,180.43 H 3754.7 c -99.65,0 -180.43,-80.78 -180.43,-180.43 v 0 c 0,-99.65 80.78,-180.43 180.43,-180.43"
         style="fill:#9bbdf9;fill-opacity:1;fill-rule:nonzero;stroke:none"
         id="path92" /><path
         d="m 3896.55,4126.17 -130.8,-128.42 -23.78,137.93 z"
         style="fill:#9bbdf9;fill-opacity:1;fill-rule:nonzero;stroke:none"
         id="path94" /><path
         d="m 3895.71,4324.1 c -18.81,18.41 -48.92,18.09 -67.31,-0.71 l -12.13,-12.38 -12.48,12.29 c -18.72,18.46 -48.87,18.22 -67.33,-0.51 -18.43,-18.74 -18.21,-48.88 0.53,-67.33 l 46.31,-45.6 c 0.1,-0.1 0.17,-0.22 0.26,-0.31 7.4,-7.25 16.53,-11.58 26.03,-13.04 14.66,-2.25 30.13,2.35 41.29,13.74 l 45.55,46.52 c 18.39,18.79 18.07,48.93 -0.72,67.33"
         style="fill:#ffffff;fill-opacity:1;fill-rule:nonzero;stroke:none"
         id="path96" /><path
         d="m 3986.8,4308.09 h 185.45"
         style="fill:none;stroke:#ffffff;stroke-width:10.1864;stroke-linecap:round;stroke-linejoin:round;stroke-miterlimit:10;stroke-dasharray:none;stroke-opacity:1"
         id="path98" /><path
         d="m 3986.8,4256.64 h 97.81"
         style="fill:none;stroke:#ffffff;stroke-width:10.1864;stroke-linecap:round;stroke-linejoin:round;stroke-miterlimit:10;stroke-dasharray:none;stroke-opacity:1"
         id="path100" /><path
         d="m 3378.06,506.488 -118.61,-65.277 c -12.57,-6.922 -20.18,-22.762 -16.28,-37.781 3.08,-11.871 13.21,-20.942 39.59,-21.461 58.64,-1.168 318.08,42.07 318.08,42.07 V 386.75 l 121.25,-0.641 c 0,0 7.58,176.352 -29.08,198.832 l -314.95,-78.453"
         style="fill:#200902;fill-opacity:1;fill-rule:nonzero;stroke:none"
         id="path102" /><path
         d="M 3536.93,636.191 3378.06,506.488 c 0,0 20.44,-58.636 110.98,-19.539 90.54,39.09 203.97,97.992 203.97,97.992 l -16.55,67.86 -139.53,-16.61"
         style="fill:#ecc696;fill-opacity:1;fill-rule:nonzero;stroke:none"
         id="path104" /><path
         d="m 3676.46,652.801 16.55,470.799 -157.48,12.81 V 584.941 l 140.93,67.86"
         style="fill:#ecc696;fill-opacity:1;fill-rule:nonzero;stroke:none"
         id="path106" /><path
         d="m 3396.05,2537.15 65.87,-1833.38 h 305.42 l 15.61,1981.49 -386.9,-148.11"
         style="fill:#3a2222;fill-opacity:1;fill-rule:nonzero;stroke:none"
         id="path108" /><path
         d="m 3430.3,2569.29 153.68,-893.26 c 18.64,-110.25 131.66,-177.49 237.45,-141.26 v 0 c 77.8,26.65 127.91,102.34 122.05,184.37 l -29.41,405.74 c -14.83,137.73 19.33,315.83 -131.12,560.38 L 3430.3,2569.29"
         style="fill:#523332;fill-opacity:1;fill-rule:nonzero;stroke:none"
         id="path110" /><path
         d="m 4238.08,551.5 -65.9,-118.258 c -6.98,-12.543 -5.04,-30.012 6.24,-40.66 8.9,-8.434 22.29,-10.742 44.94,2.809 50.32,30.121 247.31,204.398 247.31,204.398 l 19.79,-31.617 103.11,63.789 c 0,0 -87.12,153.519 -130.13,153.121 L 4238.08,551.5"
         style="fill:#200902;fill-opacity:1;fill-rule:nonzero;stroke:none"
         id="path112" /><path
         d="M 4303.95,745.719 4238.08,551.5 c 0,0 48.43,-38.859 104.45,42.309 56,81.171 120.91,191.273 120.91,191.273 l -50.01,48.75 -109.48,-88.113"
         style="fill:#ecc696;fill-opacity:1;fill-rule:nonzero;stroke:none"
         id="path114" /><path
         d="M 4413.43,833.832 4177.68,1241.7 4037.4,1169 l 292.55,-467.469 83.48,132.301"
         style="fill:#ecc696;fill-opacity:1;fill-rule:nonzero;stroke:none"
         id="path116" /><path
         d="m 3606.86,1613.61 567.72,-846.641 264.56,169.609 -548.68,921.172 -283.6,-244.14"
         style="fill:#523332;fill-opacity:1;fill-rule:nonzero;stroke:none"
         id="path118" /><path
         d="m 3183.32,4020.07 c 0,0 -126.15,16.43 -142.61,-102.96 -12.24,-88.87 28.66,-132.64 -3.4,-204.12 -32.05,-71.48 28.09,-135.39 28.09,-135.39 0,0 149.44,-69.41 311.79,72.53 l -193.87,369.94"
         style="fill:#dc761c;fill-opacity:1;fill-rule:nonzero;stroke:none"
         id="path120" /><path
         d="m 3232.33,3620.68 68.44,-177.8 143.21,38.14 -132.26,255.61 -79.39,-115.95"
         style="fill:#ecc696;fill-opacity:1;fill-rule:nonzero;stroke:none"
         id="path122" /><path
         d="m 3265.04,3535.72 29.35,130.27 -53.37,-67.86 z"
         style="fill:#000000;fill-opacity:1;fill-rule:nonzero;stroke:none"
         id="path124" /><path
         d="m 3167.34,3993.34 c 0,0 -85.01,-17.94 -85.06,-125.83 0,0 -4.08,-41.23 1.32,-153.63 3.82,-79.61 41.39,-134.74 116.1,-127.13 36.23,3.7 74.17,25.81 108.14,54.44 l 47.59,48.5 c 110.04,134.27 -4.77,336.62 -175.65,306.11 -4.1,-0.73 -8.24,-1.55 -12.44,-2.46"
         style="fill:#ecc696;fill-opacity:1;fill-rule:nonzero;stroke:none"
         id="path126" /><path
         d="m 3089.04,3776.61 -30.13,-52.89 c -3.54,-5.6 -1.7,-14.22 5.69,-14.69 l 39.05,-5.08 -14.61,72.66"
         style="fill:#ecc696;fill-opacity:1;fill-rule:nonzero;stroke:none"
         id="path128" /><path
         d="m 3289.97,3808.04 c 3.03,24.42 19.64,194.28 -107.62,172.36 -19.74,-3.41 -29.75,22.88 -12.76,33.49 45.47,28.4 117.7,47.97 222.12,7.76 42.39,-16.33 100.8,-72.22 100.82,-127.12 0.06,-117.86 -39.21,-177.62 -108.29,-238.29 -3.55,-3.12 -9.14,-2.06 -11.31,2.14 l -44.51,86.01 c -0.16,0.31 -0.28,0.6 -0.38,0.93 -4.91,15.61 -29.68,48.44 -36.63,57.47 -1.18,1.52 -1.67,3.34 -1.44,5.25"
         style="fill:#dc761c;fill-opacity:1;fill-rule:nonzero;stroke:none"
         id="path130" /><path
         d="m 3204.78,4022.11 c -160.04,-73.78 74.17,-249.39 74.17,-249.39 v 0 l 65.9,129.73 c 0,0 -113.34,131.98 -140.07,119.66"
         style="fill:#dc761c;fill-opacity:1;fill-rule:nonzero;stroke:none"
         id="path132" /><path
         d="m 3098.7,3875.17 84.62,-28.69 c 0,0 -14.73,27.22 -44.74,41.8 -40.31,19.59 -39.88,-13.11 -39.88,-13.11"
         style="fill:#000000;fill-opacity:1;fill-rule:nonzero;stroke:none"
         id="path134" /><path
         d="m 3116.49,3817.36 c 0,0 28.46,-6.16 29.45,-34.58 0.99,-28.41 -29.96,-26.48 -29.96,-26.48 0,0 -26.71,34.39 0.51,61.06"
         style="fill:#ffffff;fill-opacity:1;fill-rule:nonzero;stroke:none"
         id="path136" /><g
         id="g138"><g
           id="g140"
           clip-path="url(#clipPath144)"><path
             d="m 3122.25,3824.7 c 0,0 22.1,-41.08 -6.27,-68.4 -28.37,-27.31 0,0 0,0 l -15.92,1.52 -0.76,45.28 22.95,21.6"
             style="fill:#000000;fill-opacity:1;fill-rule:nonzero;stroke:none"
             id="path146" /></g></g><path
         d="m 3109.63,3824.5 c 5.25,-0.36 9.46,-1.53 13.88,-3.25 4.3,-1.75 8.34,-4.2 11.79,-7.27 3.45,-3.06 6.4,-6.69 8.39,-10.72 2.19,-3.94 3.33,-8.26 4.27,-12.48 0.19,-0.9 -0.37,-1.78 -1.26,-1.97 -0.81,-0.18 -1.61,0.27 -1.9,1.02 l -0.04,0.13 c -1.46,3.79 -3.04,7.5 -5.43,10.61 -2.22,3.23 -5.12,5.84 -8.27,7.91 -3.16,2.07 -6.67,3.56 -10.32,4.44 -3.55,0.87 -7.68,1.26 -10.81,1 l -0.21,-0.02 c -2.93,-0.25 -5.5,1.92 -5.76,4.85 -0.24,2.92 1.93,5.5 4.86,5.75 0.26,0.02 0.55,0.02 0.81,0"
         style="fill:#000000;fill-opacity:1;fill-rule:nonzero;stroke:none"
         id="path148" /><path
         d="m 3088.83,3688.86 c -10.11,-1.59 -10.87,-13.3 -1.62,-17.09 0,0 -12.23,-12.48 6.33,-16.63 18.57,-4.16 35.96,27.54 35.96,27.54 -22.64,-5.02 -27.34,8.27 -40.67,6.18"
         style="fill:#c7181b;fill-opacity:1;fill-rule:nonzero;stroke:none"
         id="path150" /><path
         d="m 3301.86,3735.91 c 9.96,-71.21 1.67,-149.86 1.67,-149.86 0,0 201.97,-64.9 293.74,164.91 0,0 -58.62,22.6 -76.61,72.99 -17.99,50.38 -0.23,225.66 -235.96,220.46 0,0 5.93,-228.27 17.16,-308.5"
         style="fill:#dc761c;fill-opacity:1;fill-rule:nonzero;stroke:none"
         id="path152" /><path
         d="m 3379.43,3774.15 c 3.73,-29.82 -17.43,-57.01 -47.24,-60.74 -29.83,-3.72 -57.02,17.43 -60.74,47.26 -3.73,29.82 17.43,57.02 47.25,60.74 29.83,3.72 57.01,-17.44 60.73,-47.26"
         style="fill:#ecc696;fill-opacity:1;fill-rule:nonzero;stroke:none"
         id="path154" /><path
         d="m 3301.86,3744.4 c 0,0 2.13,41.43 36.26,42.16"
         style="fill:none;stroke:#000000;stroke-width:5.11053;stroke-linecap:round;stroke-linejoin:round;stroke-miterlimit:10;stroke-dasharray:none;stroke-opacity:1"
         id="path156" /><path
         d="m 3653.41,3344.48 334.75,-271.1 c 47.93,-40.94 51.58,-113.76 7.96,-159.28 v 0 c -39.88,-41.63 -105.18,-45.29 -149.46,-8.36 l -363.3,287.81 170.05,150.93"
         style="fill:#ecc696;fill-opacity:1;fill-rule:nonzero;stroke:none"
         id="path158" /><path
         d="m 3854.24,3244.95 c 0,0 -14.31,-107.94 -202.4,-231.83 l -255.69,190.06 c -71.39,53.08 -81.82,156 -22.53,222.32 v 0 c 49.13,54.94 130.7,66.5 193.16,27.38 l 287.46,-207.93"
         style="fill:#467ac9;fill-opacity:1;fill-rule:nonzero;stroke:none"
         id="path160" /><path
         d="m 3848.07,2901.85 332.05,-426.6 81.44,95.47 -248.23,473.85 c -40.37,54.46 -120.04,59.51 -166.96,10.58 v 0 c -41.28,-43.04 -40.52,-111.19 1.7,-153.3"
         style="fill:#ecc696;fill-opacity:1;fill-rule:nonzero;stroke:none"
         id="path162" /><path
         d="m 4160.76,2493.36 -3.42,-21.36 c -4.58,-28.69 -2.36,-58.06 6.5,-85.74 l 15.57,-48.73 c 3.7,-11.57 16.93,-17.05 27.74,-11.48 v 0 c 9.12,4.71 14.46,14.5 13.5,24.71 l -5.08,54.06 108,-152.85 c 5.1,-7.61 15.74,-9.03 22.65,-3 l 4.64,4.04 c 5.46,4.75 6.81,12.7 3.22,18.99 l -68.95,105.43 95.95,-110.14 c 5.57,-7.25 16.22,-7.99 22.75,-1.59 l 3.22,3.18 c 5.48,5.39 6.08,14.01 1.41,20.11 l -79.35,102.13 77.27,-64.29 c 7.27,-6.45 18.64,-4.52 23.38,3.98 l 0.95,1.71 c 3.24,5.83 2.32,13.09 -2.27,17.91 l -75.51,72.52 47.41,-28.34 c 8.72,-7.06 21.83,-2.59 24.4,8.33 v 0 c 1.23,5.2 -0.37,10.65 -4.18,14.38 l -192.65,180.33 -39.37,-45.03 c -14.64,-16.75 -24.27,-37.29 -27.78,-59.26"
         style="fill:#ecc696;fill-opacity:1;fill-rule:nonzero;stroke:none"
         id="path164" /><path
         d="m 3397.56,3486.44 c 0,0 -131.57,12.75 -133.29,-224.93 -1.73,-238.3 73.46,-350.62 131.78,-724.36 0,0 223.14,27.36 386.9,148.11 0,0 10.18,875.37 -385.39,801.18"
         style="fill:#4479fa;fill-opacity:1;fill-rule:nonzero;stroke:none"
         id="path166" /><path
         d="m 3370.97,3168.01 -311.18,-297.86 c -46.67,-42.38 -119.37,-36.8 -159.02,12.21 v 0 c -36.26,44.82 -31.64,110.06 10.58,149.32 l 331.35,324.08 128.27,-187.75"
         style="fill:#ecc696;fill-opacity:1;fill-rule:nonzero;stroke:none"
         id="path168" /><path
         d="m 3286.12,2979.15 c 0,0 -108.54,3.75 -220.13,225.04 l 218.81,231.55 c 61.11,64.66 164.55,62.91 223.43,-3.78 v 0 c 48.78,-55.25 50.67,-137.6 4.47,-195.03 l -226.58,-257.78"
         style="fill:#4479fa;fill-opacity:1;fill-rule:nonzero;stroke:none"
         id="path170" /><path
         d="m 3316.17,3013.34 149.6,170.21"
         style="fill:none;stroke:#000000;stroke-width:5.11053;stroke-linecap:round;stroke-linejoin:round;stroke-miterlimit:10;stroke-dasharray:none;stroke-opacity:1"
         id="path172" /><path
         d="m 3054.34,3028.37 -443.41,335.52 -58.22,-91.3 350.4,-393.49 c 42.74,-50.26 120.42,-50.01 162.81,0.54 v 0 c 37.28,44.46 32.14,110.58 -11.58,148.73"
         style="fill:#ecc696;fill-opacity:1;fill-rule:nonzero;stroke:none"
         id="path174" /><path
         d="m 2669.67,3271.23 c -16.71,-56.19 -70.93,-53.94 -177.54,-24.06 -56.44,15.82 -76.92,55.82 -60.21,112 16.71,56.19 75.81,88.19 132,71.48 56.18,-16.71 122.46,-103.24 105.75,-159.42"
         style="fill:#ecc696;fill-opacity:1;fill-rule:nonzero;stroke:none"
         id="path176" /><path
         d="m 2583.46,3422.66 -135.49,78.77 c -8.92,6.05 -21.45,3.89 -27.61,-4.76 v 0 c -5.35,-7.5 -4.14,-17.5 2.84,-23.59 l 105.17,-88.91 55.09,38.49"
         style="fill:#ecc696;fill-opacity:1;fill-rule:nonzero;stroke:none"
         id="path178" /></g></g></svg>
