<?xml version="1.0" encoding="UTF-8" standalone="no"?>
<svg
   xmlns:dc="http://purl.org/dc/elements/1.1/"
   xmlns:cc="http://creativecommons.org/ns#"
   xmlns:rdf="http://www.w3.org/1999/02/22-rdf-syntax-ns#"
   xmlns:svg="http://www.w3.org/2000/svg"
   xmlns="http://www.w3.org/2000/svg"
   xmlns:sodipodi="http://sodipodi.sourceforge.net/DTD/sodipodi-0.dtd"
   xmlns:inkscape="http://www.inkscape.org/namespaces/inkscape"
   version="1.1"
   id="svg2"
   xml:space="preserve"
   width="2666.6667"
   height="2666.6667"
   viewBox="0 0 2666.6667 2666.6667"
   sodipodi:docname="Success_bill_payment_icon_design.eps"><metadata
     id="metadata8"><rdf:RDF><cc:Work
         rdf:about=""><dc:format>image/svg+xml</dc:format><dc:type
           rdf:resource="http://purl.org/dc/dcmitype/StillImage" /></cc:Work></rdf:RDF></metadata><defs
     id="defs6"><clipPath
       clipPathUnits="userSpaceOnUse"
       id="clipPath22"><path
         d="m 13884.7,3525 c -321.2,0 -617.5,439.8 -855.6,1181.4 l 152.9,264.8 846.5,-630.5 c 0,0 0,1347.7 0,1459.5 v 9278.2 c 0,65 -8.4,128 -24.2,188.1 729.8,-251.1 1303.2,-2779 1303.2,-5860.5 0,-3248 -637,-5881 -1422.8,-5881"
         id="path20" /></clipPath><radialGradient
       fx="0"
       fy="0"
       cx="0"
       cy="0"
       r="1"
       gradientUnits="userSpaceOnUse"
       gradientTransform="matrix(1422.85,0,0,-5881.02,13884.7,9406)"
       spreadMethod="pad"
       id="radialGradient28"><stop
         style="stop-opacity:1;stop-color:#1b867c"
         offset="0"
         id="stop24" /><stop
         style="stop-opacity:1;stop-color:#eaf3f9"
         offset="1"
         id="stop26" /></radialGradient><clipPath
       clipPathUnits="userSpaceOnUse"
       id="clipPath60"><path
         d="m 10032,11547.5 c -86.82,0 -173.8,3.9 -260.54,11.8 75.15,0 150.32,0 225.47,0 80.17,0 160.87,-3.6 241.37,-4.4 -68.6,-4.9 -137.4,-7.4 -206.3,-7.4"
         id="path58" /></clipPath><radialGradient
       fx="0"
       fy="0"
       cx="0"
       cy="0"
       r="1"
       gradientUnits="userSpaceOnUse"
       gradientTransform="matrix(2350,-1651.47,-1652.8,-2351.88,10036.6,14421.6)"
       spreadMethod="pad"
       id="radialGradient66"><stop
         style="stop-opacity:1;stop-color:#808080"
         offset="0"
         id="stop62" /><stop
         style="stop-opacity:1;stop-color:#ffffff"
         offset="1"
         id="stop64" /></radialGradient><clipPath
       clipPathUnits="userSpaceOnUse"
       id="clipPath76"><path
         d="M 12546.6,15823.1 H 7529.23 c 47.69,85 100.12,168.4 157.4,249.9 559.75,796.6 1450.33,1222.6 2354.67,1222.6 570.4,0 1146.1,-169.4 1648.1,-522.2 365.8,-257 653.4,-584.1 857.2,-950.3"
         id="path74" /></clipPath><radialGradient
       fx="0"
       fy="0"
       cx="0"
       cy="0"
       r="1"
       gradientUnits="userSpaceOnUse"
       gradientTransform="matrix(2350,-1651.47,-1652.8,-2351.88,10036.6,14421.6)"
       spreadMethod="pad"
       id="radialGradient82"><stop
         style="stop-opacity:1;stop-color:#136058"
         offset="0"
         id="stop78" /><stop
         style="stop-opacity:1;stop-color:#eaf3f9"
         offset="1"
         id="stop80" /></radialGradient><clipPath
       clipPathUnits="userSpaceOnUse"
       id="clipPath92"><path
         d="m 10438.1,11576.3 c 33.6,44.5 23.3,161.8 -30.9,161.8 -110.2,0 -220.4,0 -330.6,0 -264.7,0 -529.37,0 -794.04,0 -92.65,0 -185.3,0 -277.96,0 -215.16,82.8 -423.61,193 -620.78,331.6 -78.42,55.1 -153.31,113.5 -224.48,174.7 279.54,0 559.11,0 838.65,0 89.33,0 178.65,0 267.97,0 115,0 115.19,178.7 0,178.7 -432.08,0 -864.12,0 -1296.2,0 -873.18,901.7 -1064.09,2288 -440.53,3400 h 5017.37 c 519.4,-933 495.5,-2120.2 -160,-3053 -475.5,-676.7 -1189.9,-1086 -1948.5,-1193.8"
         id="path90" /></clipPath><radialGradient
       fx="0"
       fy="0"
       cx="0"
       cy="0"
       r="1"
       gradientUnits="userSpaceOnUse"
       gradientTransform="matrix(2350,-1651.47,-1652.8,-2351.88,10036.6,14421.6)"
       spreadMethod="pad"
       id="radialGradient98"><stop
         style="stop-opacity:1;stop-color:#808080"
         offset="0"
         id="stop94" /><stop
         style="stop-opacity:1;stop-color:#ffffff"
         offset="1"
         id="stop96" /></radialGradient><clipPath
       clipPathUnits="userSpaceOnUse"
       id="clipPath108"><path
         d="m 10238.3,11554.9 c -80.5,0.8 -161.2,4.4 -241.37,4.4 -75.15,0 -150.32,0 -225.47,0 -259.52,23.6 -517.55,82.8 -766.86,178.8 92.66,0 185.31,0 277.96,0 264.67,0 529.34,0 794.04,0 110.2,0 220.4,0 330.6,0 54.2,0 64.5,-117.3 30.9,-161.8 -66.3,-9.5 -132.9,-16.6 -199.8,-21.4"
         id="path106" /></clipPath><radialGradient
       fx="0"
       fy="0"
       cx="0"
       cy="0"
       r="1"
       gradientUnits="userSpaceOnUse"
       gradientTransform="matrix(2350,-1651.47,-1652.8,-2351.88,10036.6,14421.6)"
       spreadMethod="pad"
       id="radialGradient114"><stop
         style="stop-opacity:1;stop-color:#5a5a5a"
         offset="0"
         id="stop110" /><stop
         style="stop-opacity:1;stop-color:#b3b3b3"
         offset="1"
         id="stop112" /></radialGradient><clipPath
       clipPathUnits="userSpaceOnUse"
       id="clipPath124"><path
         d="m 9265.96,12244.4 c -89.32,0 -178.64,0 -267.97,0 -279.54,0 -559.11,0 -838.65,0 -66.43,57.2 -129.55,116.7 -189.58,178.7 432.08,0 864.12,0 1296.2,0 115.19,0 115,-178.7 0,-178.7"
         id="path122" /></clipPath><radialGradient
       fx="0"
       fy="0"
       cx="0"
       cy="0"
       r="1"
       gradientUnits="userSpaceOnUse"
       gradientTransform="matrix(2350,-1651.47,-1652.8,-2351.88,10036.6,14421.6)"
       spreadMethod="pad"
       id="radialGradient130"><stop
         style="stop-opacity:1;stop-color:#5a5a5a"
         offset="0"
         id="stop126" /><stop
         style="stop-opacity:1;stop-color:#b3b3b3"
         offset="1"
         id="stop128" /></radialGradient></defs><sodipodi:namedview
     pagecolor="#ffffff"
     bordercolor="#666666"
     borderopacity="1"
     objecttolerance="10"
     gridtolerance="10"
     guidetolerance="10"
     inkscape:pageopacity="0"
     inkscape:pageshadow="2"
     inkscape:window-width="640"
     inkscape:window-height="480"
     id="namedview4" /><g
     id="g10"
     inkscape:groupmode="layer"
     inkscape:label="ink_ext_XXXXXX"
     transform="matrix(1.3333333,0,0,-1.3333333,0,2666.6667)"><g
       id="g12"
       transform="scale(0.1)"><path
         d="M 0,0 H 20000 V 20000 H 0 Z"
         style="fill:#eaf3f9;fill-opacity:1;fill-rule:nonzero;stroke:none"
         id="path14" /><g
         id="g16"><g
           id="g18"
           clip-path="url(#clipPath22)"><path
             d="m 13884.7,3525 c -321.2,0 -617.5,439.8 -855.6,1181.4 l 152.9,264.8 846.5,-630.5 c 0,0 0,1347.7 0,1459.5 v 9278.2 c 0,65 -8.4,128 -24.2,188.1 729.8,-251.1 1303.2,-2779 1303.2,-5860.5 0,-3248 -637,-5881 -1422.8,-5881"
             style="fill:url(#radialGradient28);fill-opacity:1;fill-rule:nonzero;stroke:none"
             id="path30" /></g></g><path
         d="m 14028.5,5800.2 v 9278.2 c 0,409.6 -335.1,744.7 -744.6,744.7 H 6716.14 c -409.55,0 -744.64,-335.1 -744.64,-744.7 V 5800.2 c 0,-170 74.46,-1623.3 74.46,-1623.3 l 836.38,660.2 345.68,-598.7 354.28,613.6 345.68,-598.7 354.28,613.6 345.68,-598.7 354.29,613.6 345.68,-598.7 354.28,613.6 345.71,-598.8 354.2,613.7 345.7,-598.8 354.3,613.7 345.7,-598.8 354.3,613.7 345.7,-598.8 354.2,613.7 345.7,-598.8 354.3,613.7 846.5,-630.5 c 0,0 0,1347.7 0,1459.5"
         style="fill:#ffffff;fill-opacity:1;fill-rule:nonzero;stroke:none"
         id="path32" /><path
         d="m 7085.22,11559.3 c 110.23,0 220.45,0 330.68,0 264.67,0 529.34,0 794,0 318.72,0 637.43,0 956.15,0 276.96,0 553.92,0 830.88,0 134.37,0 270.27,-10.2 404.57,0 1.9,0.2 3.8,0 5.7,0 66.8,0 67,178.8 0,178.8 -110.2,0 -220.4,0 -330.6,0 -264.7,0 -529.37,0 -794.04,0 -318.71,0 -637.42,0 -956.14,0 -276.96,0 -553.92,0 -830.89,0 -134.35,0 -270.25,10.2 -404.51,0 -1.93,-0.2 -3.87,0 -5.8,0 -66.8,0 -66.91,-178.8 0,-178.8"
         style="fill:#b3b3b3;fill-opacity:1;fill-rule:nonzero;stroke:none"
         id="path34" /><path
         d="m 7106.51,12244.4 c 630.49,0 1260.98,0 1891.48,0 89.33,0 178.65,0 267.97,0 115,0 115.19,178.7 0,178.7 -630.49,0 -1260.98,0 -1891.48,0 -89.32,0 -178.65,0 -267.97,0 -115,0 -115.19,-178.7 0,-178.7"
         style="fill:#b3b3b3;fill-opacity:1;fill-rule:nonzero;stroke:none"
         id="path36" /><path
         d="m 12119.7,12244.4 c 393.8,0 787.5,0 1181.3,0 55.8,0 111.6,0 167.4,0 71.8,0 71.9,178.7 0,178.7 -393.8,0 -787.6,0 -1181.3,0 -55.8,0 -111.6,0 -167.4,0 -71.8,0 -71.9,-178.7 0,-178.7"
         style="fill:#b3b3b3;fill-opacity:1;fill-rule:nonzero;stroke:none"
         id="path38" /><path
         d="m 12119.7,11559.3 c 393.8,0 787.5,0 1181.3,0 55.8,0 111.6,0 167.4,0 71.8,0 71.9,178.8 0,178.8 -393.8,0 -787.6,0 -1181.3,0 -55.8,0 -111.6,0 -167.4,0 -71.8,0 -71.9,-178.8 0,-178.8"
         style="fill:#b3b3b3;fill-opacity:1;fill-rule:nonzero;stroke:none"
         id="path40" /><path
         d="m 12119.7,10114.7 c 393.8,0 787.5,0 1181.3,0 55.8,0 111.6,0 167.4,0 71.8,0 71.9,178.7 0,178.7 -393.8,0 -787.6,0 -1181.3,0 -55.8,0 -111.6,0 -167.4,0 -71.8,0 -71.9,-178.7 0,-178.7"
         style="fill:#b3b3b3;fill-opacity:1;fill-rule:nonzero;stroke:none"
         id="path42" /><path
         d="m 12119.7,9504.1 c 393.8,0 787.5,0 1181.3,0 55.8,0 111.6,0 167.4,0 71.8,0 71.9,178.7 0,178.7 -393.8,0 -787.6,0 -1181.3,0 -55.8,0 -111.6,0 -167.4,0 -71.8,0 -71.9,-178.7 0,-178.7"
         style="fill:#b3b3b3;fill-opacity:1;fill-rule:nonzero;stroke:none"
         id="path44" /><path
         d="m 12119.7,8863.7 c 393.8,0 787.5,0 1181.3,0 55.8,0 111.6,0 167.4,0 71.8,0 71.9,178.8 0,178.8 -393.8,0 -787.6,0 -1181.3,0 -55.8,0 -111.6,0 -167.4,0 -71.8,0 -71.9,-178.8 0,-178.8"
         style="fill:#b3b3b3;fill-opacity:1;fill-rule:nonzero;stroke:none"
         id="path46" /><path
         d="m 7106.51,10122.2 c 475.56,0 951.11,0 1426.67,0 756.96,0 1513.92,0 2270.92,0 172.3,0 344.7,0 517.1,0 115,0 115.2,178.7 0,178.7 -475.6,0 -951.1,0 -1426.7,0 -756.96,0 -1513.92,0 -2270.88,0 -172.37,0 -344.74,0 -517.11,0 -115,0 -115.19,-178.7 0,-178.7"
         style="fill:#b3b3b3;fill-opacity:1;fill-rule:nonzero;stroke:none"
         id="path48" /><path
         d="m 7121.4,9504.1 c 407.68,0 815.37,0 1223.05,0 644.34,0 1288.68,0 1933.05,0 149.3,0 298.6,0 448,0 114.9,0 115.1,178.7 0,178.7 -407.7,0 -815.41,0 -1223.09,0 -644.34,0 -1288.68,0 -1933.02,0 -149.33,0 -298.66,0 -447.99,0 -114.99,0 -115.18,-178.7 0,-178.7"
         style="fill:#b3b3b3;fill-opacity:1;fill-rule:nonzero;stroke:none"
         id="path50" /><path
         d="m 7121.4,8863.7 c 407.68,0 815.37,0 1223.05,0 644.34,0 1288.68,0 1933.05,0 149.3,0 298.6,0 448,0 114.9,0 115.1,178.8 0,178.8 -407.7,0 -815.41,0 -1223.09,0 -644.34,0 -1288.68,0 -1933.02,0 -149.33,0 -298.66,0 -447.99,0 -114.99,0 -115.18,-178.8 0,-178.8"
         style="fill:#b3b3b3;fill-opacity:1;fill-rule:nonzero;stroke:none"
         id="path52" /><g
         id="g54"><g
           id="g56"
           clip-path="url(#clipPath60)"><path
             d="m 10032,11547.5 c -86.82,0 -173.8,3.9 -260.54,11.8 75.15,0 150.32,0 225.47,0 80.17,0 160.87,-3.6 241.37,-4.4 -68.6,-4.9 -137.4,-7.4 -206.3,-7.4"
             style="fill:url(#radialGradient66);fill-opacity:1;fill-rule:nonzero;stroke:none"
             id="path68" /></g></g><g
         id="g70"><g
           id="g72"
           clip-path="url(#clipPath76)"><path
             d="M 12546.6,15823.1 H 7529.23 c 47.69,85 100.12,168.4 157.4,249.9 559.75,796.6 1450.33,1222.6 2354.67,1222.6 570.4,0 1146.1,-169.4 1648.1,-522.2 365.8,-257 653.4,-584.1 857.2,-950.3"
             style="fill:url(#radialGradient82);fill-opacity:1;fill-rule:nonzero;stroke:none"
             id="path84" /></g></g><g
         id="g86"><g
           id="g88"
           clip-path="url(#clipPath92)"><path
             d="m 10438.1,11576.3 c 33.6,44.5 23.3,161.8 -30.9,161.8 -110.2,0 -220.4,0 -330.6,0 -264.7,0 -529.37,0 -794.04,0 -92.65,0 -185.3,0 -277.96,0 -215.16,82.8 -423.61,193 -620.78,331.6 -78.42,55.1 -153.31,113.5 -224.48,174.7 279.54,0 559.11,0 838.65,0 89.33,0 178.65,0 267.97,0 115,0 115.19,178.7 0,178.7 -432.08,0 -864.12,0 -1296.2,0 -873.18,901.7 -1064.09,2288 -440.53,3400 h 5017.37 c 519.4,-933 495.5,-2120.2 -160,-3053 -475.5,-676.7 -1189.9,-1086 -1948.5,-1193.8"
             style="fill:url(#radialGradient98);fill-opacity:1;fill-rule:nonzero;stroke:none"
             id="path100" /></g></g><g
         id="g102"><g
           id="g104"
           clip-path="url(#clipPath108)"><path
             d="m 10238.3,11554.9 c -80.5,0.8 -161.2,4.4 -241.37,4.4 -75.15,0 -150.32,0 -225.47,0 -259.52,23.6 -517.55,82.8 -766.86,178.8 92.66,0 185.31,0 277.96,0 264.67,0 529.34,0 794.04,0 110.2,0 220.4,0 330.6,0 54.2,0 64.5,-117.3 30.9,-161.8 -66.3,-9.5 -132.9,-16.6 -199.8,-21.4"
             style="fill:url(#radialGradient114);fill-opacity:1;fill-rule:nonzero;stroke:none"
             id="path116" /></g></g><g
         id="g118"><g
           id="g120"
           clip-path="url(#clipPath124)"><path
             d="m 9265.96,12244.4 c -89.32,0 -178.64,0 -267.97,0 -279.54,0 -559.11,0 -838.65,0 -66.43,57.2 -129.55,116.7 -189.58,178.7 432.08,0 864.12,0 1296.2,0 115.19,0 115,-178.7 0,-178.7"
             style="fill:url(#radialGradient130);fill-opacity:1;fill-rule:nonzero;stroke:none"
             id="path132" /></g></g><path
         d="m 12461.9,14897.3 c 0,-1324.3 -1073.6,-2397.9 -2397.9,-2397.9 -1324.31,0 -2397.89,1073.6 -2397.89,2397.9 0,1324.3 1073.58,2397.9 2397.89,2397.9 1324.3,0 2397.9,-1073.6 2397.9,-2397.9"
         style="fill:#57ee00;fill-opacity:1;fill-rule:nonzero;stroke:none"
         id="path134" /><path
         d="m 11159.8,15967.4 c -467.2,-465.4 -934.5,-930.8 -1401.68,-1396.1 -237.51,259.1 -475.02,518.1 -712.53,777.3 -270.21,294.7 -707.73,-144.7 -438.41,-438.4 307.26,-335.2 614.51,-670.4 921.78,-1005.6 113.33,-123.7 323.65,-114.3 438.4,0 543.64,541.4 1087.24,1082.9 1630.84,1624.4 283.1,281.9 -155.3,720.4 -438.4,438.4"
         style="fill:#ffffff;fill-opacity:1;fill-rule:nonzero;stroke:none"
         id="path136" /><path
         d="m 12583.2,6400 0.8,169.3 c -119.3,5.9 -234.9,38.5 -302.4,78.1 l 54.5,208.1 c 74.6,-41.3 179.5,-79.3 295.3,-79.8 101.5,-0.6 171.2,38.3 171.5,109.5 0.4,67.7 -56.4,110.8 -188,156 -190.3,65 -319.9,154.7 -319,327.5 0.8,156.8 111.8,279.1 302.6,315.6 l 0.9,169.2 174.5,-0.9 -0.7,-156.7 c 119.3,-6 199.3,-31.3 258,-60.1 l -52.7,-201 c -46.2,19.8 -128,61.2 -256.2,61.8 -115.8,0.6 -153.5,-49.1 -153.7,-99 -0.3,-58.7 61.9,-96.5 213,-154.2 211.6,-75.9 296.6,-174.3 295.8,-334.6 -0.8,-158.5 -113.7,-293.4 -318.7,-328 l -1,-181.6 -174.5,0.8"
         style="fill:#57ee00;fill-opacity:1;fill-rule:nonzero;stroke:none"
         id="path138" /><path
         d="m 11410.5,7061.7 c 0,-327.6 -268,-595.7 -595.7,-595.7 H 7627.75 c -327.64,0 -595.71,268.1 -595.71,595.7 v 59.6 c 0,327.6 268.07,595.7 595.71,595.7 h 3187.05 c 327.7,0 595.7,-268.1 595.7,-595.7 v -59.6"
         style="fill:#e6e6e6;fill-opacity:1;fill-rule:nonzero;stroke:none"
         id="path140" /></g></g></svg>
