<?xml version="1.0" encoding="UTF-8" standalone="no"?>
<svg
   xmlns:dc="http://purl.org/dc/elements/1.1/"
   xmlns:cc="http://creativecommons.org/ns#"
   xmlns:rdf="http://www.w3.org/1999/02/22-rdf-syntax-ns#"
   xmlns:svg="http://www.w3.org/2000/svg"
   xmlns="http://www.w3.org/2000/svg"
   xmlns:sodipodi="http://sodipodi.sourceforge.net/DTD/sodipodi-0.dtd"
   xmlns:inkscape="http://www.inkscape.org/namespaces/inkscape"
   version="1.1"
   id="svg2"
   xml:space="preserve"
   width="3023.6267"
   height="3023.6267"
   viewBox="0 0 3023.6267 3023.6267"
   sodipodi:docname="OQ6UTW1.eps"><metadata
     id="metadata8"><rdf:RDF><cc:Work
         rdf:about=""><dc:format>image/svg+xml</dc:format><dc:type
           rdf:resource="http://purl.org/dc/dcmitype/StillImage" /></cc:Work></rdf:RDF></metadata><defs
     id="defs6" /><sodipodi:namedview
     pagecolor="#ffffff"
     bordercolor="#666666"
     borderopacity="1"
     objecttolerance="10"
     gridtolerance="10"
     guidetolerance="10"
     inkscape:pageopacity="0"
     inkscape:pageshadow="2"
     inkscape:window-width="640"
     inkscape:window-height="480"
     id="namedview4" /><g
     id="g10"
     inkscape:groupmode="layer"
     inkscape:label="ink_ext_XXXXXX"
     transform="matrix(1.3333333,0,0,-1.3333333,0,3023.6267)"><g
       id="g12"
       transform="scale(0.1)"><path
         d="M 0,22677.2 V 0 H 22677.2 V 22677.2 H 0"
         style="fill:#c6e2ed;fill-opacity:1;fill-rule:nonzero;stroke:none"
         id="path14" /><path
         d="m 15029.4,17971.5 c -61.2,0 -110.7,-49.6 -110.7,-110.7 0,-61.2 49.5,-110.8 110.7,-110.8 61.1,0 110.8,49.6 110.8,110.8 0,61.1 -49.7,110.7 -110.8,110.7"
         style="fill:#e6e6e7;fill-opacity:1;fill-rule:nonzero;stroke:none"
         id="path16" /><path
         d="m 15029.4,17921.5 c -33.5,0 -60.7,-27.3 -60.7,-60.7 0,-33.7 27.2,-60.8 60.7,-60.8 33.5,0 60.7,27.1 60.7,60.8 0,33.4 -27.2,60.7 -60.7,60.7"
         style="fill:#4b4b70;fill-opacity:1;fill-rule:nonzero;stroke:none"
         id="path18" /><path
         d="m 19190.4,21486.3 c -61.2,0 -110.7,-49.6 -110.7,-110.8 0,-61.1 49.5,-110.7 110.7,-110.7 61.2,0 110.7,49.6 110.7,110.7 0,61.2 -49.5,110.8 -110.7,110.8"
         style="fill:#e6e6e7;fill-opacity:1;fill-rule:nonzero;stroke:none"
         id="path20" /><path
         d="m 19190.4,21436.3 c -33.5,0 -60.7,-27.3 -60.7,-60.8 0,-33.6 27.2,-60.7 60.7,-60.7 33.5,0 60.7,27.1 60.7,60.7 0,33.5 -27.2,60.8 -60.7,60.8"
         style="fill:#4b4b70;fill-opacity:1;fill-rule:nonzero;stroke:none"
         id="path22" /><path
         d="m 15029.4,21485.6 c -61.2,0 -110.7,-49.4 -110.7,-110.6 0,-61.2 49.5,-110.8 110.7,-110.8 61.1,0 110.8,49.6 110.8,110.8 0,61.2 -49.7,110.6 -110.8,110.6"
         style="fill:#e6e6e7;fill-opacity:1;fill-rule:nonzero;stroke:none"
         id="path24" /><path
         d="m 15029.4,21435.7 c -33.5,0 -60.7,-27.2 -60.7,-60.7 0,-33.6 27.2,-60.8 60.7,-60.8 33.5,0 60.7,27.2 60.7,60.8 0,33.5 -27.2,60.7 -60.7,60.7"
         style="fill:#4b4b70;fill-opacity:1;fill-rule:nonzero;stroke:none"
         id="path26" /><path
         d="m 0,3095 h 22677.2 v 760.6 H 0 V 3095"
         style="fill:#a0cfe6;fill-opacity:1;fill-rule:nonzero;stroke:none"
         id="path28" /><path
         d="M 0,0 H 22677.2 V 3095 H 0 V 0"
         style="fill:#629abf;fill-opacity:1;fill-rule:nonzero;stroke:none"
         id="path30" /><path
         d="m 13572.2,18396.4 h 2914.3 v 2914.3 h -2914.3 v -2914.3"
         style="fill:#8bb8dc;fill-opacity:1;fill-rule:nonzero;stroke:none"
         id="path32" /><path
         d="m 13774,18598.2 h 2510.8 v 2510.7 H 13774 v -2510.7"
         style="fill:#f0f1f1;fill-opacity:1;fill-rule:nonzero;stroke:none"
         id="path34" /><path
         d="M 17051.9,14932.8 H 21329 v 6377.9 h -4277.1 v -6377.9"
         style="fill:#8bb8dc;fill-opacity:1;fill-rule:nonzero;stroke:none"
         id="path36" /><path
         d="m 17254.3,15120.2 h 3872.4 v 5997.7 h -3872.4 v -5997.7"
         style="fill:#f0f1f1;fill-opacity:1;fill-rule:nonzero;stroke:none"
         id="path38" /><path
         d="m 13573.5,14885.2 h 2911.8 v 2911.9 h -2911.8 v -2911.9"
         style="fill:#8bb8dc;fill-opacity:1;fill-rule:nonzero;stroke:none"
         id="path40" /><path
         d="m 13775.1,15086.7 h 2508.6 v 2508.8 h -2508.6 v -2508.8"
         style="fill:#f0f1f1;fill-opacity:1;fill-rule:nonzero;stroke:none"
         id="path42" /><path
         d="m 19190.4,20470.4 c -685.7,0 -1241.6,-163.6 -1241.6,-365.6 0,-201.9 555.9,-365.6 1241.6,-365.6 685.9,0 1241.8,163.7 1241.8,365.6 0,202 -555.9,365.6 -1241.8,365.6"
         style="fill:#c3dfed;fill-opacity:1;fill-rule:nonzero;stroke:none"
         id="path44" /><path
         d="m 17514.6,18896.4 h 1500 v 114.3 h -1500 v -114.3"
         style="fill:#c3dfed;fill-opacity:1;fill-rule:nonzero;stroke:none"
         id="path46" /><path
         d="m 17514.6,18653.5 h 1500 v 114.4 h -1500 v -114.4"
         style="fill:#c3dfed;fill-opacity:1;fill-rule:nonzero;stroke:none"
         id="path48" /><path
         d="m 17514.6,18410.7 h 1500 v 114.3 h -1500 v -114.3"
         style="fill:#c3dfed;fill-opacity:1;fill-rule:nonzero;stroke:none"
         id="path50" /><path
         d="m 17514.6,18167.9 h 1500 v 114.2 h -1500 v -114.2"
         style="fill:#c3dfed;fill-opacity:1;fill-rule:nonzero;stroke:none"
         id="path52" /><path
         d="m 17514.6,17925 h 1500 v 114.3 h -1500 V 17925"
         style="fill:#c3dfed;fill-opacity:1;fill-rule:nonzero;stroke:none"
         id="path54" /><path
         d="m 17514.6,17682.1 h 1500 v 114.3 h -1500 v -114.3"
         style="fill:#c3dfed;fill-opacity:1;fill-rule:nonzero;stroke:none"
         id="path56" /><path
         d="m 17514.6,17175 h 1500 v 114.3 h -1500 V 17175"
         style="fill:#c3dfed;fill-opacity:1;fill-rule:nonzero;stroke:none"
         id="path58" /><path
         d="m 17514.6,16932.1 h 1500 v 114.3 h -1500 v -114.3"
         style="fill:#c3dfed;fill-opacity:1;fill-rule:nonzero;stroke:none"
         id="path60" /><path
         d="m 17514.6,16689.3 h 1500 v 114.2 h -1500 v -114.2"
         style="fill:#c3dfed;fill-opacity:1;fill-rule:nonzero;stroke:none"
         id="path62" /><path
         d="m 17514.6,16446.4 h 1500 v 114.3 h -1500 v -114.3"
         style="fill:#c3dfed;fill-opacity:1;fill-rule:nonzero;stroke:none"
         id="path64" /><path
         d="m 17514.6,16203.5 h 1500 v 114.3 h -1500 v -114.3"
         style="fill:#c3dfed;fill-opacity:1;fill-rule:nonzero;stroke:none"
         id="path66" /><path
         d="m 17514.6,15960.7 h 1500 v 114.3 h -1500 v -114.3"
         style="fill:#c3dfed;fill-opacity:1;fill-rule:nonzero;stroke:none"
         id="path68" /><path
         d="m 19400.3,18896.4 h 1500 v 114.3 h -1500 v -114.3"
         style="fill:#c3dfed;fill-opacity:1;fill-rule:nonzero;stroke:none"
         id="path70" /><path
         d="m 19400.3,18653.5 h 1500 v 114.4 h -1500 v -114.4"
         style="fill:#c3dfed;fill-opacity:1;fill-rule:nonzero;stroke:none"
         id="path72" /><path
         d="m 19400.3,18410.7 h 1500 v 114.3 h -1500 v -114.3"
         style="fill:#c3dfed;fill-opacity:1;fill-rule:nonzero;stroke:none"
         id="path74" /><path
         d="m 19400.3,18167.9 h 1500 v 114.2 h -1500 v -114.2"
         style="fill:#c3dfed;fill-opacity:1;fill-rule:nonzero;stroke:none"
         id="path76" /><path
         d="m 19400.3,17925 h 1500 v 114.3 h -1500 V 17925"
         style="fill:#c3dfed;fill-opacity:1;fill-rule:nonzero;stroke:none"
         id="path78" /><path
         d="m 19400.3,17682.1 h 1500 v 114.3 h -1500 v -114.3"
         style="fill:#c3dfed;fill-opacity:1;fill-rule:nonzero;stroke:none"
         id="path80" /><path
         d="m 19767.8,15460.1 411.1,238.1 411.1,-238.1 v 1276.3 h -822.2 v -1276.3"
         style="fill:#8bb8dc;fill-opacity:1;fill-rule:nonzero;stroke:none"
         id="path82" /><path
         d="m 20178.9,17307.8 c -315.6,0 -571.4,-255.9 -571.4,-571.4 0,-315.6 255.8,-571.5 571.4,-571.5 315.6,0 571.4,255.9 571.4,571.5 0,315.5 -255.8,571.4 -571.4,571.4"
         style="fill:#a0cfe6;fill-opacity:1;fill-rule:nonzero;stroke:none"
         id="path84" /><path
         d="m 20178.9,17147.4 c -227,0 -411.1,-184 -411.1,-411 0,-227.1 184.1,-411.1 411.1,-411.1 227,0 411.1,184 411.1,411.1 0,227 -184.1,411 -411.1,411"
         style="fill:#8bb8dc;fill-opacity:1;fill-rule:nonzero;stroke:none"
         id="path86" /><path
         d="m 15497.6,20455.6 c -215.9,95.8 -279.7,-30.1 -314.7,0.4 -81.6,71 -12,114 51,229.1 31.7,57.7 101.3,108.2 83,134 -23.7,33 -84.5,76.2 -84.5,76.2 l -163,-196.6 c 0,0 -238.4,-266.5 -251.1,-647.4 -12.7,-380.9 -172.3,-463.1 -379.4,-655.9 -207,-192.8 -198.4,-434.6 -186.8,-543.1 8,-75 159.6,-13.7 159.6,-13.7 0,0 -94.4,242.3 68.4,362.4 162.7,120.1 441.3,-284.1 843.5,-38.6 449.3,274.6 672,1072.1 174,1293.2"
         style="fill:#a0cfe6;fill-opacity:1;fill-rule:nonzero;stroke:none"
         id="path88" /><path
         d="m 15223.5,19629.7 c -84.2,0 -152.4,-68.2 -152.4,-152.4 0,-84.1 68.2,-152.4 152.4,-152.4 84.1,0 152.4,68.3 152.4,152.4 0,84.2 -68.3,152.4 -152.4,152.4"
         style="fill:#8bb8dc;fill-opacity:1;fill-rule:nonzero;stroke:none"
         id="path90" /><path
         d="m 14876.4,19477.4 c -44.6,0 -80.9,-36.3 -80.9,-81 0,-44.7 36.3,-80.9 80.9,-80.9 44.7,0 81,36.2 81,80.9 0,44.7 -36.3,81 -81,81"
         style="fill:#8bb8dc;fill-opacity:1;fill-rule:nonzero;stroke:none"
         id="path92" /><path
         d="m 15044.9,19853.3 c -44.5,-2.5 -78.7,-40.9 -76,-85.5 2.5,-44.6 40.9,-78.6 85.5,-76.1 44.6,2.6 78.8,40.9 76.1,85.6 -2.6,44.5 -40.9,78.6 -85.6,76"
         style="fill:#8bb8dc;fill-opacity:1;fill-rule:nonzero;stroke:none"
         id="path94" /><path
         d="m 15283,19974.2 c -32.8,0 -59.5,-26.7 -59.5,-59.5 0,-32.9 26.7,-59.5 59.5,-59.5 32.9,0 59.6,26.6 59.6,59.5 0,32.8 -26.7,59.5 -59.6,59.5"
         style="fill:#8bb8dc;fill-opacity:1;fill-rule:nonzero;stroke:none"
         id="path96" /><path
         d="m 15164,20164.4 c -32.9,0 -59.6,-26.7 -59.6,-59.5 0,-32.9 26.7,-59.6 59.6,-59.6 32.8,0 59.5,26.7 59.5,59.6 0,32.8 -26.7,59.5 -59.5,59.5"
         style="fill:#8bb8dc;fill-opacity:1;fill-rule:nonzero;stroke:none"
         id="path98" /><path
         d="m 14701,16536.4 c -161.4,95.9 -48,-95.9 -48,-95.9 0,0 113.5,-143.8 113.5,-244.1 0,-100.3 -148.2,-65.5 -170.1,-43.6 -21.9,21.7 -26.1,-126.5 -26.1,-126.5 0,0 122,26 196.2,43.5 74,17.5 109.1,-610.1 130.8,-684.3 21.7,-74.2 117.6,0 117.6,0 0,0 -152.5,1055.1 -313.9,1150.9"
         style="fill:#a0cfe6;fill-opacity:1;fill-rule:nonzero;stroke:none"
         id="path100" /><path
         d="m 14810.2,16952.9 c -49.4,145.8 -406.4,257.2 -615.4,-33.2 -209.2,-290.4 -235.1,-866.2 -26.8,-1109.2 208.2,-243.1 385.4,-250.9 527.4,-160.4 193.6,122.9 -46.6,325.3 -25.9,668.7 20.6,343.6 230.1,371.3 140.7,634.1"
         style="fill:#8bb8dc;fill-opacity:1;fill-rule:nonzero;stroke:none"
         id="path102" /><path
         d="m 15462.4,16152.8 c -21.9,-21.9 -170,-56.7 -170,43.6 0,100.3 113.4,244.1 113.4,244.1 0,0 113.3,191.8 -48,95.9 -161.4,-95.8 -313.9,-1150.9 -313.9,-1150.9 0,0 95.9,-74.2 117.7,0 21.8,74.2 56.6,701.8 130.8,684.3 74.1,-17.5 196.1,-43.5 196.1,-43.5 0,0 -4.2,148.2 -26.1,126.5"
         style="fill:#a0cfe6;fill-opacity:1;fill-rule:nonzero;stroke:none"
         id="path104" /><path
         d="m 15248.6,16952.9 c -89.3,-262.8 120.1,-290.5 140.7,-634.1 20.7,-343.4 -219.6,-545.8 -25.9,-668.7 142.1,-90.5 319.2,-82.7 527.4,160.4 208.3,243 182.4,818.8 -26.8,1109.2 -209,290.4 -566,179 -615.4,33.2"
         style="fill:#8bb8dc;fill-opacity:1;fill-rule:nonzero;stroke:none"
         id="path106" /><path
         d="m 11517.7,5697.6 h 636.6 v 580.3 h -636.6 v -580.3"
         style="fill:#78abce;fill-opacity:1;fill-rule:nonzero;stroke:none"
         id="path108" /><path
         d="m 11517.7,3773.6 h 636.6 v 290 h -636.6 v -290"
         style="fill:#78abce;fill-opacity:1;fill-rule:nonzero;stroke:none"
         id="path110" /><path
         d="m 11613.9,4063.6 h 444.1 v 1634 h -444.1 v -1634"
         style="fill:#8bb8dc;fill-opacity:1;fill-rule:nonzero;stroke:none"
         id="path112" /><path
         d="m 9835.81,3463.5 h 4000.29 v 322 H 9835.81 v -322"
         style="fill:#78abce;fill-opacity:1;fill-rule:nonzero;stroke:none"
         id="path114" /><path
         d="m 9835.92,3695.1 c -165.74,0 -300.11,-134.4 -300.11,-300.2 0,-165.6 134.37,-299.9 300.11,-299.9 165.58,0 299.88,134.3 299.88,299.9 0,165.8 -134.3,300.2 -299.88,300.2"
         style="fill:#629abf;fill-opacity:1;fill-rule:nonzero;stroke:none"
         id="path116" /><path
         d="m 13836.1,3695.1 c -165.7,0 -300,-134.4 -300,-300.2 0,-165.6 134.3,-299.9 300,-299.9 165.7,0 300,134.3 300,299.9 0,165.8 -134.3,300.2 -300,300.2"
         style="fill:#629abf;fill-opacity:1;fill-rule:nonzero;stroke:none"
         id="path118" /><path
         d="m 11867.3,13482.5 c -1062.4,0 -2374.58,-605 -2374.58,-1586 0,-981 687.38,-4580.7 687.38,-4580.7 l 3499.3,-47.8 c 0,0 499.9,3651.6 499.9,4540.5 0,1069 -1249.8,1674 -2312,1674"
         style="fill:#78abce;fill-opacity:1;fill-rule:nonzero;stroke:none"
         id="path120" /><path
         d="m 11821.7,7676.3 c -1380.4,0 -2499.51,0 -2499.51,-749.2 0,-413.7 1119.11,-749.1 2499.51,-749.1 1380.5,0 2499.5,335.4 2499.5,749.1 0,749.2 -1119,749.2 -2499.5,749.2"
         style="fill:#8bb8dc;fill-opacity:1;fill-rule:nonzero;stroke:none"
         id="path122" /><path
         d="M 2056.68,3095 H 8742.8 V 9716.3 H 2056.68 V 3095"
         style="fill:#8bb8dc;fill-opacity:1;fill-rule:nonzero;stroke:none"
         id="path124" /><path
         d="m 14929.1,3095 h 1624.7 V 9716.3 H 14929.1 V 3095"
         style="fill:#8bb8dc;fill-opacity:1;fill-rule:nonzero;stroke:none"
         id="path126" /><path
         d="m 16273.3,10405.8 18,-30.6 21.2,26.4 8.5,79.6 -39.3,4.1 -8.4,-79.5"
         style="fill:#f0f1f1;fill-opacity:1;fill-rule:nonzero;stroke:none"
         id="path128" /><path
         d="m 16262.3,10447.5 69.5,-7.5 26.5,105.8 -99.5,11.6 3.5,-109.9"
         style="fill:#be1e2c;fill-opacity:1;fill-rule:nonzero;stroke:none"
         id="path130" /><path
         d="m 16568.3,12950 -11.6,1.3 c -54.5,5.7 -103.5,-33.8 -109.2,-88.4 l -181.6,-1715.7 c -5.4,-50.4 -37.5,-597.8 -16.5,-616.8 10.7,-9.6 92,-21.2 110.2,-8.9 17.3,11.6 111.7,568.9 115.3,603.6 l 181.6,1715.7 c 5.8,54.5 -33.8,103.3 -88.2,109.2"
         style="fill:#8bb8dc;fill-opacity:1;fill-rule:nonzero;stroke:none"
         id="path132" /><path
         d="m 16447.5,12862.9 -181.6,-1715.7 c -5.4,-50.4 -37.5,-597.8 -16.5,-616.8 5.5,-4.9 30.2,-10.5 55,-12.9 l 257.5,2433.2 -5.2,0.6 c -54.5,5.7 -103.5,-33.8 -109.2,-88.4"
         style="fill:#a0cfe6;fill-opacity:1;fill-rule:nonzero;stroke:none"
         id="path134" /><path
         d="m 16651,12802.3 -219,23.3 c -11.8,1.1 -22.1,-4.8 -23.1,-13.5 -1,-8.5 -6.4,-15 5.5,-16.3 l 233.3,-24.6 c 11.9,-1.3 22.1,4.7 23.1,13.2 0.9,8.7 -8,16.7 -19.8,17.9"
         style="fill:#78abce;fill-opacity:1;fill-rule:nonzero;stroke:none"
         id="path136" /><path
         d="m 16388.6,12767 c -2.8,-27.6 -59.5,-652.9 -55.3,-668.5 4.3,-15.6 34.5,11.5 37.4,39 2.9,27.5 -10.1,46.6 -8.7,46.4 1.5,-0.2 57.2,597.5 57.2,597.5 l 13.9,44 c 0,0 -37.1,11.4 -44.5,-58.4"
         style="fill:#78abce;fill-opacity:1;fill-rule:nonzero;stroke:none"
         id="path138" /><path
         d="m 15666.3,12749.3 c -3.6,9.8 -14.6,15.2 -24.6,11.5 l -114.9,-41.1 c -9.9,-3.5 -15.1,-14.6 -11.6,-24.7 l 39.6,-110.6 c 3.6,-9.8 14.6,-15 24.6,-11.4 l 114.9,41.1 c 9.9,3.6 15.2,14.5 11.6,24.5 l -39.6,110.7"
         style="fill:#8bb8dc;fill-opacity:1;fill-rule:nonzero;stroke:none"
         id="path140" /><path
         d="m 16444.6,10351.5 0.6,228.5 -152.7,-54.7 z"
         style="fill:#f7cf9c;fill-opacity:1;fill-rule:nonzero;stroke:none"
         id="path142" /><path
         d="m 16444.6,10351.5 2.9,72.4 -53.2,-19.1 z"
         style="fill:#221f1f;fill-opacity:1;fill-rule:nonzero;stroke:none"
         id="path144" /><path
         d="m 15553.9,12586.8 738.6,-2061.5 152.7,54.7 -738.7,2061.4 -152.6,-54.6"
         style="fill:#a0cfe6;fill-opacity:1;fill-rule:nonzero;stroke:none"
         id="path146" /><path
         d="m 15539.9,12626.1 14,-39.3 152.6,54.6 -14.1,39.3 -152.5,-54.6"
         style="fill:#f0f1f1;fill-opacity:1;fill-rule:nonzero;stroke:none"
         id="path148" /><path
         d="m 15629.6,12613.8 738.6,-2061.3 77,27.5 -738.7,2061.4 -76.9,-27.6"
         style="fill:#8bb8dc;fill-opacity:1;fill-rule:nonzero;stroke:none"
         id="path150" /><path
         d="m 15700.7,10276.7 h 1141.8 v 1468.6 h -1141.8 v -1468.6"
         style="fill:#8bb8dc;fill-opacity:1;fill-rule:nonzero;stroke:none"
         id="path152" /><path
         d="m 16271.6,10276.7 h 570.9 v 1468.6 h -570.9 v -1468.6"
         style="fill:#78abce;fill-opacity:1;fill-rule:nonzero;stroke:none"
         id="path154" /><path
         d="m 3000.95,14499 c -139.92,0 -253.16,-113.2 -253.16,-253.1 v -1947.1 -252.3 -480.2 c 0,-139.9 113.13,-253.1 252.71,-253.1 H 6240.37 L 4317.16,14499 H 3000.95"
         style="fill:#78abce;fill-opacity:1;fill-rule:nonzero;stroke:none"
         id="path156" /><path
         d="M 7224.21,14499 H 4317.16 l 1923.21,-3185.8 h 983.62 c 139.73,0 252.97,113.2 252.97,253.1 v 480.2 h 0.15 v 2199.4 c 0,139.9 -113.24,253.1 -252.9,253.1"
         style="fill:#81b2d3;fill-opacity:1;fill-rule:nonzero;stroke:none"
         id="path158" /><path
         d="m 5098.11,12501.6 c -239.55,0 -433.85,-194.4 -433.85,-434 v -1405.8 c 0,-239.8 194.3,-287.2 433.85,-287.2 239.73,0 434,47.4 434,287.2 v 1405.8 c 0,239.6 -194.27,434 -434,434"
         style="fill:#8bb8dc;fill-opacity:1;fill-rule:nonzero;stroke:none"
         id="path160" /><path
         d="M 6078.05,10780.2 H 4146.96 c -100.71,0 -182.36,-81.5 -182.36,-182.1 v -321.4 h 2295.78 v 321.2 c 0,100.7 -81.62,182.3 -182.33,182.3"
         style="fill:#78abce;fill-opacity:1;fill-rule:nonzero;stroke:none"
         id="path162" /><path
         d="M 1119.41,9716.3 H 17491.1 v 560.4 H 1119.41 v -560.4"
         style="fill:#a0cfe6;fill-opacity:1;fill-rule:nonzero;stroke:none"
         id="path164" /><path
         d="m 7433.7,16796.4 h 1885.74 v 685.7 H 7433.7 v -685.7"
         style="fill:#8bb8dc;fill-opacity:1;fill-rule:nonzero;stroke:none"
         id="path166" /><path
         d="m 2147.98,16796.4 h 1885.7 v 685.7 h -1885.7 v -685.7"
         style="fill:#8bb8dc;fill-opacity:1;fill-rule:nonzero;stroke:none"
         id="path168" /><path
         d="m 8433.73,17901.2 h 614.28 v 1909.5 h -614.28 v -1909.5"
         style="fill:#a0cfe6;fill-opacity:1;fill-rule:nonzero;stroke:none"
         id="path170" /><path
         d="m 8433.73,19567.8 h 614.28 v 242.9 h -614.28 v -242.9"
         style="fill:#8bb8dc;fill-opacity:1;fill-rule:nonzero;stroke:none"
         id="path172" /><path
         d="m 8433.73,17901.2 h 614.28 v 185.7 h -614.28 v -185.7"
         style="fill:#8bb8dc;fill-opacity:1;fill-rule:nonzero;stroke:none"
         id="path174" /><path
         d="m 7747.98,17901.2 h 685.75 v 2466.6 h -685.75 v -2466.6"
         style="fill:#78abce;fill-opacity:1;fill-rule:nonzero;stroke:none"
         id="path176" /><path
         d="m 7933.73,18360.7 h 314.29 v 1735.7 h -314.29 v -1735.7"
         style="fill:#8bb8dc;fill-opacity:1;fill-rule:nonzero;stroke:none"
         id="path178" /><path
         d="m 7224.14,17901.2 h 523.84 v 2085.7 h -523.84 v -2085.7"
         style="fill:#8bb8dc;fill-opacity:1;fill-rule:nonzero;stroke:none"
         id="path180" /><path
         d="m 4661.73,17901.2 h 942.85 v 3238.1 h -942.85 v -3238.1"
         style="fill:#8bb8dc;fill-opacity:1;fill-rule:nonzero;stroke:none"
         id="path182" /><path
         d="m 4795.02,20767.8 v -1552.4 h 676.23 v 1552.4 l -338.1,-209.5 -338.13,209.5"
         style="fill:#ffffff;fill-opacity:1;fill-rule:nonzero;stroke:none"
         id="path184" /><path
         d="m 5133.15,19003.4 c -138.05,0 -249.92,-111.8 -249.92,-249.9 0,-138 111.87,-249.9 249.92,-249.9 138.03,0 250,111.9 250,249.9 0,138.1 -111.97,249.9 -250,249.9"
         style="fill:#c3dfed;fill-opacity:1;fill-rule:nonzero;stroke:none"
         id="path186" /><path
         d="m 5133.15,18955.2 c -111.38,0 -201.7,-90.3 -201.7,-201.7 0,-111.4 90.32,-201.7 201.7,-201.7 111.39,0 201.64,90.3 201.64,201.7 0,111.4 -90.25,201.7 -201.64,201.7"
         style="fill:#629abf;fill-opacity:1;fill-rule:nonzero;stroke:none"
         id="path188" /><path
         d="m 3718.88,17901.2 h 942.85 v 3238.1 h -942.85 v -3238.1"
         style="fill:#78abce;fill-opacity:1;fill-rule:nonzero;stroke:none"
         id="path190" /><path
         d="m 3852.21,20767.8 v -1552.4 h 676.18 v 1552.4 l -338.09,-209.5 -338.09,209.5"
         style="fill:#ffffff;fill-opacity:1;fill-rule:nonzero;stroke:none"
         id="path192" /><path
         d="m 4190.3,19003.4 c -138.09,0 -249.96,-111.8 -249.96,-249.9 0,-138 111.87,-249.9 249.96,-249.9 138.03,0 250,111.9 250,249.9 0,138.1 -111.97,249.9 -250,249.9"
         style="fill:#c3dfed;fill-opacity:1;fill-rule:nonzero;stroke:none"
         id="path194" /><path
         d="m 4190.3,18955.2 c -111.38,0 -201.67,-90.3 -201.67,-201.7 0,-111.4 90.29,-201.7 201.67,-201.7 111.38,0 201.64,90.3 201.64,201.7 0,111.4 -90.26,201.7 -201.64,201.7"
         style="fill:#629abf;fill-opacity:1;fill-rule:nonzero;stroke:none"
         id="path196" /><path
         d="m 2775.99,17901.2 h 942.89 v 3238.1 h -942.89 v -3238.1"
         style="fill:#8bb8dc;fill-opacity:1;fill-rule:nonzero;stroke:none"
         id="path198" /><path
         d="m 2909.32,20767.8 v -1552.4 h 676.23 v 1552.4 l -338.1,-209.5 -338.13,209.5"
         style="fill:#ffffff;fill-opacity:1;fill-rule:nonzero;stroke:none"
         id="path200" /><path
         d="m 3247.45,19003.4 c -138.09,0 -249.96,-111.8 -249.96,-249.9 0,-138 111.87,-249.9 249.96,-249.9 138.02,0 250,111.9 250,249.9 0,138.1 -111.98,249.9 -250,249.9"
         style="fill:#c3dfed;fill-opacity:1;fill-rule:nonzero;stroke:none"
         id="path202" /><path
         d="m 3247.45,18955.2 c -111.38,0 -201.71,-90.3 -201.71,-201.7 0,-111.4 90.33,-201.7 201.71,-201.7 111.38,0 201.64,90.3 201.64,201.7 0,111.4 -90.26,201.7 -201.64,201.7"
         style="fill:#629abf;fill-opacity:1;fill-rule:nonzero;stroke:none"
         id="path204" /><path
         d="m 1833.14,17901.2 h 942.85 v 3238.1 h -942.85 v -3238.1"
         style="fill:#78abce;fill-opacity:1;fill-rule:nonzero;stroke:none"
         id="path206" /><path
         d="m 1966.47,20767.8 v -1552.4 h 676.23 v 1552.4 l -338.13,-209.5 -338.1,209.5"
         style="fill:#ffffff;fill-opacity:1;fill-rule:nonzero;stroke:none"
         id="path208" /><path
         d="m 2304.57,19003.4 c -138.07,0 -249.97,-111.8 -249.97,-249.9 0,-138 111.9,-249.9 249.97,-249.9 138.05,0 250.03,111.9 250.03,249.9 0,138.1 -111.98,249.9 -250.03,249.9"
         style="fill:#c3dfed;fill-opacity:1;fill-rule:nonzero;stroke:none"
         id="path210" /><path
         d="m 2304.57,18955.2 c -111.39,0 -201.68,-90.3 -201.68,-201.7 0,-111.4 90.29,-201.7 201.68,-201.7 111.38,0 201.67,90.3 201.67,201.7 0,111.4 -90.29,201.7 -201.67,201.7"
         style="fill:#629abf;fill-opacity:1;fill-rule:nonzero;stroke:none"
         id="path212" /><path
         d="m 6383.14,17992.8 327.53,-91.6 514.51,1838.9 -327.53,91.5 -514.51,-1838.8"
         style="fill:#78abce;fill-opacity:1;fill-rule:nonzero;stroke:none"
         id="path214" /><path
         d="m 1119.41,17482.1 h 9095.19 v 419.1 H 1119.41 v -419.1"
         style="fill:#ffffff;fill-opacity:1;fill-rule:nonzero;stroke:none"
         id="path216" /><path
         d="m 18868,13029.9 h 3809.2 v 411.7 H 18868 v -411.7"
         style="fill:#629abf;fill-opacity:1;fill-rule:nonzero;stroke:none"
         id="path218" /><path
         d="m 19222.3,3129.6 h 3454.9 v 9900.3 H 19222.3 V 3129.6"
         style="fill:#f0f1f1;fill-opacity:1;fill-rule:nonzero;stroke:none"
         id="path220" /><path
         d="m 19617.9,11150 h 3059.3 v 1445.9 H 19617.9 V 11150"
         style="fill:#a0cfe6;fill-opacity:1;fill-rule:nonzero;stroke:none"
         id="path222" /><path
         d="m 19617.9,9431.4 h 3059.3 v 1445.9 H 19617.9 V 9431.4"
         style="fill:#a0cfe6;fill-opacity:1;fill-rule:nonzero;stroke:none"
         id="path224" /><path
         d="m 19617.9,7712.7 h 3059.3 V 9158.6 H 19617.9 V 7712.7"
         style="fill:#a0cfe6;fill-opacity:1;fill-rule:nonzero;stroke:none"
         id="path226" /><path
         d="m 19617.9,5994 h 3059.3 V 7439.9 H 19617.9 V 5994"
         style="fill:#a0cfe6;fill-opacity:1;fill-rule:nonzero;stroke:none"
         id="path228" /><path
         d="m 19617.9,4275.4 h 3059.3 V 5721.2 H 19617.9 V 4275.4"
         style="fill:#a0cfe6;fill-opacity:1;fill-rule:nonzero;stroke:none"
         id="path230" /><path
         d="m 8244.78,5119.2 -184.15,-8.1 c 93.53,-53.7 184.15,8.1 184.15,8.1"
         style="fill:#ffffff;fill-opacity:1;fill-rule:nonzero;stroke:none"
         id="path232" /><path
         d="M 7327.6,11466.3 C 5899.52,11159.4 6103.13,8455 6039.36,5964.3 l 224.81,-933 1796.46,79.8 c -126.64,72.5 -258.59,356.8 -178.31,1292.7 139.47,1627.2 98.77,2277.2 98.77,2277.2 l 1628.6,3705 c 0,0 -1738.42,-803 -2282.09,-919.7"
         style="fill:#ffffff;fill-opacity:1;fill-rule:nonzero;stroke:none"
         id="path234" /><path
         d="m 7755.35,6145.2 197.24,46.7 -39.43,2519.7 z"
         style="fill:#e6e6e7;fill-opacity:1;fill-rule:nonzero;stroke:none"
         id="path236" /><path
         d="M 8579.53,1052 8572.79,0 h 2655.51 l 36,1130.8 -2684.77,-78.8"
         style="fill:#343444;fill-opacity:1;fill-rule:nonzero;stroke:none"
         id="path238" /><path
         d="M 11580.1,1052 11613.7,0 h 2657.5 L 14265,972.902 11580.1,1052"
         style="fill:#343444;fill-opacity:1;fill-rule:nonzero;stroke:none"
         id="path240" /><path
         d="m 14826.4,5115.7 -64,3.5 c 0,0 35.5,-65.3 64,-3.5"
         style="fill:#f0f1f1;fill-opacity:1;fill-rule:nonzero;stroke:none"
         id="path242" /><path
         d="m 15284.8,11466.3 c -543.6,116.7 -2282.2,919.7 -2282.2,919.7 l 1628.7,-3705 c 0,0 38.4,-650 177.9,-2277.2 78.7,-917 53.8,-1208.4 17.2,-1288.1 l 1521.9,-84.4 224.6,933 c -63.8,2490.7 139.8,5195.1 -1288.1,5502"
         style="fill:#f0f1f1;fill-opacity:1;fill-rule:nonzero;stroke:none"
         id="path244" /><path
         d="m 10210.6,11911.9 -2377.35,-893.7 -2.68,-8593.4 6942.23,-2.5 3.1,8593.5 -2243.8,1204.8 -2321.5,-308.7"
         style="fill:#d34a4a;fill-opacity:1;fill-rule:nonzero;stroke:none"
         id="path246" /><path
         d="m 11065.3,10865.9 -363.8,-5110.8 660.9,-1157.2 683.3,1106.1 -441.1,5161.8 -539.3,0.1"
         style="fill:#3d3d77;fill-opacity:1;fill-rule:nonzero;stroke:none"
         id="path248" /><path
         d="m 11327.3,12034.1 c 0,0 -538.9,-10.9 -670.2,-252.7 -290.3,-534.1 408.2,-991.7 408.2,-991.7 h 538.9 c 0,0 577.6,414.8 414.4,816.2 -131.8,323.4 -691.3,428.2 -691.3,428.2"
         style="fill:#262260;fill-opacity:1;fill-rule:nonzero;stroke:none"
         id="path250" /><path
         d="m 9510.84,12230.8 833.66,-1151.6 1012.9,997.7 -1693.77,1104.5 -152.79,-950.6"
         style="fill:#ea5e5e;fill-opacity:1;fill-rule:nonzero;stroke:none"
         id="path252" /><path
         d="m 11296.8,12077.2 1012.7,-998.6 758.1,1074.7 -76.3,1026.9 -1694.5,-1103"
         style="fill:#ea5e5e;fill-opacity:1;fill-rule:nonzero;stroke:none"
         id="path254" /><path
         d="m 9663.22,12306.8 -1721.97,-777.3 -337.5,-2079.3 c 0,0 -125.78,-5930.6 -168.12,-9450.2 h 3983.47 l 112.5,5398.7 -1868.38,6908.1"
         style="fill:#ffffff;fill-opacity:1;fill-rule:nonzero;stroke:none"
         id="path256" /><path
         d="m 9152.32,12307.1 -448.95,-1847.9 725.93,-712.1 -66.22,-559.3 2168.52,-3789.1 -1964.43,7302.9 -414.85,-394.5"
         style="fill:#f0f1f1;fill-opacity:1;fill-rule:nonzero;stroke:none"
         id="path258" /><path
         d="m 8195.3,2550.3 1543.41,-0.5 v 203.4 l -1543.41,0.7 v -203.6"
         style="fill:#d0d2d3;fill-opacity:1;fill-rule:nonzero;stroke:none"
         id="path260" /><path
         d="M 14697.1,11527.5 12975.3,12305.6 11102.6,5398.7 11105.5,0 h 4091.9 c -40.8,3519.9 -164.3,9447.7 -164.3,9447.7 l -336,2079.8"
         style="fill:#f0f1f1;fill-opacity:1;fill-rule:nonzero;stroke:none"
         id="path262" /><path
         d="m 13486.4,12305.5 -414.3,394.9 -1969.5,-7301.7 2399.7,3788 -294.6,559.3 726.2,711.4 -447.5,1848.1"
         style="fill:#ffffff;fill-opacity:1;fill-rule:nonzero;stroke:none"
         id="path264" /><path
         d="m 11546,4661.1 c -84.4,0.1 -152.5,-68.2 -152.8,-152.4 -0.2,-84.4 68.5,-152.7 152.4,-152.7 84,0 152.7,68.2 152.6,152.4 0.1,84.2 -68.2,152.8 -152.2,152.7"
         style="fill:#d0d2d3;fill-opacity:1;fill-rule:nonzero;stroke:none"
         id="path266" /><path
         d="m 11545.3,3058.9 c -83.9,0.7 -152.4,-68.3 -152.6,-152.4 0,-84.2 68.4,-152.5 152.6,-152.6 83.9,0.1 152.5,68.4 152.7,152.6 0.2,84.5 -68.4,152.7 -152.7,152.4"
         style="fill:#d0d2d3;fill-opacity:1;fill-rule:nonzero;stroke:none"
         id="path268" /><path
         d="m 11555.4,1357 c -84.3,0.1 -152.6,-68.3 -153.1,-152.4 0,-84.6 69,-152.6 152.6,-152.6 84.1,0 152.8,68 152.5,152.3 0.3,84.3 -68,152.8 -152,152.7"
         style="fill:#d0d2d3;fill-opacity:1;fill-rule:nonzero;stroke:none"
         id="path270" /><path
         d="m 12848.6,2548.8 1543.2,-0.8 0.3,203.9 -1543.5,0.2 v -203.3"
         style="fill:#d0d2d3;fill-opacity:1;fill-rule:nonzero;stroke:none"
         id="path272" /><path
         d="M 9527.14,5276.6 15093.8,4210.7 v 473.7 L 9606.01,5790 9527.14,5276.6"
         style="fill:#d0d2d3;fill-opacity:1;fill-rule:nonzero;stroke:none"
         id="path274" /><path
         d="m 11922.5,6883.4 45.9,-563.3 2780,-361.8 -13.4,498.9 -2812.5,426.2"
         style="fill:#d0d2d3;fill-opacity:1;fill-rule:nonzero;stroke:none"
         id="path276" /><path
         d="m 14580.8,6191.9 197.4,-46.7 -157.9,2566.4 z"
         style="fill:#d0d2d3;fill-opacity:1;fill-rule:nonzero;stroke:none"
         id="path278" /><path
         d="m 8612.3,7399.3 c -72.21,-161.2 191.59,-328.7 191.59,-328.7 0,0 -633.26,172 -860.86,103.4 -227.56,-68.3 -354.61,-350.5 -385.86,-549.3 -31.06,-198.8 168.53,-566.6 515.92,-690.4 347.95,-124.2 1408.29,-277.9 1508.81,-154.9 100.74,122.6 270.98,1098.2 270.98,1098.2 l -847.28,572.3 c 0,0 -320.76,110.7 -393.3,-50.6"
         style="fill:#ffba7f;fill-opacity:1;fill-rule:nonzero;stroke:none"
         id="path280" /><path
         d="M 15102,6111.5 9803.62,7159 9511.06,5485.2 c 0,0 4897.94,-955.8 6035.54,-1143.5 1137.2,-187.6 991.6,1891.3 991.6,1891.3 L 15102,6111.5"
         style="fill:#f0f1f1;fill-opacity:1;fill-rule:nonzero;stroke:none"
         id="path282" /><path
         d="m 7518.3,4684.4 v -473.7 l 5567,1065.9 -79.1,513.4 -5487.9,-1105.6"
         style="fill:#d0d2d3;fill-opacity:1;fill-rule:nonzero;stroke:none"
         id="path284" /><path
         d="m 13443.1,7117.1 c -618.8,41.6 -979.5,-163.4 -979.5,-163.4 0,0 170.5,-975.6 271.1,-1098.3 100.7,-122.8 565.8,377.3 913.7,501.4 347.6,123.6 684.8,74.3 898.8,100.1 200,23.9 -537.2,622.4 -1104.1,660.2"
         style="fill:#ffba7f;fill-opacity:1;fill-rule:nonzero;stroke:none"
         id="path286" /><path
         d="M 7510.37,6269.7 6074.33,6233 c 0,0 -146.01,-2078.9 991.59,-1891.3 1137.49,187.7 6035.38,1143.5 6035.38,1143.5 L 12808.7,7317 7510.37,6269.7"
         style="fill:#ffffff;fill-opacity:1;fill-rule:nonzero;stroke:none"
         id="path288" /><path
         d="m 8705.71,6106.4 c -190.92,-28.8 -430.24,-21.3 -512.86,56.4 -54.36,39.4 -114.62,204 -141.6,429.6 -60.75,450.3 -40.88,1133.4 -47.06,1671.3 l -157.73,-1.8 c 6.4,-534 -14.78,-1218 48.02,-1690.3 34.75,-237.6 77.91,-423.7 196.25,-529.6 170.31,-135.5 430.12,-116.5 635.89,-92.3 167.45,22.7 298.25,58.7 300.41,59.6 l -42.04,151.8 c -0.07,0 -123.32,-34.1 -279.28,-54.7"
         style="fill:#bbbdbf;fill-opacity:1;fill-rule:nonzero;stroke:none"
         id="path290" /><path
         d="m 8883.17,6220.5 c -106.7,-22.9 -180.54,-98.6 -165.7,-169.8 15.18,-70.9 113.54,-110.3 220.5,-87.9 106.43,23 180.61,98.9 165.58,169.9 -15.06,71.1 -113.65,110.6 -220.38,87.8"
         style="fill:#57585a;fill-opacity:1;fill-rule:nonzero;stroke:none"
         id="path292" /><path
         d="m 10270.3,8586.4 -152.8,-39.9 c 135.7,-520.5 334,-1174.4 394.3,-1624.6 32.6,-224.5 18.3,-399.4 -23.5,-451.9 -59.4,-96.5 -288.3,-167.1 -480.4,-189.4 -155.69,-20.8 -283.33,-19.9 -283.74,-20.5 l -0.22,-157.6 c 2.08,0 137.53,-0.5 305.06,21.6 204.9,30.8 460.9,80.8 589.5,256.4 86,133.2 79,323.8 49.7,562.2 -63.5,472.5 -263.7,1126.7 -397.9,1643.7"
         style="fill:#bbbdbf;fill-opacity:1;fill-rule:nonzero;stroke:none"
         id="path294" /><path
         d="m 9807.34,6344.3 c -109,-6.3 -193.93,-70.2 -189.87,-142.9 4.2,-72.3 95.83,-126.1 204.64,-120.1 108.97,6.3 193.69,70.2 189.69,142.6 -4.1,72.7 -95.79,126.6 -204.46,120.4"
         style="fill:#57585a;fill-opacity:1;fill-rule:nonzero;stroke:none"
         id="path296" /><path
         d="M 8856.9,9938.6 C 8150.66,9837.5 7719.71,9036.1 7834.22,8170.5 l 204.31,27.5 h -0.26 c -52.42,393.3 21.28,764.1 178.13,1040.9 157.73,277.6 392.44,458.6 667.81,495.4 275.33,36.9 549.29,-76.1 774.33,-302.4 223.88,-225.9 392.96,-564.1 445.46,-957.3 l 204.4,27.2 c -117.2,865.2 -743.61,1525.1 -1451.5,1436.8"
         style="fill:#57585a;fill-opacity:1;fill-rule:nonzero;stroke:none"
         id="path298" /><path
         d="m 9058.87,12631.3 c -190.4,-247.6 -355.35,-565.2 -418.67,-900.9 -24.96,-133.1 -34.78,-269.3 -34.78,-402.2 0.56,-533.2 146.46,-1545.4 147.91,-1550.5 l 197.62,57.7 h -0.33 c 0,0.6 -5.02,111.6 -42.45,290.4 -37.24,179 -105.43,954.9 -105.17,1202.4 -0.26,123.1 9,247.6 31.1,365.9 55.25,296 206.51,590.4 381.06,816.7 172.39,226.9 376.34,382.8 493.67,408.9 l -47.88,191.4 c -198.95,-52.8 -409.14,-232.8 -602.08,-479.8"
         style="fill:#57585a;fill-opacity:1;fill-rule:nonzero;stroke:none"
         id="path300" /><path
         d="m 13594.2,12631.3 c -192.8,247.1 -403.2,427 -601.9,479.8 l -47.9,-191.6 c 117.1,-26.2 321.1,-182 493.4,-408.7 174.6,-226.3 326,-520.7 381.3,-816.7 21.4,-116.1 30.9,-266.7 30.9,-431.3 0.3,-662.3 -151.2,-1538.8 -151,-1540.4 l 194.7,-34 v 0.3 c 0.1,2.6 153.3,885.1 153.8,1574.1 -0.1,172.2 -9.4,332.4 -34.3,467.6 -63.8,335.8 -228.3,653.3 -419,900.9"
         style="fill:#57585a;fill-opacity:1;fill-rule:nonzero;stroke:none"
         id="path302" /><path
         d="m 13587.9,9777.7 c -392.6,0 -710.7,-318.2 -710.7,-710.8 0,-392.4 318.1,-710.6 710.7,-710.6 392.3,0 710.6,318.2 710.6,710.6 0,392.6 -318.3,710.8 -710.6,710.8"
         style="fill:#929597;fill-opacity:1;fill-rule:nonzero;stroke:none"
         id="path304" /><path
         d="m 13587.9,9409.1 c -188.9,0 -342.6,-153.1 -342.6,-342.2 0,-188.8 153.7,-342.3 342.6,-342.3 188.7,0 342,153.5 342,342.3 0,189.1 -153.3,342.2 -342,342.2"
         style="fill:#d0d2d3;fill-opacity:1;fill-rule:nonzero;stroke:none"
         id="path306" /><path
         d="m 7795.34,16616.4 c -340.33,-99 -261.68,-609.8 -261.94,-799.8 -0.26,-190.4 284.49,-863.5 475.26,-937.3 483.33,-187.5 483.55,517 483.55,517 v 819.7 c 0,0 -356.8,499.1 -696.87,400.4"
         style="fill:#ffba7f;fill-opacity:1;fill-rule:nonzero;stroke:none"
         id="path308" /><path
         d="m 14724.3,16608.1 c -340.4,98.7 -697.2,-399.3 -697.2,-399.3 v -820.1 c 0,0 -0.8,-726.4 482.8,-517.6 187.6,81.3 475.8,747.1 476.1,937.3 0,190 78.5,700.8 -261.7,799.7"
         style="fill:#ffba7f;fill-opacity:1;fill-rule:nonzero;stroke:none"
         id="path310" /><path
         d="m 12120,20208.8 -1690.6,0.5 c -1227.22,0.6 -2222.08,-1296.8 -2222.9,-2897.5 l -0.56,-2205.2 c -0.67,-1600.9 1667.77,-2723.1 2220.96,-2899.3 582.2,-185.3 1152.2,-159.1 1690.7,-0.5 581.4,171.5 2222.3,1296.9 2223.1,2897.5 l 0.6,2205.4 c 0.3,1600.7 -994.1,2898.9 -2221.3,2899.1"
         style="fill:#ffba7f;fill-opacity:1;fill-rule:nonzero;stroke:none"
         id="path312" /><path
         d="m 8205.94,16057.9 c 227.38,183.1 793.52,3266.2 822.46,3429 l -969.33,-309 c 0,0 -50.9,-3279.5 146.87,-3120"
         style="fill:#3b2314;fill-opacity:1;fill-rule:nonzero;stroke:none"
         id="path314" /><path
         d="m 13618.3,19292.6 c 0,0 573.8,-3151.7 752.2,-3301.8 178,-149.8 134.2,2818.5 134.2,2818.5 l -886.4,483.3"
         style="fill:#3b2314;fill-opacity:1;fill-rule:nonzero;stroke:none"
         id="path316" /><path
         d="m 9905.78,16272.4 c -201.34,0 -364.43,-163 -364.43,-364.3 0,-201 163.09,-363.9 364.02,-363.9 200.93,-0.2 364.13,162.9 364.13,363.7 0.3,201.2 -162.7,364.2 -363.72,364.5"
         style="fill:#221f1f;fill-opacity:1;fill-rule:nonzero;stroke:none"
         id="path318" /><path
         d="m 12678.9,16271.6 c -200.7,0 -364.2,-163 -364.2,-364.3 0,-201 163,-364.1 363.9,-364.1 201.2,0 364.3,163.1 364.3,364.1 0,200.9 -163.1,364.3 -364,364.3"
         style="fill:#221f1f;fill-opacity:1;fill-rule:nonzero;stroke:none"
         id="path320" /><path
         d="m 13603.8,16874.1 c -423.8,283.8 -1233.3,185.1 -1356.8,172.6 -107.9,-10.4 -328.8,-106.8 -317.7,-214.8 10.5,-108.4 390.3,-187.7 498,-177 411.5,40.7 792.3,80.5 1372.2,-53.8 105.8,-24.6 -105.5,212.6 -195.7,273"
         style="fill:#3b2314;fill-opacity:1;fill-rule:nonzero;stroke:none"
         id="path322" /><path
         d="m 10391.8,17030.3 c -123.2,12 -932.89,111.3 -1356.96,-172.2 -90.4,-60.1 -301.45,-299.7 -195.57,-272.9 590.73,150.2 960.71,93.9 1371.83,53.2 108,-11 488,68 498.9,176.1 10.5,108.3 -209.9,204.7 -318.2,215.8"
         style="fill:#3b2314;fill-opacity:1;fill-rule:nonzero;stroke:none"
         id="path324" /><path
         d="m 10173,13962.1 c 177.3,-367.6 438.2,-967.3 1228.9,-966.1 829,1.3 1342.4,1266.6 1342.4,1266.6 -1045.6,-495.3 -1641.8,-554.6 -2571.3,-300.5"
         style="fill:#d15c58;fill-opacity:1;fill-rule:nonzero;stroke:none"
         id="path326" /><path
         d="m 10381.4,13909.4 c 66.1,-217.5 371.7,-306.9 989.2,-263.1 817.8,58.7 999.9,260.1 1101.2,492.8 -659.4,-302.2 -1559.3,-345.1 -2090.4,-229.7"
         style="fill:#ffffff;fill-opacity:1;fill-rule:nonzero;stroke:none"
         id="path328" /><path
         d="m 11390.1,13367.8 c 0,0 -154.6,122.7 -337.6,122.7 -182.5,0 -527.1,-114.6 -527.1,-114.6 158.2,-218 447.6,-375.5 853,-377.4 512.7,-2.6 824.8,411.8 824.8,411.8 0,0 -319.8,78 -542.7,80.1 -141.9,1.4 -270.4,-122.6 -270.4,-122.6"
         style="fill:#f88976;fill-opacity:1;fill-rule:nonzero;stroke:none"
         id="path330" /><path
         d="m 11759.2,14720.5 c -316.6,-264.1 -765.7,-184 -897.4,0.5 0,0 131.9,-474.5 448.6,-459.7 316.7,15.3 765.5,723.3 448.8,459.2"
         style="fill:#f69d5e;fill-opacity:1;fill-rule:nonzero;stroke:none"
         id="path332" /><path
         d="m 12139.5,21082.4 c -1404.8,324.6 -2184.13,-218.5 -2184.13,-218.5 0,0 -206.28,165.3 -47.02,377.9 -389.47,-53.3 -495.87,-454.5 -619.94,-761.6 -389.39,124.1 -702.15,-41.2 -702.15,-41.2 0,0 312.76,-241.8 -23.55,-519.4 -944.41,-779.3 -495.87,-1688 -495.87,-1688 0,0 347.8,-865.4 513.43,-690.7 619.71,655.3 1106.8,1000.7 1213.2,1496.4 0,0 658.73,-853.4 1546.33,-1053.6 731.7,-165.4 1637.7,-307.1 2021.4,-230.4 -330.7,330.7 -425,956.5 -425,956.5 0,0 1051.4,-1926.5 1558.1,-495.9 537.5,1516.8 -1350.1,2636.2 -2354.8,2868.5"
         style="fill:#3b2314;fill-opacity:1;fill-rule:nonzero;stroke:none"
         id="path334" /><path
         d="m 10799.9,16265.2 c 0,0 0,-810.5 -388.2,-1006.8 -309.4,-156.5 -1176.82,-140.6 -1414.28,80.9 -237.65,221.9 -338.28,1002.7 -338.28,1002.7"
         style="fill:none;stroke:#221f1f;stroke-width:99.6748;stroke-linecap:butt;stroke-linejoin:miter;stroke-miterlimit:10;stroke-dasharray:none;stroke-opacity:1"
         id="path336" /><path
         d="m 8587.78,16282.6 c 0,0 1449.32,296.3 2283.52,-30"
         style="fill:none;stroke:#221f1f;stroke-width:215.435;stroke-linecap:round;stroke-linejoin:miter;stroke-miterlimit:10;stroke-dasharray:none;stroke-opacity:1"
         id="path338" /><path
         d="m 8723.79,16181.4 -763.35,522.1"
         style="fill:none;stroke:#221f1f;stroke-width:194.802;stroke-linecap:butt;stroke-linejoin:miter;stroke-miterlimit:10;stroke-dasharray:none;stroke-opacity:1"
         id="path340" /><path
         d="m 11789.8,16265.2 c 0,0 0,-813.6 389.6,-1010.6 310.5,-157.1 1181.3,-141.2 1419.8,81.2 238.7,222.7 339.7,1006.4 339.7,1006.4"
         style="fill:none;stroke:#221f1f;stroke-width:99.6748;stroke-linecap:butt;stroke-linejoin:miter;stroke-miterlimit:10;stroke-dasharray:none;stroke-opacity:1"
         id="path342" /><path
         d="m 11718.2,16252.4 c 899.9,299.7 2292.3,30.2 2292.3,30.2"
         style="fill:none;stroke:#221f1f;stroke-width:216.257;stroke-linecap:round;stroke-linejoin:miter;stroke-miterlimit:10;stroke-dasharray:none;stroke-opacity:1"
         id="path344" /><path
         d="m 13873.6,16181.4 764.2,522.1"
         style="fill:none;stroke:#221f1f;stroke-width:194.802;stroke-linecap:butt;stroke-linejoin:miter;stroke-miterlimit:10;stroke-dasharray:none;stroke-opacity:1"
         id="path346" /><path
         d="m 10871.3,16114.9 c 0,0 260.9,132.9 440.8,132.9 217.5,0 406.1,-109.4 406.1,-109.4"
         style="fill:none;stroke:#221f1f;stroke-width:180;stroke-linecap:square;stroke-linejoin:miter;stroke-miterlimit:10;stroke-dasharray:none;stroke-opacity:1"
         id="path348" /></g></g></svg>
