<svg id="Layer_1" data-name="Layer 1" xmlns="http://www.w3.org/2000/svg" viewBox="0 0 275.94 109.54"><defs><style>.cls-1{fill:#0038b0;}</style></defs><title>logo-color-medpro</title><path id="medpro-copy-9" class="cls-1" d="M31.9,26.11a17.09,17.09,0,0,1,13.23-5.8,18,18,0,0,1,12.52,4.52,16.52,16.52,0,0,1,4.46,6.64,29.91,29.91,0,0,1,1.54,9.87v24a.35.35,0,0,1-.35.35H58.75a4.9,4.9,0,0,1-4.9-4.9V42.13q0-6.5-1.55-9.42-1.92-3.53-6.66-3.53a9.45,9.45,0,0,0-4.46,1.08,7.15,7.15,0,0,0-3,2.87Q36.54,36,36.54,43V65.39a.35.35,0,0,1-.35.35H31.76A4.78,4.78,0,0,1,27,61V42.13q0-6.5-1.55-9.42-1.92-3.53-6.71-3.53a9.54,9.54,0,0,0-4.5,1.08,7.15,7.15,0,0,0-3,2.87Q9.57,36.05,9.57,43V65.39a.35.35,0,0,1-.35.35H4.78A4.78,4.78,0,0,1,0,61V25.1a4.78,4.78,0,0,1,4.78-4.78H9.22a.35.35,0,0,1,.35.35v4.08a13.65,13.65,0,0,1,10.18-4.43Q26.74,20.31,31.9,26.11Zm66.7,13a17.13,17.13,0,0,0-3.06-6.52,9.94,9.94,0,0,0-8.25-3.82,10.75,10.75,0,0,0-7.45,2.7,13.68,13.68,0,0,0-4.05,7.64ZM76,46.71a15,15,0,0,0,2.48,5.84A11.11,11.11,0,0,0,88,57a13.32,13.32,0,0,0,6.2-1.46,11.08,11.08,0,0,0,2.65-2.22h0A5.91,5.91,0,0,1,103.64,52L107.75,54a.35.35,0,0,1,.17.46l0,0Q99.85,66.19,88,65.72c-6.54-.26-11.89-2.37-16-7.11A23.09,23.09,0,0,1,66.23,43a22.44,22.44,0,0,1,7.29-17.27,19.69,19.69,0,0,1,13.84-5.41,19.38,19.38,0,0,1,15.1,6.78A21.7,21.7,0,0,1,107,35.79,29.83,29.83,0,0,1,108.17,44v1q0,.66,0,1.69Zm57.44-17.9a11.71,11.71,0,0,0-9,4q-3.41,3.73-3.41,10,0,7.14,4.3,11a12.22,12.22,0,0,0,8.32,3.12,11.51,11.51,0,0,0,9-3.92q3.41-3.73,3.41-10.25,0-7-4.26-10.87A11.89,11.89,0,0,0,133.48,28.81Zm21.78,36.93h-4.49a5,5,0,0,1-5-5q-6.5,5.05-13.1,5a20.14,20.14,0,0,1-10.24-2.88,21.84,21.84,0,0,1-8.23-8.31,23,23,0,0,1-3-11.61,22,22,0,0,1,7.44-17,20.58,20.58,0,0,1,14.08-5.66q6.55,0,13.1,5V9.54A9.54,9.54,0,0,1,155.26,0Zm25.27-36.93a11.69,11.69,0,0,0-9,3.92q-3.41,3.73-3.41,10.21,0,7.09,4.26,10.92a11.77,11.77,0,0,0,8.23,3,12.49,12.49,0,0,0,6.45-1.8q6.08-3.73,6.08-12.19,0-7.14-4.3-11A12.11,12.11,0,0,0,180.53,28.81Zm-12.42-8.86V25q6.5-5.06,13.1-5.06a20.11,20.11,0,0,1,10.24,2.88,21.86,21.86,0,0,1,8.23,8.32,23.11,23.11,0,0,1,3,11.63,22,22,0,0,1-7.44,17.07,20.56,20.56,0,0,1-14.08,5.67q-6.55,0-13.1-5.06V77.25a9.54,9.54,0,0,1-9.54,9.54V29.48A9.54,9.54,0,0,1,168.11,19.94Zm42.66,1.57,4.39-.09a.35.35,0,0,1,.35.34h0v3.29A18.47,18.47,0,0,1,220,22.13a12.29,12.29,0,0,1,4.6-.71c.46,0,2.77.13,3.49.19v6.67a1.92,1.92,0,0,1-1.92,1.92h-.06l-1.32,0q-5.72,0-7.71,3.83-1.58,3-1.58,9.89v21.5a.35.35,0,0,1-.35.35h-4.39A4.74,4.74,0,0,1,206,61V26.35A4.84,4.84,0,0,1,210.77,21.52Zm42.69,7.29a11.93,11.93,0,0,0-9.12,4.06Q241,36.56,241,42.79q0,7,4.3,11a12.16,12.16,0,0,0,8.37,3.12A12,12,0,0,0,263,52.81q3.37-3.73,3.37-10.11,0-6.9-4.25-10.73A12.32,12.32,0,0,0,253.47,28.81Zm.38-8.86a21,21,0,0,1,16.31,7.35,22.19,22.19,0,0,1,5.78,15.32,22,22,0,0,1-7.47,17.15,21.73,21.73,0,0,1-14.95,5.61,21.43,21.43,0,0,1-16.64-7.3,22.1,22.1,0,0,1-5.83-15.41,22.28,22.28,0,0,1,22.8-22.71Z"/><path id="Combined-Shape" class="cls-1" d="M155.79,76.91h0a.9.9,0,0,1-.9.9H1.09c-.6,0-1.09-.33-1.09-.75v-.3C0,76.35.49,76,1.09,76h153.8A.9.9,0,0,1,155.79,76.91Zm16.3-.9H275.2a.74.74,0,0,1,.73.75v.3a.74.74,0,0,1-.73.75H172.09a.9.9,0,0,1-.9-.9h0A.9.9,0,0,1,172.09,76Z"/><path class="cls-1" d="M9.71,101.14a.6.6,0,0,1,.17.45v3.54a1.44,1.44,0,0,1-.14.74,1,1,0,0,1-.57.36,6.91,6.91,0,0,1-1.44.38,10.3,10.3,0,0,1-1.65.14,5.72,5.72,0,0,1-2.8-.65,4.31,4.31,0,0,1-1.8-1.88,6.43,6.43,0,0,1-.62-2.94,6.36,6.36,0,0,1,.62-2.91A4.39,4.39,0,0,1,3.27,96.5,5.39,5.39,0,0,1,6,95.84a6,6,0,0,1,2,.31,4.24,4.24,0,0,1,1.54.9.75.75,0,0,1,.3.6.71.71,0,0,1-.15.46.45.45,0,0,1-.36.19.62.62,0,0,1-.24,0l-.27-.15a5.59,5.59,0,0,0-1.35-.76A4.09,4.09,0,0,0,6,97.13a3.27,3.27,0,0,0-2.63,1.07,5.75,5.75,0,0,0,0,6.23,3.43,3.43,0,0,0,2.73,1.07,7.52,7.52,0,0,0,2.33-.36v-3h-2A.68.68,0,0,1,6,102a.62.62,0,0,1,0-.86.68.68,0,0,1,.48-.16H9.25A.65.65,0,0,1,9.71,101.14Z"/><path class="cls-1" d="M12.14,97.37a.83.83,0,0,1-.26-.64.81.81,0,0,1,.26-.63,1.14,1.14,0,0,1,1.39,0,.8.8,0,0,1,.26.63.84.84,0,0,1-.26.64,1.12,1.12,0,0,1-1.39,0Zm.14,9.16a.67.67,0,0,1-.22-.54V99.84a.69.69,0,0,1,.22-.55.82.82,0,0,1,.55-.19.79.79,0,0,1,.54.19.7.7,0,0,1,.21.55V106a.68.68,0,0,1-.21.54.81.81,0,0,1-.54.18A.84.84,0,0,1,12.29,106.52Z"/><path class="cls-1" d="M21,99.81a3.13,3.13,0,0,1,.72,2.25V106a.71.71,0,0,1-.2.54.75.75,0,0,1-.54.19.68.68,0,0,1-.73-.73v-.56a2.12,2.12,0,0,1-.86,1,2.53,2.53,0,0,1-1.32.34,2.94,2.94,0,0,1-1.32-.3,2.39,2.39,0,0,1-.95-.81,2,2,0,0,1-.35-1.16,1.77,1.77,0,0,1,.41-1.28,2.57,2.57,0,0,1,1.38-.67,13.33,13.33,0,0,1,2.65-.2h.35v-.44a1.78,1.78,0,0,0-.35-1.23,1.46,1.46,0,0,0-1.12-.38,3.58,3.58,0,0,0-1,.14,7.51,7.51,0,0,0-1,.39,1.5,1.5,0,0,1-.57.23.47.47,0,0,1-.37-.17.62.62,0,0,1-.14-.42.65.65,0,0,1,.13-.4,1.37,1.37,0,0,1,.42-.34,5.19,5.19,0,0,1,1.24-.46,5.79,5.79,0,0,1,1.38-.18A2.92,2.92,0,0,1,21,99.81ZM19.72,105a2.06,2.06,0,0,0,.53-1.46v-.39H20a11.84,11.84,0,0,0-1.82.11,1.77,1.77,0,0,0-.91.35.93.93,0,0,0-.27.72,1.14,1.14,0,0,0,.39.89,1.43,1.43,0,0,0,1,.35A1.78,1.78,0,0,0,19.72,105Zm-.57-6.79a.49.49,0,0,1-.3.1.42.42,0,0,1-.31-.13.48.48,0,0,1-.13-.36.89.89,0,0,1,.15-.52,2.59,2.59,0,0,1,.42-.46,2.27,2.27,0,0,0,.27-.29.42.42,0,0,0,.09-.26.3.3,0,0,0-.15-.26.77.77,0,0,0-.42-.1,2.32,2.32,0,0,0-.73.14.33.33,0,0,1-.34-.06.4.4,0,0,1-.13-.3.38.38,0,0,1,.08-.23.51.51,0,0,1,.21-.17,2.53,2.53,0,0,1,1-.2,2,2,0,0,1,1.18.3.9.9,0,0,1,.42.76.89.89,0,0,1-.16.55,3.24,3.24,0,0,1-.48.48,3,3,0,0,0-.39.34.66.66,0,0,0-.16.36A.4.4,0,0,1,19.15,98.25Z"/><path class="cls-1" d="M23.9,97.37a.83.83,0,0,1-.26-.64.81.81,0,0,1,.26-.63,1.14,1.14,0,0,1,1.39,0,.8.8,0,0,1,.26.63.84.84,0,0,1-.26.64,1.12,1.12,0,0,1-1.39,0Zm.14,9.16a.67.67,0,0,1-.22-.54V99.84a.69.69,0,0,1,.22-.55.81.81,0,0,1,.55-.19.79.79,0,0,1,.54.19.7.7,0,0,1,.21.55V106a.68.68,0,0,1-.21.54.81.81,0,0,1-.54.18A.84.84,0,0,1,24,106.52Z"/><path class="cls-1" d="M37.15,99.55a3.22,3.22,0,0,1,1.17,1.36,4.69,4.69,0,0,1,.42,2,4.6,4.6,0,0,1-.41,2,3.07,3.07,0,0,1-1.16,1.33,3.17,3.17,0,0,1-1.72.47,3,3,0,0,1-1.47-.36,2.34,2.34,0,0,1-1-1v3.37a.66.66,0,0,1-.2.51.76.76,0,0,1-.54.19.82.82,0,0,1-.57-.2.68.68,0,0,1-.22-.53V99.84a.71.71,0,0,1,.21-.54.78.78,0,0,1,.56-.2.75.75,0,0,1,.54.2.71.71,0,0,1,.21.54v.62a2.38,2.38,0,0,1,1-1,2.89,2.89,0,0,1,1.47-.36A3.06,3.06,0,0,1,37.15,99.55Zm-.52,5.3a3,3,0,0,0,.54-1.91,3.07,3.07,0,0,0-.55-2,2.06,2.06,0,0,0-3.07,0,3.77,3.77,0,0,0,0,3.87,1.84,1.84,0,0,0,1.54.68A1.88,1.88,0,0,0,36.63,104.85Z"/><path class="cls-1" d="M47.06,102V106a.69.69,0,0,1-.21.53.79.79,0,0,1-.56.2.76.76,0,0,1-.55-.2.7.7,0,0,1-.2-.53v-3.92a2,2,0,0,0-.37-1.33A1.46,1.46,0,0,0,44,100.3a2,2,0,0,0-1.48.58,2.12,2.12,0,0,0-.56,1.54V106a.7.7,0,0,1-.2.53.77.77,0,0,1-.55.2.8.8,0,0,1-.56-.2.69.69,0,0,1-.21-.53V96.61a.68.68,0,0,1,.22-.53.82.82,0,0,1,.57-.2.76.76,0,0,1,.54.19.66.66,0,0,1,.2.51v3.78a2.53,2.53,0,0,1,1-1,3.08,3.08,0,0,1,1.45-.33Q47.06,99.06,47.06,102Z"/><path class="cls-1" d="M54.43,99.81a3.13,3.13,0,0,1,.72,2.25V106a.71.71,0,0,1-.2.54.75.75,0,0,1-.54.19.68.68,0,0,1-.73-.73v-.56a2.12,2.12,0,0,1-.86,1,2.53,2.53,0,0,1-1.32.34,2.94,2.94,0,0,1-1.32-.3,2.39,2.39,0,0,1-.95-.81,2,2,0,0,1-.35-1.16,1.77,1.77,0,0,1,.41-1.28,2.57,2.57,0,0,1,1.38-.67,13.33,13.33,0,0,1,2.65-.2h.35v-.44a1.78,1.78,0,0,0-.35-1.23,1.46,1.46,0,0,0-1.12-.38,3.58,3.58,0,0,0-1,.14,7.5,7.5,0,0,0-1,.39,1.5,1.5,0,0,1-.57.23.47.47,0,0,1-.37-.17.62.62,0,0,1-.14-.42.65.65,0,0,1,.13-.4,1.37,1.37,0,0,1,.42-.34,5.19,5.19,0,0,1,1.24-.46,5.79,5.79,0,0,1,1.38-.18A2.92,2.92,0,0,1,54.43,99.81ZM53.14,105a2.06,2.06,0,0,0,.53-1.46v-.39H53.4a11.83,11.83,0,0,0-1.82.11,1.77,1.77,0,0,0-.91.35.93.93,0,0,0-.27.72,1.14,1.14,0,0,0,.39.89,1.43,1.43,0,0,0,1,.35A1.78,1.78,0,0,0,53.14,105Zm-.86-6.68a.42.42,0,0,1-.3-.12.38.38,0,0,1-.13-.29.4.4,0,0,1,.1-.27l1.64-2.13a.86.86,0,0,1,.7-.41.66.66,0,0,1,.48.2.64.64,0,0,1,.2.47.85.85,0,0,1-.36.65l-2,1.8A.43.43,0,0,1,52.28,98.35Z"/><path class="cls-1" d="M62.91,99.55a3.22,3.22,0,0,1,1.17,1.36,4.69,4.69,0,0,1,.42,2,4.6,4.6,0,0,1-.41,2,3.07,3.07,0,0,1-1.16,1.33,3.17,3.17,0,0,1-1.72.47,3,3,0,0,1-1.47-.36,2.34,2.34,0,0,1-1-1v3.37a.66.66,0,0,1-.2.51.76.76,0,0,1-.54.19.82.82,0,0,1-.57-.2.68.68,0,0,1-.22-.53V99.84a.71.71,0,0,1,.21-.54.78.78,0,0,1,.56-.2.75.75,0,0,1,.54.2.71.71,0,0,1,.21.54v.62a2.37,2.37,0,0,1,1-1,2.89,2.89,0,0,1,1.47-.36A3.06,3.06,0,0,1,62.91,99.55Zm-.52,5.3a3,3,0,0,0,.54-1.91,3.07,3.07,0,0,0-.55-2,2.06,2.06,0,0,0-3.07,0,3.77,3.77,0,0,0,0,3.87,1.84,1.84,0,0,0,1.54.68A1.88,1.88,0,0,0,62.39,104.85Z"/><path class="cls-1" d="M78.34,97.37a.58.58,0,0,1,0,.82.68.68,0,0,1-.47.15H77V106a.72.72,0,0,1-.2.54.88.88,0,0,1-1.11,0,.72.72,0,0,1-.2-.54v-.61a2.35,2.35,0,0,1-1,1,3,3,0,0,1-1.47.36,3.07,3.07,0,0,1-1.7-.48,3.22,3.22,0,0,1-1.17-1.36,4.64,4.64,0,0,1-.42-2,4.58,4.58,0,0,1,.42-2,3.16,3.16,0,0,1,1.16-1.33A3.13,3.13,0,0,1,73,99.06a2.91,2.91,0,0,1,1.46.36,2.38,2.38,0,0,1,1,1V98.34H73.09a.7.7,0,0,1-.48-.15.58.58,0,0,1,0-.82.69.69,0,0,1,.48-.15h2.38v-.63a.66.66,0,0,1,.2-.51.78.78,0,0,1,.55-.19.79.79,0,0,1,.56.2.69.69,0,0,1,.21.53v.61h.88A.67.67,0,0,1,78.34,97.37Zm-3.4,7.48a3.74,3.74,0,0,0,0-3.87,1.85,1.85,0,0,0-1.54-.68,1.89,1.89,0,0,0-1.55.67,2.94,2.94,0,0,0-.55,1.91,3,3,0,0,0,.56,1.94,2.05,2.05,0,0,0,3.07,0Z"/><path class="cls-1" d="M84.41,99.81a3.13,3.13,0,0,1,.72,2.25V106a.71.71,0,0,1-.2.54.75.75,0,0,1-.54.19.68.68,0,0,1-.73-.73v-.56a2.12,2.12,0,0,1-.86,1,2.53,2.53,0,0,1-1.32.34,2.93,2.93,0,0,1-1.32-.3,2.39,2.39,0,0,1-.95-.81,2,2,0,0,1-.35-1.16,1.77,1.77,0,0,1,.41-1.28,2.57,2.57,0,0,1,1.38-.67,13.34,13.34,0,0,1,2.65-.2h.35v-.44a1.78,1.78,0,0,0-.35-1.23,1.46,1.46,0,0,0-1.12-.38,3.58,3.58,0,0,0-1,.14,7.51,7.51,0,0,0-1,.39,1.5,1.5,0,0,1-.57.23.47.47,0,0,1-.37-.17.62.62,0,0,1-.14-.42.65.65,0,0,1,.13-.4,1.37,1.37,0,0,1,.42-.34,5.19,5.19,0,0,1,1.24-.46,5.79,5.79,0,0,1,1.38-.18A2.92,2.92,0,0,1,84.41,99.81Zm-3.66-2.35a2.37,2.37,0,0,1-.95-1.15.8.8,0,0,1,0-.24.47.47,0,0,1,.15-.36.49.49,0,0,1,.35-.14.52.52,0,0,1,.48.32,1.65,1.65,0,0,0,3,0,.53.53,0,0,1,.5-.32.48.48,0,0,1,.48.5.81.81,0,0,1,0,.24,2.37,2.37,0,0,1-.95,1.15,2.77,2.77,0,0,1-3,0ZM83.12,105a2.06,2.06,0,0,0,.53-1.46v-.39h-.27a11.84,11.84,0,0,0-1.82.11,1.77,1.77,0,0,0-.91.35.93.93,0,0,0-.27.72,1.14,1.14,0,0,0,.39.89,1.43,1.43,0,0,0,1,.35A1.78,1.78,0,0,0,83.12,105Z"/><path class="cls-1" d="M93.85,102V106a.7.7,0,0,1-.2.54.8.8,0,0,1-.57.19.76.76,0,0,1-.55-.2.7.7,0,0,1-.2-.53v-3.86a2.11,2.11,0,0,0-.37-1.38,1.43,1.43,0,0,0-1.16-.44,2,2,0,0,0-1.48.58,2.12,2.12,0,0,0-.56,1.54V106a.7.7,0,0,1-.2.53.77.77,0,0,1-.55.2.8.8,0,0,1-.56-.2.69.69,0,0,1-.21-.53V99.82a.68.68,0,0,1,.22-.52.78.78,0,0,1,.55-.2.72.72,0,0,1,.53.2.7.7,0,0,1,.2.52v.62a2.46,2.46,0,0,1,1-1,3.06,3.06,0,0,1,1.47-.35Q93.85,99.06,93.85,102Z"/><path class="cls-1" d="M102.6,99.3a.73.73,0,0,1,.2.54V106a3.38,3.38,0,0,1-.9,2.56,3.7,3.7,0,0,1-2.66.86,5.44,5.44,0,0,1-2.72-.62.9.9,0,0,1-.56-.76.63.63,0,0,1,.14-.42.45.45,0,0,1,.36-.17,1.56,1.56,0,0,1,.62.23,7.72,7.72,0,0,0,1,.4,3.9,3.9,0,0,0,1.12.14,1.85,1.85,0,0,0,2.09-2.1V105a2.31,2.31,0,0,1-1,1,3,3,0,0,1-1.51.37A3.3,3.3,0,0,1,97.1,106a3.08,3.08,0,0,1-1.17-1.29,4.24,4.24,0,0,1-.42-1.92,4.17,4.17,0,0,1,.42-1.92,3.18,3.18,0,0,1,1.17-1.29,3.22,3.22,0,0,1,1.72-.46,3,3,0,0,1,1.49.36,2.37,2.37,0,0,1,1,1v-.64a.71.71,0,0,1,.2-.53.76.76,0,0,1,.55-.2A.75.75,0,0,1,102.6,99.3Zm-1.87,5.24a3.18,3.18,0,0,0,0-3.59,1.91,1.91,0,0,0-1.55-.66,2,2,0,0,0-1.57.65,3.13,3.13,0,0,0,0,3.6,2,2,0,0,0,1.56.65A1.93,1.93,0,0,0,100.74,104.54Z"/><path class="cls-1" d="M115.41,106a.71.71,0,0,1-.2.5.62.62,0,0,1-.47.21.74.74,0,0,1-.52-.21l-3.77-3.33V106a.71.71,0,0,1-.21.55.78.78,0,0,1-.54.19.81.81,0,0,1-.55-.19.69.69,0,0,1-.22-.55V96.63a.69.69,0,0,1,.22-.55.81.81,0,0,1,.55-.19.78.78,0,0,1,.54.19.7.7,0,0,1,.21.55v5.93l3.45-3.22a.76.76,0,0,1,.5-.23.72.72,0,0,1,.71.71.72.72,0,0,1-.26.53l-2.69,2.47,3,2.62A.7.7,0,0,1,115.41,106Z"/><path class="cls-1" d="M122.12,99.22a.71.71,0,0,1,.37-.11.73.73,0,0,1,.51.2.6.6,0,0,1,.22.47.69.69,0,0,1-.06.29L119,109a.71.71,0,0,1-.26.33.67.67,0,0,1-.37.11.75.75,0,0,1-.49-.18.56.56,0,0,1-.22-.45.82.82,0,0,1,.08-.3l1-2.22-2.92-6.21a.61.61,0,0,1-.06-.27.6.6,0,0,1,.24-.48.84.84,0,0,1,.55-.2.67.67,0,0,1,.65.42l2.34,5.21,2.33-5.19A.66.66,0,0,1,122.12,99.22Zm-2.61-.86a.42.42,0,0,1-.3-.12.38.38,0,0,1-.13-.29.4.4,0,0,1,.1-.27l1.64-2.13a.86.86,0,0,1,.7-.41.66.66,0,0,1,.48.2.64.64,0,0,1,.2.47.85.85,0,0,1-.36.65l-2,1.8A.42.42,0,0,1,119.52,98.35Z"/><path class="cls-1" d="M135,106a.71.71,0,0,1-.2.5.62.62,0,0,1-.47.21.74.74,0,0,1-.52-.21L130,103.17V106a.71.71,0,0,1-.21.55.78.78,0,0,1-.54.19.81.81,0,0,1-.55-.19.69.69,0,0,1-.22-.55V96.63a.69.69,0,0,1,.22-.55.81.81,0,0,1,.55-.19.78.78,0,0,1,.54.19.7.7,0,0,1,.21.55v5.93l3.45-3.22a.76.76,0,0,1,.5-.23.72.72,0,0,1,.71.71.72.72,0,0,1-.26.53l-2.69,2.47,3,2.62A.7.7,0,0,1,135,106Z"/><path class="cls-1" d="M142.93,102V106a.69.69,0,0,1-.21.53.79.79,0,0,1-.56.2.76.76,0,0,1-.55-.2.7.7,0,0,1-.2-.53v-3.92a2,2,0,0,0-.37-1.33,1.46,1.46,0,0,0-1.16-.43,2,2,0,0,0-1.48.58,2.12,2.12,0,0,0-.56,1.54V106a.7.7,0,0,1-.2.53.77.77,0,0,1-.55.2.8.8,0,0,1-.56-.2.69.69,0,0,1-.21-.53V96.61a.68.68,0,0,1,.22-.53.82.82,0,0,1,.57-.2.76.76,0,0,1,.54.19.66.66,0,0,1,.2.51v3.78a2.53,2.53,0,0,1,1-1,3.08,3.08,0,0,1,1.45-.33Q142.93,99.06,142.93,102Z"/><path class="cls-1" d="M150.31,99.81a3.13,3.13,0,0,1,.72,2.25V106a.71.71,0,0,1-.2.54.75.75,0,0,1-.54.19.68.68,0,0,1-.73-.73v-.56a2.12,2.12,0,0,1-.86,1,2.53,2.53,0,0,1-1.32.34,2.93,2.93,0,0,1-1.32-.3,2.39,2.39,0,0,1-.95-.81,2,2,0,0,1-.35-1.16,1.77,1.77,0,0,1,.41-1.28,2.57,2.57,0,0,1,1.38-.67,13.34,13.34,0,0,1,2.65-.2h.35v-.44a1.78,1.78,0,0,0-.35-1.23,1.46,1.46,0,0,0-1.12-.38,3.58,3.58,0,0,0-1,.14,7.51,7.51,0,0,0-1,.39,1.5,1.5,0,0,1-.57.23.47.47,0,0,1-.37-.17.62.62,0,0,1-.14-.42.65.65,0,0,1,.13-.4,1.37,1.37,0,0,1,.42-.34,5.19,5.19,0,0,1,1.24-.46,5.79,5.79,0,0,1,1.38-.18A2.92,2.92,0,0,1,150.31,99.81ZM149,105a2.06,2.06,0,0,0,.53-1.46v-.39h-.27a11.84,11.84,0,0,0-1.82.11,1.77,1.77,0,0,0-.91.35.93.93,0,0,0-.27.72,1.14,1.14,0,0,0,.39.89,1.43,1.43,0,0,0,1,.35A1.78,1.78,0,0,0,149,105Zm-.86-6.68a.42.42,0,0,1-.3-.12.38.38,0,0,1-.13-.29.4.4,0,0,1,.1-.27l1.64-2.13a.86.86,0,0,1,.7-.41.66.66,0,0,1,.48.2.64.64,0,0,1,.2.47.85.85,0,0,1-.36.65l-2,1.8A.43.43,0,0,1,148.15,98.35Z"/><path class="cls-1" d="M164.07,102V106a.69.69,0,0,1-.21.54.81.81,0,0,1-.56.19.79.79,0,0,1-.55-.19.69.69,0,0,1-.21-.54v-3.92a2.15,2.15,0,0,0-.33-1.34,1.25,1.25,0,0,0-1-.42,1.65,1.65,0,0,0-1.32.57,2.32,2.32,0,0,0-.48,1.55V106a.69.69,0,0,1-.21.54.81.81,0,0,1-.56.19.78.78,0,0,1-.54-.19.69.69,0,0,1-.21-.54v-3.92a2.16,2.16,0,0,0-.33-1.34,1.26,1.26,0,0,0-1-.42,1.67,1.67,0,0,0-1.32.57,2.3,2.3,0,0,0-.49,1.55V106a.69.69,0,0,1-.21.54.78.78,0,0,1-.54.19.81.81,0,0,1-.55-.19.67.67,0,0,1-.22-.54V99.82a.67.67,0,0,1,.23-.53.8.8,0,0,1,.54-.2.74.74,0,0,1,.52.19.68.68,0,0,1,.2.52v.56a2.32,2.32,0,0,1,.92-1,2.72,2.72,0,0,1,1.36-.33,2.59,2.59,0,0,1,1.4.35,2.08,2.08,0,0,1,.82,1.07,2.53,2.53,0,0,1,1-1,2.85,2.85,0,0,1,1.48-.39Q164.07,99.06,164.07,102Z"/><path class="cls-1" d="M175.83,99.53a3.17,3.17,0,0,1,1.16,1.33,4.6,4.6,0,0,1,.42,2,4.67,4.67,0,0,1-.42,2,3.23,3.23,0,0,1-1.17,1.36,3.08,3.08,0,0,1-1.7.48,3,3,0,0,1-1.47-.36,2.34,2.34,0,0,1-1-1V106a.72.72,0,0,1-.2.54.74.74,0,0,1-.55.2.77.77,0,0,1-.56-.2.71.71,0,0,1-.21-.54V96.61a.68.68,0,0,1,.22-.53.82.82,0,0,1,.57-.2.76.76,0,0,1,.54.19.66.66,0,0,1,.2.51v3.87a2.37,2.37,0,0,1,1-1,2.89,2.89,0,0,1,1.47-.36A3.14,3.14,0,0,1,175.83,99.53Zm-.54,5.3a3.07,3.07,0,0,0,.55-2,3,3,0,0,0-.54-1.91,1.87,1.87,0,0,0-1.54-.67,1.84,1.84,0,0,0-1.54.68,3.77,3.77,0,0,0,0,3.87,2.06,2.06,0,0,0,3.07,0Z"/><path class="cls-1" d="M185.23,104.94a.65.65,0,0,1,.14.42.87.87,0,0,1-.54.74,4.77,4.77,0,0,1-1.16.47,4.68,4.68,0,0,1-1.2.17,3.72,3.72,0,0,1-2.77-1,3.78,3.78,0,0,1-1-2.79,4.37,4.37,0,0,1,.45-2,3.28,3.28,0,0,1,1.26-1.36,3.5,3.5,0,0,1,1.84-.49,3,3,0,0,1,2.35,1,3.68,3.68,0,0,1,.86,2.57q0,.61-.54.61H180.2q.15,2.35,2.25,2.35a2.78,2.78,0,0,0,1-.15,7.08,7.08,0,0,0,.86-.39l.25-.13a.83.83,0,0,1,.34-.1A.43.43,0,0,1,185.23,104.94Zm-4.63-6.6a.53.53,0,0,1-.37-.15.49.49,0,0,1-.16-.36.57.57,0,0,1,.12-.33l1.36-2a1.29,1.29,0,0,1,.3-.29.64.64,0,0,1,.36-.1.7.7,0,0,1,.36.09,1.1,1.1,0,0,1,.3.3l1.36,2a.57.57,0,0,1,.12.33.48.48,0,0,1-.16.36.52.52,0,0,1-.37.15.54.54,0,0,1-.47-.27l-1.15-1.82-1.15,1.82A.52.52,0,0,1,180.59,98.34Zm.24,2.41a2.62,2.62,0,0,0-.64,1.57h3.9a2.53,2.53,0,0,0-.52-1.58,1.67,1.67,0,0,0-1.34-.55A1.85,1.85,0,0,0,180.84,100.74Zm1,8.56a.81.81,0,0,1-.24-.61.79.79,0,0,1,.24-.61.89.89,0,0,1,.63-.23.88.88,0,0,1,.63.23.79.79,0,0,1,.25.6.82.82,0,0,1-.24.61,1,1,0,0,1-1.27,0Z"/><path class="cls-1" d="M193.73,102V106a.7.7,0,0,1-.2.54.8.8,0,0,1-.57.19.76.76,0,0,1-.55-.2.7.7,0,0,1-.2-.53v-3.86a2.11,2.11,0,0,0-.37-1.38,1.43,1.43,0,0,0-1.16-.44,2,2,0,0,0-1.48.58,2.12,2.12,0,0,0-.56,1.54V106a.7.7,0,0,1-.2.53.77.77,0,0,1-.55.2.8.8,0,0,1-.56-.2.69.69,0,0,1-.21-.53V99.82a.68.68,0,0,1,.22-.52.78.78,0,0,1,.55-.2.72.72,0,0,1,.53.2.7.7,0,0,1,.2.52v.62a2.46,2.46,0,0,1,1-1,3.06,3.06,0,0,1,1.47-.35Q193.73,99.06,193.73,102Z"/><path class="cls-1" d="M202.45,102V106a.69.69,0,0,1-.21.53.79.79,0,0,1-.56.2.76.76,0,0,1-.55-.2.7.7,0,0,1-.2-.53v-3.92a2,2,0,0,0-.37-1.33,1.46,1.46,0,0,0-1.16-.43,2,2,0,0,0-1.48.58,2.12,2.12,0,0,0-.56,1.54V106a.7.7,0,0,1-.2.53.77.77,0,0,1-.55.2.8.8,0,0,1-.56-.2.69.69,0,0,1-.21-.53V96.61a.68.68,0,0,1,.22-.53.82.82,0,0,1,.57-.2.76.76,0,0,1,.54.19.66.66,0,0,1,.2.51v3.78a2.53,2.53,0,0,1,1-1,3.08,3.08,0,0,1,1.45-.33Q202.45,99.06,202.45,102Z"/><path class="cls-1" d="M212.62,105.72a.54.54,0,0,1,.14.4.53.53,0,0,1-.23.46,1.1,1.1,0,0,1-.69.13l-.41,0a2.65,2.65,0,0,1-1.83-.75A2.78,2.78,0,0,1,209,104v-3.56h-.91q-.66,0-.67-.59a.55.55,0,0,1,.18-.43.7.7,0,0,1,.49-.16H209V97.69a.72.72,0,0,1,.2-.54.76.76,0,0,1,.55-.2.79.79,0,0,1,.56.2.71.71,0,0,1,.21.54v1.56H212a.7.7,0,0,1,.49.16.63.63,0,0,1,0,.87.73.73,0,0,1-.49.15h-1.5v3.66a1.55,1.55,0,0,0,.29,1,1.27,1.27,0,0,0,.9.38l.42,0A.75.75,0,0,1,212.62,105.72Z"/><path class="cls-1" d="M218.47,99.71a.69.69,0,0,1-.17.5.9.9,0,0,1-.58.2l-.45,0a2,2,0,0,0-1.41.67,2.16,2.16,0,0,0-.46,1.39V106a.68.68,0,0,1-.21.54.81.81,0,0,1-.54.18.84.84,0,0,1-.55-.18.67.67,0,0,1-.22-.54V99.82a.67.67,0,0,1,.22-.54.82.82,0,0,1,.55-.19.72.72,0,0,1,.51.19.68.68,0,0,1,.2.52v.73a2.22,2.22,0,0,1,.88-1,2.94,2.94,0,0,1,1.3-.41h.21C218.23,99.06,218.47,99.27,218.47,99.71Z"/><path class="cls-1" d="M227.17,99.27a2.06,2.06,0,0,1-1.28.7v6a.67.67,0,0,1-.21.52.79.79,0,0,1-.56.2.71.71,0,0,1-.52-.19.67.67,0,0,1-.2-.51v-.58a2.36,2.36,0,0,1-1,1,2.82,2.82,0,0,1-1.37.33q-2.7,0-2.69-3V99.84a.73.73,0,0,1,.2-.54.79.79,0,0,1,.57-.2.76.76,0,0,1,.55.2.73.73,0,0,1,.2.54v3.92a2,2,0,0,0,.36,1.32,1.39,1.39,0,0,0,1.12.42,1.86,1.86,0,0,0,1.43-.58,2.15,2.15,0,0,0,.54-1.53V99.84q0-.66.74-.74a1.12,1.12,0,0,0,.85-.29,1.49,1.49,0,0,0,.32-.94.68.68,0,0,1,.74-.71.61.61,0,0,1,.48.18.83.83,0,0,1,.15.55A2.08,2.08,0,0,1,227.17,99.27Zm-5.15,10a.82.82,0,0,1-.24-.61.79.79,0,0,1,.24-.61.89.89,0,0,1,.63-.23.88.88,0,0,1,.63.23.79.79,0,0,1,.25.6.82.82,0,0,1-.24.61,1,1,0,0,1-1.27,0Z"/><path class="cls-1" d="M229.56,106.27a3.2,3.2,0,0,1-1.26-1.33,4.69,4.69,0,0,1,0-4,3.33,3.33,0,0,1,1.29-1.36,3.71,3.71,0,0,1,1.91-.49,4.19,4.19,0,0,1,1.16.17,4,4,0,0,1,1,.45.94.94,0,0,1,.49.77.68.68,0,0,1-.14.43.42.42,0,0,1-.35.17.6.6,0,0,1-.27-.07l-.35-.2a4.13,4.13,0,0,0-.7-.37,2.1,2.1,0,0,0-.78-.13,1.94,1.94,0,0,0-1.6.7,3,3,0,0,0-.57,1.94,2.92,2.92,0,0,0,.56,1.91,2,2,0,0,0,1.59.67,2.2,2.2,0,0,0,.8-.14,4.42,4.42,0,0,0,.71-.36l.33-.18a.74.74,0,0,1,.3-.08.43.43,0,0,1,.35.17.68.68,0,0,1,.14.43.7.7,0,0,1-.11.39,1.36,1.36,0,0,1-.39.35,3.61,3.61,0,0,1-1.06.47,4.6,4.6,0,0,1-1.23.17A3.69,3.69,0,0,1,229.56,106.27Z"/><path class="cls-1" d="M243.68,105.72a.54.54,0,0,1,.14.4.53.53,0,0,1-.23.46,1.1,1.1,0,0,1-.69.13l-.41,0a2.65,2.65,0,0,1-1.83-.75,2.78,2.78,0,0,1-.61-1.95v-3.56h-.91q-.66,0-.67-.59a.55.55,0,0,1,.18-.43.7.7,0,0,1,.49-.16h.91V97.69a.72.72,0,0,1,.2-.54.76.76,0,0,1,.55-.2.79.79,0,0,1,.56.2.71.71,0,0,1,.21.54v1.56h1.5a.7.7,0,0,1,.49.16.63.63,0,0,1,0,.87.73.73,0,0,1-.49.15h-1.5v3.66a1.55,1.55,0,0,0,.29,1,1.27,1.27,0,0,0,.9.38l.42,0A.75.75,0,0,1,243.68,105.72Z"/><path class="cls-1" d="M251.2,99.29a.73.73,0,0,1,.2.54V106a.67.67,0,0,1-.21.52.79.79,0,0,1-.56.2.71.71,0,0,1-.52-.19.67.67,0,0,1-.2-.51v-.58a2.36,2.36,0,0,1-1,1,2.82,2.82,0,0,1-1.37.33q-2.7,0-2.69-3V99.84a.73.73,0,0,1,.2-.54.79.79,0,0,1,.57-.2.76.76,0,0,1,.55.2.73.73,0,0,1,.2.54v3.92a2,2,0,0,0,.36,1.32,1.39,1.39,0,0,0,1.12.42,1.86,1.86,0,0,0,1.43-.58,2.15,2.15,0,0,0,.54-1.53V99.84a.71.71,0,0,1,.21-.54.87.87,0,0,1,1.11,0Z"/><path class="cls-1" d="M259.05,99.22a.71.71,0,0,1,.37-.11.73.73,0,0,1,.51.2.6.6,0,0,1,.22.47.69.69,0,0,1-.06.29L255.88,109a.71.71,0,0,1-.26.33.67.67,0,0,1-.37.11.75.75,0,0,1-.49-.18.56.56,0,0,1-.22-.45.82.82,0,0,1,.08-.3l1-2.22-2.92-6.21a.61.61,0,0,1-.06-.27.6.6,0,0,1,.24-.48.84.84,0,0,1,.55-.2.67.67,0,0,1,.65.42l2.34,5.21,2.33-5.19A.66.66,0,0,1,259.05,99.22Z"/><path class="cls-1" d="M267.43,104.94a.65.65,0,0,1,.14.42.87.87,0,0,1-.54.74,4.77,4.77,0,0,1-1.16.47,4.68,4.68,0,0,1-1.2.17,3.72,3.72,0,0,1-2.77-1,3.78,3.78,0,0,1-1-2.79,4.38,4.38,0,0,1,.45-2,3.28,3.28,0,0,1,1.26-1.36,3.5,3.5,0,0,1,1.84-.49,3,3,0,0,1,2.35,1,3.68,3.68,0,0,1,.86,2.57q0,.61-.54.61h-4.68q.15,2.35,2.25,2.35a2.78,2.78,0,0,0,1-.15,7.09,7.09,0,0,0,.86-.39l.25-.13a.83.83,0,0,1,.34-.1A.43.43,0,0,1,267.43,104.94Zm-4.62-6.6a.5.5,0,0,1-.36-.15.48.48,0,0,1-.15-.35.53.53,0,0,1,.24-.44l1.26-1.15a1,1,0,0,1,.62-.24,1.07,1.07,0,0,1,.62.24l1.26,1.15a.57.57,0,0,1,.26.45.47.47,0,0,1-.16.35.5.5,0,0,1-.7,0L264.42,97l-1.26,1.24A.47.47,0,0,1,262.81,98.34Zm.23,2.41a2.62,2.62,0,0,0-.64,1.57h3.9a2.53,2.53,0,0,0-.52-1.58,1.67,1.67,0,0,0-1.34-.55A1.85,1.85,0,0,0,263,100.74Zm3.15-4a.38.38,0,0,1-.26-.11.34.34,0,0,1-.11-.26.4.4,0,0,1,.11-.27l1-1.35a.73.73,0,0,1,.56-.32.64.64,0,0,1,.63.64.71.71,0,0,1-.39.62l-1.35,1A.46.46,0,0,1,266.19,96.76Z"/><path class="cls-1" d="M275.94,102V106a.7.7,0,0,1-.2.54.81.81,0,0,1-.57.19.76.76,0,0,1-.55-.2.7.7,0,0,1-.2-.53v-3.86a2.11,2.11,0,0,0-.37-1.38,1.43,1.43,0,0,0-1.16-.44,2,2,0,0,0-1.48.58,2.12,2.12,0,0,0-.56,1.54V106a.7.7,0,0,1-.2.53.77.77,0,0,1-.55.2.8.8,0,0,1-.56-.2.69.69,0,0,1-.21-.53V99.82a.68.68,0,0,1,.22-.52.78.78,0,0,1,.55-.2.72.72,0,0,1,.53.2.7.7,0,0,1,.2.52v.62a2.46,2.46,0,0,1,1-1,3.06,3.06,0,0,1,1.47-.35Q275.94,99.06,275.94,102Z"/></svg>