<?xml version="1.0" encoding="utf-8"?>
<!-- Generator: Adobe Illustrator 21.0.0, SVG Export Plug-In . SVG Version: 6.00 Build 0)  -->
<svg version="1.1" id="Layer_1" xmlns="http://www.w3.org/2000/svg" xmlns:xlink="http://www.w3.org/1999/xlink" x="0px" y="0px"
	 viewBox="0 0 275.9 109.5" style="enable-background:new 0 0 275.9 109.5;" xml:space="preserve">
<style type="text/css">
	.st0{fill:#FFFFFF;}
</style>
<title>logo-white-medpro</title>
<g>
	<path id="medpro-copy-9_3_" class="st0" d="M33.6,26.5c3.4-3.8,7.8-5.7,13-5.7c4.9,0,9,1.5,12.3,4.4c2.1,1.9,3.5,4.1,4.4,6.5
		c0.9,2.5,1.5,5.7,1.5,9.7v23.6c0,0.2-0.2,0.3-0.3,0.3H60c-2.7,0-4.8-2.2-4.8-4.8V42.2c0-4.3-0.5-7.4-1.5-9.3
		c-1.3-2.3-3.4-3.5-6.6-3.5c-1.6,0-3,0.4-4.4,1.1c-1.4,0.7-2.4,1.7-3,2.8c-1,1.9-1.6,5.1-1.6,9.7v22c0,0.2-0.2,0.3-0.3,0.3h-4.4
		c-2.6,0-4.7-2.1-4.7-4.7V42.2c0-4.3-0.5-7.4-1.5-9.3c-1.3-2.3-3.5-3.5-6.6-3.5c-1.6,0-3.1,0.4-4.4,1.1c-1.4,0.7-2.4,1.7-3,2.8
		c-1,1.9-1.6,5.2-1.6,9.7v22c0,0.2-0.2,0.3-0.3,0.3H7c-2.6,0-4.7-2.1-4.7-4.7V25.5c0-2.6,2.1-4.7,4.7-4.7l0,0l4.4,0
		c0.2,0,0.3,0.2,0.3,0.3v4c2.8-2.9,6.1-4.4,10-4.4C26.3,20.8,30.2,22.7,33.6,26.5z M99.2,39.3c-0.7-2.7-1.7-4.8-3-6.4
		c-2-2.5-4.7-3.8-8.1-3.8c-2.9,0-5.3,0.9-7.3,2.7c-2,1.8-3.3,4.3-4,7.5H99.2z M77.1,46.7c0.5,2.2,1.3,4.1,2.4,5.7
		c2.2,2.9,5.3,4.4,9.3,4.4c2.2,0,4.2-0.5,6.1-1.4c0.7-0.4,1.6-1.1,2.6-2.2l0,0c1.7-1.8,4.4-2.3,6.7-1.3l4,1.9
		c0.2,0.1,0.2,0.3,0.2,0.5c0,0,0,0,0,0c-5.3,7.7-11.8,11.4-19.6,11.1c-6.4-0.3-11.7-2.3-15.8-7c-3.7-4.3-5.6-9.4-5.6-15.4
		c0-6.9,2.4-12.6,7.2-17c3.8-3.5,8.4-5.3,13.6-5.3c5.9,0,10.9,2.2,14.9,6.7c2.1,2.3,3.6,5.2,4.5,8.6c0.7,2.6,1.1,5.3,1.1,8.1v1
		c0,0.4,0,1,0,1.7H77.1z M133.6,29.1c-3.5,0-6.5,1.3-8.9,4c-2.2,2.4-3.4,5.7-3.4,9.8c0,4.7,1.4,8.3,4.2,10.8c2.3,2,5.1,3.1,8.2,3.1
		c3.6,0,6.5-1.3,8.8-3.9c2.2-2.4,3.4-5.8,3.4-10.1c0-4.6-1.4-8.2-4.2-10.7C139.6,30.1,136.8,29.1,133.6,29.1z M155,65.4h-4.4
		c-2.7,0-5-2.2-5-5c-4.3,3.3-8.6,5-12.9,5c-3.5,0-6.8-0.9-10.1-2.8c-3.5-2-6.2-4.7-8.1-8.2c-2-3.5-3-7.3-3-11.4
		c0-6.7,2.4-12.3,7.3-16.8c4.1-3.7,8.8-5.6,13.8-5.6c4.3,0,8.6,1.7,12.9,5V10.2c0-5.2,4.2-9.4,9.4-9.4V65.4z M179.8,29.1
		c-3.5,0-6.5,1.3-8.8,3.9c-2.2,2.4-3.4,5.8-3.4,10c0,4.6,1.4,8.2,4.2,10.7c2.2,2,4.9,3,8.1,3c2.2,0,4.4-0.6,6.3-1.8
		c4-2.4,6-6.4,6-12c0-4.7-1.4-8.3-4.2-10.8C185.7,30.1,183,29.1,179.8,29.1z M167.6,20.4v5c4.3-3.3,8.6-5,12.9-5
		c3.5,0,6.8,0.9,10.1,2.8c3.5,2,6.2,4.7,8.1,8.2c2,3.5,3,7.3,3,11.4c0,6.8-2.4,12.4-7.3,16.8c-4.1,3.7-8.8,5.6-13.8,5.6
		c-4.3,0-8.6-1.7-12.9-5v16.5c0,5.2-4.2,9.4-9.4,9.4V29.8C158.2,24.6,162.4,20.4,167.6,20.4z M209.6,21.9l4.3-0.1
		c0.2,0,0.3,0.1,0.3,0.3v0v3.2c1.8-1.5,3.3-2.5,4.4-2.9c1.1-0.5,2.6-0.7,4.5-0.7c0.5,0,2.7,0.1,3.4,0.2v6.6c0,1-0.8,1.9-1.9,1.9
		c0,0,0,0-0.1,0l0,0c-0.5,0-1,0-1.3,0c-3.7,0-6.3,1.3-7.6,3.8c-1,2-1.6,5.2-1.6,9.7v21.2c0,0.2-0.2,0.3-0.3,0.3h-4.3
		c-2.6,0-4.7-2.1-4.7-4.7V26.7C204.9,24.1,207,22,209.6,21.9z M251.6,29.1c-3.5,0-6.5,1.3-9,4c-2.2,2.4-3.3,5.7-3.3,9.8
		c0,4.6,1.4,8.2,4.2,10.8c2.3,2,5,3.1,8.2,3.1c3.7,0,6.8-1.3,9.2-4c2.2-2.4,3.3-5.8,3.3-9.9c0-4.5-1.4-8-4.2-10.6
		C257.8,30.1,255,29.1,251.6,29.1z M252,20.4c6.4,0,11.7,2.4,16,7.2c3.8,4.2,5.7,9.3,5.7,15.1c0,6.9-2.5,12.5-7.4,16.9
		c-4.1,3.7-9,5.5-14.7,5.5c-6.6,0-12.1-2.4-16.4-7.2c-3.8-4.2-5.7-9.3-5.7-15.2c0-5.7,1.8-10.6,5.3-14.7
		C239.2,22.9,245,20.4,252,20.4z"/>
	<path id="Combined-Shape_5_" class="st0" d="M155.5,76.4L155.5,76.4c0,0.5-0.4,0.9-0.9,0.9H3.3c-0.6,0-1.1-0.3-1.1-0.7v-0.3
		c0-0.4,0.5-0.7,1.1-0.7h151.3C155.1,75.6,155.5,75.9,155.5,76.4z M171.5,75.6H273c0.4,0,0.7,0.3,0.7,0.7v0.3c0,0.4-0.3,0.7-0.7,0.7
		H171.5c-0.5,0-0.9-0.4-0.9-0.9l0,0C170.7,75.9,171,75.6,171.5,75.6z"/>
	<g>
		<path class="st0" d="M12.3,100.3c0.1,0.1,0.1,0.2,0.1,0.4v3.9c0,0.2,0,0.4-0.1,0.6c-0.1,0.1-0.2,0.2-0.4,0.3
			c-0.4,0.2-0.9,0.3-1.5,0.4c-0.6,0.1-1.2,0.2-1.8,0.2c-1.1,0-2-0.2-2.8-0.7c-0.8-0.4-1.4-1.1-1.8-1.9c-0.4-0.8-0.6-1.8-0.6-3
			c0-1.1,0.2-2.1,0.6-3c0.4-0.8,1-1.5,1.8-1.9c0.8-0.4,1.7-0.7,2.7-0.7c0.7,0,1.4,0.1,2,0.3c0.6,0.2,1.1,0.5,1.6,1
			c0.2,0.2,0.3,0.4,0.3,0.5c0,0.1,0,0.3-0.1,0.4c-0.1,0.1-0.2,0.2-0.3,0.2c-0.1,0-0.3-0.1-0.4-0.2c-0.5-0.4-1-0.7-1.5-0.9
			c-0.4-0.2-0.9-0.2-1.5-0.2c-1.2,0-2.2,0.4-2.8,1.2c-0.7,0.8-1,1.9-1,3.3c0,1.5,0.3,2.6,1,3.4c0.7,0.8,1.6,1.2,2.9,1.2
			c1,0,1.8-0.1,2.6-0.4v-3.3H9c-0.2,0-0.3,0-0.4-0.1c-0.1-0.1-0.2-0.2-0.2-0.4c0-0.2,0.1-0.3,0.2-0.4c0.1-0.1,0.2-0.1,0.4-0.1h2.9
			C12,100.2,12.2,100.2,12.3,100.3z"/>
		<path class="st0" d="M15.9,96.3c-0.2-0.1-0.2-0.3-0.2-0.6c0-0.2,0.1-0.4,0.2-0.6c0.2-0.1,0.4-0.2,0.6-0.2c0.2,0,0.4,0.1,0.6,0.2
			c0.2,0.1,0.2,0.3,0.2,0.6c0,0.2-0.1,0.4-0.2,0.6c-0.2,0.1-0.4,0.2-0.6,0.2C16.3,96.5,16.1,96.5,15.9,96.3z M16.1,105.8
			c-0.1-0.1-0.2-0.3-0.2-0.5v-6.5c0-0.2,0.1-0.3,0.2-0.5c0.1-0.1,0.3-0.2,0.5-0.2c0.2,0,0.3,0.1,0.4,0.2c0.1,0.1,0.2,0.3,0.2,0.5
			v6.5c0,0.2-0.1,0.4-0.2,0.5c-0.1,0.1-0.3,0.2-0.4,0.2C16.3,106,16.2,105.9,16.1,105.8z"/>
		<path class="st0" d="M26.5,101.1v4.2c0,0.2-0.1,0.3-0.2,0.4c-0.1,0.1-0.3,0.2-0.4,0.2c-0.2,0-0.3-0.1-0.4-0.2
			c-0.1-0.1-0.2-0.3-0.2-0.4v-0.7c-0.2,0.4-0.5,0.8-0.9,1c-0.4,0.2-0.9,0.4-1.4,0.4c-0.5,0-0.9-0.1-1.3-0.3c-0.4-0.2-0.7-0.5-1-0.8
			c-0.2-0.3-0.4-0.7-0.4-1.2c0-0.6,0.1-1,0.4-1.3c0.3-0.3,0.8-0.5,1.4-0.7c0.7-0.1,1.6-0.2,2.8-0.2h0.3V101c0-0.6-0.1-1.1-0.4-1.4
			c-0.3-0.3-0.7-0.4-1.2-0.4c-0.7,0-1.4,0.2-2.1,0.6c-0.3,0.2-0.5,0.3-0.6,0.3c-0.1,0-0.2,0-0.3-0.1c-0.1-0.1-0.1-0.2-0.1-0.4
			c0-0.1,0-0.3,0.1-0.4c0.1-0.1,0.2-0.2,0.4-0.3c0.4-0.2,0.8-0.4,1.2-0.5c0.5-0.1,0.9-0.2,1.4-0.2C25.5,98.1,26.5,99.1,26.5,101.1z
			 M24.6,104.4c0.4-0.4,0.6-1,0.6-1.6v-0.4H25c-0.9,0-1.6,0-2.1,0.1c-0.5,0.1-0.8,0.2-1,0.4c-0.2,0.2-0.3,0.4-0.3,0.8
			c0,0.4,0.1,0.7,0.4,1c0.3,0.3,0.7,0.4,1.1,0.4C23.7,105,24.2,104.8,24.6,104.4z M23.9,97.3c-0.1,0.1-0.2,0.1-0.3,0.1
			c-0.1,0-0.2,0-0.3-0.1c-0.1-0.1-0.1-0.2-0.1-0.4c0-0.2,0.1-0.4,0.2-0.5c0.1-0.1,0.3-0.3,0.4-0.5c0.1-0.1,0.2-0.3,0.3-0.3
			c0.1-0.1,0.1-0.2,0.1-0.2c0-0.1-0.1-0.2-0.2-0.3c-0.1-0.1-0.3-0.1-0.5-0.1c-0.2,0-0.5,0-0.8,0.1c0,0-0.1,0-0.1,0
			c-0.1,0-0.2,0-0.2-0.1c-0.1-0.1-0.1-0.1-0.1-0.2c0-0.2,0.1-0.3,0.3-0.4c0.3-0.1,0.7-0.2,1-0.2c0.5,0,0.9,0.1,1.2,0.3
			c0.3,0.2,0.4,0.5,0.4,0.8c0,0.2,0,0.4-0.2,0.5c-0.1,0.1-0.3,0.3-0.5,0.5c-0.2,0.1-0.3,0.2-0.4,0.4c-0.1,0.1-0.1,0.2-0.2,0.4
			C24.1,97.1,24,97.2,23.9,97.3z"/>
		<path class="st0" d="M29.9,96.3c-0.2-0.1-0.2-0.3-0.2-0.6c0-0.2,0.1-0.4,0.2-0.6c0.2-0.1,0.4-0.2,0.6-0.2c0.2,0,0.4,0.1,0.6,0.2
			c0.2,0.1,0.2,0.3,0.2,0.6c0,0.2-0.1,0.4-0.2,0.6c-0.2,0.1-0.4,0.2-0.6,0.2C30.2,96.5,30,96.5,29.9,96.3z M30,105.8
			c-0.1-0.1-0.2-0.3-0.2-0.5v-6.5c0-0.2,0.1-0.3,0.2-0.5c0.1-0.1,0.3-0.2,0.5-0.2c0.2,0,0.3,0.1,0.4,0.2c0.1,0.1,0.2,0.3,0.2,0.5
			v6.5c0,0.2-0.1,0.4-0.2,0.5c-0.1,0.1-0.3,0.2-0.4,0.2C30.3,106,30.1,105.9,30,105.8z"/>
		<path class="st0" d="M45.1,98.6c0.5,0.3,0.9,0.8,1.2,1.4c0.3,0.6,0.4,1.3,0.4,2.1c0,0.8-0.1,1.5-0.4,2.1c-0.3,0.6-0.7,1-1.2,1.4
			c-0.5,0.3-1.1,0.5-1.8,0.5c-0.6,0-1.1-0.1-1.5-0.4c-0.4-0.3-0.8-0.6-1-1.1v3.6c0,0.2-0.1,0.3-0.2,0.4c-0.1,0.1-0.3,0.2-0.5,0.2
			c-0.2,0-0.4-0.1-0.5-0.2c-0.1-0.1-0.2-0.3-0.2-0.4v-9.3c0-0.2,0.1-0.3,0.2-0.4c0.1-0.1,0.3-0.2,0.5-0.2c0.2,0,0.3,0.1,0.5,0.2
			c0.1,0.1,0.2,0.3,0.2,0.4v0.8c0.2-0.5,0.6-0.8,1-1.1c0.4-0.3,1-0.4,1.5-0.4C44.1,98.1,44.6,98.3,45.1,98.6z M44.9,104.2
			c0.4-0.5,0.6-1.2,0.6-2.1c0-0.9-0.2-1.6-0.6-2.1c-0.4-0.5-1-0.8-1.7-0.8c-0.7,0-1.3,0.2-1.7,0.7c-0.4,0.5-0.6,1.2-0.6,2.1
			c0,0.9,0.2,1.6,0.6,2.1c0.4,0.5,1,0.7,1.7,0.7C43.9,104.9,44.4,104.7,44.9,104.2z"/>
		<path class="st0" d="M55.5,98.9c0.5,0.5,0.7,1.2,0.7,2.2v4.2c0,0.2-0.1,0.3-0.2,0.5c-0.1,0.1-0.3,0.2-0.5,0.2
			c-0.2,0-0.4-0.1-0.5-0.2c-0.1-0.1-0.2-0.3-0.2-0.5v-4.2c0-0.7-0.1-1.2-0.4-1.5c-0.3-0.3-0.7-0.5-1.3-0.5c-0.7,0-1.2,0.2-1.7,0.6
			c-0.4,0.4-0.6,1-0.6,1.7v3.8c0,0.2-0.1,0.3-0.2,0.5c-0.1,0.1-0.3,0.2-0.5,0.2c-0.2,0-0.4-0.1-0.5-0.2c-0.1-0.1-0.2-0.3-0.2-0.5
			v-9.9c0-0.2,0.1-0.3,0.2-0.4c0.1-0.1,0.3-0.2,0.5-0.2c0.2,0,0.3,0.1,0.5,0.2c0.1,0.1,0.2,0.3,0.2,0.4v4.1c0.2-0.5,0.6-0.8,1-1
			c0.4-0.2,0.9-0.4,1.5-0.4C54.4,98.1,55.1,98.4,55.5,98.9z"/>
		<path class="st0" d="M65.5,101.1v4.2c0,0.2-0.1,0.3-0.2,0.4c-0.1,0.1-0.3,0.2-0.4,0.2c-0.2,0-0.3-0.1-0.4-0.2
			c-0.1-0.1-0.2-0.3-0.2-0.4v-0.7c-0.2,0.4-0.5,0.8-0.9,1c-0.4,0.2-0.9,0.4-1.4,0.4c-0.5,0-0.9-0.1-1.3-0.3c-0.4-0.2-0.7-0.5-1-0.8
			c-0.2-0.3-0.4-0.7-0.4-1.2c0-0.6,0.1-1,0.4-1.3c0.3-0.3,0.8-0.5,1.4-0.7c0.7-0.1,1.6-0.2,2.8-0.2h0.3V101c0-0.6-0.1-1.1-0.4-1.4
			c-0.3-0.3-0.7-0.4-1.2-0.4c-0.7,0-1.4,0.2-2.1,0.6c-0.3,0.2-0.5,0.3-0.6,0.3c-0.1,0-0.2,0-0.3-0.1c-0.1-0.1-0.1-0.2-0.1-0.4
			c0-0.1,0-0.3,0.1-0.4c0.1-0.1,0.2-0.2,0.4-0.3c0.4-0.2,0.8-0.4,1.2-0.5c0.5-0.1,0.9-0.2,1.4-0.2C64.5,98.1,65.5,99.1,65.5,101.1z
			 M63.7,104.4c0.4-0.4,0.6-1,0.6-1.6v-0.4H64c-0.9,0-1.6,0-2.1,0.1c-0.5,0.1-0.8,0.2-1,0.4c-0.2,0.2-0.3,0.4-0.3,0.8
			c0,0.4,0.1,0.7,0.4,1c0.3,0.3,0.7,0.4,1.1,0.4C62.8,105,63.3,104.8,63.7,104.4z M62.7,97.4c-0.1,0-0.2,0-0.3-0.1
			c-0.1-0.1-0.1-0.1-0.1-0.2c0-0.1,0-0.2,0.1-0.2l1.8-2.4c0.2-0.2,0.4-0.4,0.6-0.4c0.2,0,0.3,0.1,0.4,0.2c0.1,0.1,0.2,0.2,0.2,0.4
			c0,0.2-0.1,0.4-0.3,0.6l-2.2,2C62.9,97.4,62.8,97.4,62.7,97.4z"/>
		<path class="st0" d="M74.4,98.6c0.5,0.3,0.9,0.8,1.2,1.4c0.3,0.6,0.4,1.3,0.4,2.1c0,0.8-0.1,1.5-0.4,2.1c-0.3,0.6-0.7,1-1.2,1.4
			c-0.5,0.3-1.1,0.5-1.8,0.5c-0.6,0-1.1-0.1-1.5-0.4c-0.4-0.3-0.8-0.6-1-1.1v3.6c0,0.2-0.1,0.3-0.2,0.4c-0.1,0.1-0.3,0.2-0.5,0.2
			c-0.2,0-0.4-0.1-0.5-0.2c-0.1-0.1-0.2-0.3-0.2-0.4v-9.3c0-0.2,0.1-0.3,0.2-0.4c0.1-0.1,0.3-0.2,0.5-0.2c0.2,0,0.3,0.1,0.5,0.2
			c0.1,0.1,0.2,0.3,0.2,0.4v0.8c0.2-0.5,0.6-0.8,1-1.1s1-0.4,1.5-0.4C73.3,98.1,73.9,98.3,74.4,98.6z M74.1,104.2
			c0.4-0.5,0.6-1.2,0.6-2.1c0-0.9-0.2-1.6-0.6-2.1c-0.4-0.5-1-0.8-1.7-0.8c-0.7,0-1.3,0.2-1.7,0.7c-0.4,0.5-0.6,1.2-0.6,2.1
			c0,0.9,0.2,1.6,0.6,2.1c0.4,0.5,1,0.7,1.7,0.7C73.2,104.9,73.7,104.7,74.1,104.2z"/>
		<path class="st0" d="M88.1,105.5c0,0.2-0.1,0.3-0.2,0.4c-0.1,0.1-0.3,0.1-0.6,0.1l-0.4,0c-0.8-0.1-1.4-0.3-1.8-0.7
			c-0.4-0.4-0.6-1.1-0.6-2v-3.9h-1c-0.2,0-0.3,0-0.4-0.1c-0.1-0.1-0.1-0.2-0.1-0.3c0-0.2,0-0.3,0.1-0.4c0.1-0.1,0.2-0.1,0.4-0.1h1
			v-1.8c0-0.2,0.1-0.3,0.2-0.5c0.1-0.1,0.3-0.2,0.5-0.2c0.2,0,0.3,0.1,0.4,0.2c0.1,0.1,0.2,0.3,0.2,0.5v1.8h1.7c0.2,0,0.3,0,0.4,0.1
			c0.1,0.1,0.1,0.2,0.1,0.4c0,0.1-0.1,0.3-0.1,0.3c-0.1,0.1-0.2,0.1-0.4,0.1h-1.7v3.9c0,0.6,0.1,1,0.3,1.2c0.2,0.3,0.6,0.4,1,0.4
			l0.4,0C87.9,105,88.1,105.2,88.1,105.5z"/>
		<path class="st0" d="M90.4,96.3c-0.2-0.1-0.2-0.3-0.2-0.6c0-0.2,0.1-0.4,0.2-0.6c0.2-0.1,0.4-0.2,0.6-0.2c0.2,0,0.4,0.1,0.6,0.2
			c0.2,0.1,0.2,0.3,0.2,0.6c0,0.2-0.1,0.4-0.2,0.6s-0.4,0.2-0.6,0.2C90.8,96.5,90.6,96.5,90.4,96.3z M90.6,105.8
			c-0.1-0.1-0.2-0.3-0.2-0.5v-6.5c0-0.2,0.1-0.3,0.2-0.5c0.1-0.1,0.3-0.2,0.5-0.2c0.2,0,0.3,0.1,0.4,0.2c0.1,0.1,0.2,0.3,0.2,0.5
			v6.5c0,0.2-0.1,0.4-0.2,0.5c-0.1,0.1-0.3,0.2-0.4,0.2C90.8,106,90.7,105.9,90.6,105.8z"/>
		<path class="st0" d="M101.2,104.3c0.1,0.1,0.1,0.2,0.1,0.4c0,0.3-0.2,0.5-0.5,0.7c-0.4,0.2-0.8,0.4-1.2,0.5
			c-0.4,0.1-0.8,0.2-1.2,0.2c-1.2,0-2.1-0.3-2.8-1c-0.7-0.7-1-1.6-1-2.9c0-0.8,0.2-1.5,0.5-2.1c0.3-0.6,0.7-1.1,1.3-1.4
			c0.5-0.3,1.2-0.5,1.9-0.5c1,0,1.8,0.3,2.3,1c0.6,0.6,0.9,1.5,0.9,2.6c0,0.2,0,0.4-0.1,0.4c-0.1,0.1-0.2,0.1-0.4,0.1h-5
			c0.1,1.8,0.9,2.7,2.5,2.7c0.4,0,0.7-0.1,1-0.2c0.3-0.1,0.6-0.3,0.9-0.4c0.3-0.2,0.4-0.2,0.5-0.2
			C101,104.1,101.1,104.2,101.2,104.3z M96.6,99.7c-0.4,0.4-0.6,1-0.7,1.7h4.4c0-0.8-0.2-1.3-0.6-1.8c-0.4-0.4-0.9-0.6-1.5-0.6
			C97.5,99.1,97,99.3,96.6,99.7z M96.5,97.4c-0.1,0-0.2,0-0.3-0.1c-0.1-0.1-0.1-0.2-0.1-0.3c0-0.1,0.1-0.3,0.2-0.4l1.3-1.3
			c0.2-0.2,0.4-0.2,0.6-0.2c0.2,0,0.4,0.1,0.6,0.2l1.3,1.3c0.1,0.1,0.2,0.3,0.2,0.4c0,0.1,0,0.2-0.1,0.3c-0.1,0.1-0.2,0.1-0.3,0.1
			c-0.1,0-0.2,0-0.3-0.1l-1.3-1.4l-1.3,1.4C96.8,97.4,96.6,97.4,96.5,97.4z M99.9,95.8c-0.1,0-0.2,0-0.2-0.1
			c-0.1-0.1-0.1-0.1-0.1-0.2c0-0.1,0-0.2,0.1-0.2l1.2-1.5c0.2-0.2,0.3-0.3,0.5-0.3c0.2,0,0.3,0.1,0.4,0.2c0.1,0.1,0.2,0.2,0.2,0.4
			c0,0.2-0.1,0.4-0.3,0.6l-1.5,1.2C100.1,95.8,100,95.8,99.9,95.8z"/>
		<path class="st0" d="M109.9,98.6c0.5,0.3,0.9,0.8,1.2,1.4c0.3,0.6,0.4,1.3,0.4,2.1c0,0.8-0.1,1.5-0.4,2.1c-0.3,0.6-0.7,1-1.2,1.4
			c-0.5,0.3-1.1,0.5-1.8,0.5c-0.6,0-1.1-0.1-1.5-0.4c-0.4-0.3-0.8-0.6-1-1.1v3.6c0,0.2-0.1,0.3-0.2,0.4c-0.1,0.1-0.3,0.2-0.5,0.2
			c-0.2,0-0.4-0.1-0.5-0.2c-0.1-0.1-0.2-0.3-0.2-0.4v-9.3c0-0.2,0.1-0.3,0.2-0.4c0.1-0.1,0.3-0.2,0.5-0.2c0.2,0,0.3,0.1,0.5,0.2
			c0.1,0.1,0.2,0.3,0.2,0.4v0.8c0.2-0.5,0.6-0.8,1-1.1s1-0.4,1.5-0.4C108.8,98.1,109.4,98.3,109.9,98.6z M109.6,104.2
			c0.4-0.5,0.6-1.2,0.6-2.1c0-0.9-0.2-1.6-0.6-2.1c-0.4-0.5-1-0.8-1.7-0.8c-0.7,0-1.3,0.2-1.7,0.7c-0.4,0.5-0.6,1.2-0.6,2.1
			c0,0.9,0.2,1.6,0.6,2.1c0.4,0.5,1,0.7,1.7,0.7C108.6,104.9,109.2,104.7,109.6,104.2z"/>
		<path class="st0" d="M120.7,105.5c-0.5-0.3-1-0.8-1.3-1.4c-0.3-0.6-0.4-1.3-0.4-2s0.2-1.5,0.5-2.1c0.3-0.6,0.7-1.1,1.3-1.4
			c0.5-0.3,1.2-0.5,1.9-0.5c0.4,0,0.8,0.1,1.2,0.2c0.4,0.1,0.7,0.3,1,0.5c0.2,0.1,0.3,0.2,0.4,0.4c0.1,0.1,0.1,0.2,0.1,0.4
			c0,0.1,0,0.3-0.1,0.4c-0.1,0.1-0.2,0.1-0.3,0.1c-0.1,0-0.1,0-0.2-0.1c-0.1,0-0.2-0.1-0.2-0.1c-0.1,0-0.1-0.1-0.1-0.1
			c-0.3-0.2-0.5-0.3-0.8-0.4c-0.2-0.1-0.5-0.2-0.9-0.2c-0.8,0-1.3,0.3-1.8,0.8c-0.4,0.5-0.6,1.2-0.6,2.1c0,0.9,0.2,1.6,0.6,2.1
			c0.4,0.5,1,0.7,1.8,0.7c0.4,0,0.7-0.1,0.9-0.2c0.3-0.1,0.5-0.2,0.8-0.4c0.1-0.1,0.2-0.1,0.3-0.2c0.1-0.1,0.2-0.1,0.3-0.1
			c0.1,0,0.2,0,0.3,0.1c0.1,0.1,0.1,0.2,0.1,0.4c0,0.1,0,0.3-0.1,0.4c-0.1,0.1-0.2,0.2-0.4,0.4c-0.3,0.2-0.6,0.4-1,0.5
			c-0.4,0.1-0.8,0.2-1.2,0.2C121.9,106,121.3,105.8,120.7,105.5z"/>
		<path class="st0" d="M133.9,101.1v4.2c0,0.2-0.1,0.3-0.2,0.4c-0.1,0.1-0.3,0.2-0.4,0.2c-0.2,0-0.3-0.1-0.4-0.2
			c-0.1-0.1-0.2-0.3-0.2-0.4v-0.7c-0.2,0.4-0.5,0.8-0.9,1c-0.4,0.2-0.9,0.4-1.4,0.4c-0.5,0-0.9-0.1-1.3-0.3c-0.4-0.2-0.7-0.5-1-0.8
			c-0.2-0.3-0.4-0.7-0.4-1.2c0-0.6,0.1-1,0.4-1.3c0.3-0.3,0.8-0.5,1.4-0.7c0.7-0.1,1.6-0.2,2.8-0.2h0.3V101c0-0.6-0.1-1.1-0.4-1.4
			c-0.3-0.3-0.7-0.4-1.2-0.4c-0.7,0-1.4,0.2-2.1,0.6c-0.3,0.2-0.5,0.3-0.6,0.3c-0.1,0-0.2,0-0.3-0.1c-0.1-0.1-0.1-0.2-0.1-0.4
			c0-0.1,0-0.3,0.1-0.4c0.1-0.1,0.2-0.2,0.4-0.3c0.4-0.2,0.8-0.4,1.2-0.5c0.5-0.1,0.9-0.2,1.4-0.2C133,98.1,133.9,99.1,133.9,101.1z
			 M129.4,97.4c-0.1,0-0.2,0-0.3-0.1c-0.1-0.1-0.1-0.2-0.1-0.3c0-0.1,0-0.2,0.1-0.3l1.4-2.1c0.2-0.2,0.4-0.4,0.6-0.4
			c0.2,0,0.4,0.1,0.6,0.4l1.4,2.1c0.1,0.1,0.1,0.2,0.1,0.3c0,0.1,0,0.2-0.1,0.3c-0.1,0.1-0.2,0.1-0.3,0.1c-0.2,0-0.3-0.1-0.4-0.2
			l-1.2-2l-1.2,2C129.8,97.3,129.6,97.4,129.4,97.4z M132.1,104.4c0.4-0.4,0.6-1,0.6-1.6v-0.4h-0.3c-0.9,0-1.6,0-2.1,0.1
			c-0.5,0.1-0.8,0.2-1,0.4c-0.2,0.2-0.3,0.4-0.3,0.8c0,0.4,0.1,0.7,0.4,1c0.3,0.3,0.7,0.4,1.1,0.4
			C131.2,105,131.7,104.8,132.1,104.4z M130.5,108.6c-0.1-0.1-0.2-0.3-0.2-0.6c0-0.2,0.1-0.4,0.2-0.5c0.1-0.1,0.3-0.2,0.6-0.2
			c0.2,0,0.4,0.1,0.6,0.2c0.1,0.1,0.2,0.3,0.2,0.5c0,0.2-0.1,0.4-0.2,0.6c-0.1,0.1-0.3,0.2-0.6,0.2S130.6,108.7,130.5,108.6z"/>
		<path class="st0" d="M143.8,101.1v4.2c0,0.2-0.1,0.3-0.2,0.5c-0.1,0.1-0.3,0.2-0.5,0.2c-0.2,0-0.4-0.1-0.5-0.2
			c-0.1-0.1-0.2-0.3-0.2-0.5v-4.1c0-0.7-0.1-1.2-0.4-1.5c-0.3-0.3-0.7-0.5-1.3-0.5c-0.7,0-1.2,0.2-1.7,0.6c-0.4,0.4-0.6,1-0.6,1.7
			v3.8c0,0.2-0.1,0.3-0.2,0.5c-0.1,0.1-0.3,0.2-0.5,0.2c-0.2,0-0.4-0.1-0.5-0.2c-0.1-0.1-0.2-0.3-0.2-0.5v-6.5
			c0-0.2,0.1-0.3,0.2-0.4c0.1-0.1,0.3-0.2,0.5-0.2c0.2,0,0.3,0.1,0.4,0.2c0.1,0.1,0.2,0.3,0.2,0.4v0.8c0.2-0.5,0.6-0.8,1-1.1
			c0.4-0.2,0.9-0.4,1.5-0.4C142.9,98.1,143.8,99.1,143.8,101.1z"/>
		<path class="st0" d="M158.2,98.2c0.2,0,0.3,0.1,0.4,0.2c0.1,0.1,0.2,0.2,0.2,0.4c0,0.1,0,0.2-0.1,0.2l-4.4,9.4
			c-0.1,0.1-0.1,0.2-0.2,0.3c-0.1,0.1-0.2,0.1-0.3,0.1c-0.2,0-0.3-0.1-0.4-0.1c-0.1-0.1-0.2-0.2-0.2-0.4c0-0.1,0-0.2,0.1-0.2
			l1.1-2.3l-3.1-6.6c0-0.1-0.1-0.1-0.1-0.2c0-0.2,0.1-0.3,0.2-0.4c0.1-0.1,0.3-0.2,0.5-0.2c0.1,0,0.2,0,0.3,0.1
			c0.1,0.1,0.2,0.1,0.2,0.3l2.6,5.8l2.6-5.8C157.8,98.3,158,98.2,158.2,98.2z"/>
		<path class="st0" d="M170.4,105.5c0,0.2-0.1,0.3-0.2,0.4c-0.1,0.1-0.3,0.1-0.6,0.1l-0.4,0c-0.8-0.1-1.4-0.3-1.8-0.7
			c-0.4-0.4-0.6-1.1-0.6-2v-3.9h-1c-0.2,0-0.3,0-0.4-0.1c-0.1-0.1-0.1-0.2-0.1-0.3c0-0.2,0-0.3,0.1-0.4c0.1-0.1,0.2-0.1,0.4-0.1h1
			v-1.8c0-0.2,0.1-0.3,0.2-0.5c0.1-0.1,0.3-0.2,0.5-0.2c0.2,0,0.3,0.1,0.4,0.2c0.1,0.1,0.2,0.3,0.2,0.5v1.8h1.7c0.2,0,0.3,0,0.4,0.1
			c0.1,0.1,0.1,0.2,0.1,0.4c0,0.1-0.1,0.3-0.1,0.3c-0.1,0.1-0.2,0.1-0.4,0.1h-1.7v3.9c0,0.6,0.1,1,0.3,1.2c0.2,0.3,0.6,0.4,1,0.4
			l0.4,0C170.2,105,170.4,105.2,170.4,105.5z"/>
		<path class="st0" d="M178.9,104.3c0.1,0.1,0.1,0.2,0.1,0.4c0,0.3-0.2,0.5-0.5,0.7c-0.4,0.2-0.8,0.4-1.2,0.5
			c-0.4,0.1-0.8,0.2-1.2,0.2c-1.2,0-2.1-0.3-2.8-1c-0.7-0.7-1-1.6-1-2.9c0-0.8,0.2-1.5,0.5-2.1c0.3-0.6,0.7-1.1,1.3-1.4
			c0.5-0.3,1.2-0.5,1.9-0.5c1,0,1.8,0.3,2.3,1c0.6,0.6,0.9,1.5,0.9,2.6c0,0.2,0,0.4-0.1,0.4c-0.1,0.1-0.2,0.1-0.4,0.1h-5
			c0.1,1.8,0.9,2.7,2.5,2.7c0.4,0,0.7-0.1,1-0.2c0.3-0.1,0.6-0.3,0.9-0.4c0.3-0.2,0.4-0.2,0.5-0.2
			C178.7,104.1,178.8,104.2,178.9,104.3z M174.3,99.7c-0.4,0.4-0.6,1-0.7,1.7h4.4c0-0.8-0.2-1.3-0.6-1.8c-0.4-0.4-0.9-0.6-1.5-0.6
			C175.2,99.1,174.7,99.3,174.3,99.7z M174.2,97.4c-0.1,0-0.2,0-0.3-0.1c-0.1-0.1-0.1-0.2-0.1-0.3c0-0.1,0.1-0.3,0.2-0.4l1.3-1.3
			c0.2-0.2,0.4-0.2,0.6-0.2c0.2,0,0.4,0.1,0.6,0.2l1.3,1.3c0.1,0.1,0.2,0.3,0.2,0.4c0,0.1,0,0.2-0.1,0.3c-0.1,0.1-0.2,0.1-0.3,0.1
			c-0.1,0-0.2,0-0.3-0.1l-1.3-1.4l-1.3,1.4C174.4,97.4,174.3,97.4,174.2,97.4z M177.6,95.8c-0.1,0-0.2,0-0.2-0.1
			c-0.1-0.1-0.1-0.1-0.1-0.2c0-0.1,0-0.2,0.1-0.2l1.2-1.5c0.2-0.2,0.3-0.3,0.5-0.3c0.2,0,0.3,0.1,0.4,0.2c0.1,0.1,0.2,0.2,0.2,0.4
			c0,0.2-0.1,0.4-0.3,0.6l-1.5,1.2C177.7,95.8,177.7,95.8,177.6,95.8z"/>
		<path class="st0" d="M191.1,105.5c0,0.2-0.1,0.3-0.2,0.4c-0.1,0.1-0.3,0.1-0.6,0.1l-0.4,0c-0.8-0.1-1.4-0.3-1.8-0.7
			c-0.4-0.4-0.6-1.1-0.6-2v-3.9h-1c-0.2,0-0.3,0-0.4-0.1c-0.1-0.1-0.1-0.2-0.1-0.3c0-0.2,0-0.3,0.1-0.4c0.1-0.1,0.2-0.1,0.4-0.1h1
			v-1.8c0-0.2,0.1-0.3,0.2-0.5c0.1-0.1,0.3-0.2,0.5-0.2c0.2,0,0.3,0.1,0.4,0.2c0.1,0.1,0.2,0.3,0.2,0.5v1.8h1.7c0.2,0,0.3,0,0.4,0.1
			c0.1,0.1,0.1,0.2,0.1,0.4c0,0.1-0.1,0.3-0.1,0.3c-0.1,0.1-0.2,0.1-0.4,0.1h-1.7v3.9c0,0.6,0.1,1,0.3,1.2c0.2,0.3,0.6,0.4,1,0.4
			l0.4,0C190.9,105,191.1,105.2,191.1,105.5z"/>
		<path class="st0" d="M199.2,98.9c0.5,0.5,0.7,1.2,0.7,2.2v4.2c0,0.2-0.1,0.3-0.2,0.5c-0.1,0.1-0.3,0.2-0.5,0.2
			c-0.2,0-0.4-0.1-0.5-0.2c-0.1-0.1-0.2-0.3-0.2-0.5v-4.2c0-0.7-0.1-1.2-0.4-1.5c-0.3-0.3-0.7-0.5-1.3-0.5c-0.7,0-1.2,0.2-1.7,0.6
			c-0.4,0.4-0.6,1-0.6,1.7v3.8c0,0.2-0.1,0.3-0.2,0.5c-0.1,0.1-0.3,0.2-0.5,0.2c-0.2,0-0.4-0.1-0.5-0.2c-0.1-0.1-0.2-0.3-0.2-0.5
			v-9.9c0-0.2,0.1-0.3,0.2-0.4c0.1-0.1,0.3-0.2,0.5-0.2c0.2,0,0.3,0.1,0.5,0.2c0.1,0.1,0.2,0.3,0.2,0.4v4.1c0.2-0.5,0.6-0.8,1-1
			c0.4-0.2,0.9-0.4,1.5-0.4C198.1,98.1,198.8,98.4,199.2,98.9z"/>
		<path class="st0" d="M204.5,105.5c-0.5-0.3-1-0.8-1.3-1.4c-0.3-0.6-0.4-1.3-0.4-2.1c0-0.8,0.1-1.5,0.4-2.1
			c0.3-0.6,0.7-1.1,1.3-1.4c0.5-0.3,1.2-0.5,1.9-0.5c0.7,0,1.3,0.2,1.9,0.5c0.5,0.3,1,0.8,1.3,1.4c0.3,0.6,0.4,1.3,0.4,2.1
			c0,0.8-0.1,1.5-0.4,2.1c-0.3,0.6-0.7,1-1.3,1.4c-0.5,0.3-1.2,0.5-1.9,0.5C205.7,106,205.1,105.8,204.5,105.5z M208.1,104.2
			c0.4-0.5,0.6-1.2,0.6-2.1c0-0.9-0.2-1.6-0.6-2.1c-0.4-0.5-1-0.8-1.7-0.8c-0.7,0-1.3,0.3-1.7,0.8c-0.4,0.5-0.6,1.2-0.6,2.1
			c0,0.9,0.2,1.6,0.6,2.1c0.4,0.5,1,0.7,1.7,0.7S207.7,104.7,208.1,104.2z M204.8,97.4c-0.1,0-0.2,0-0.3-0.1
			c-0.1-0.1-0.1-0.2-0.1-0.3c0-0.1,0-0.2,0.1-0.3l1.4-2.1c0.2-0.2,0.4-0.4,0.6-0.4c0.2,0,0.4,0.1,0.6,0.4l1.4,2.1
			c0.1,0.1,0.1,0.2,0.1,0.3c0,0.1,0,0.2-0.1,0.3c-0.1,0.1-0.2,0.1-0.3,0.1c-0.2,0-0.3-0.1-0.4-0.2l-1.2-2l-1.2,2
			C205.1,97.3,204.9,97.4,204.8,97.4z"/>
		<path class="st0" d="M219.5,101.1v4.2c0,0.2-0.1,0.3-0.2,0.5c-0.1,0.1-0.3,0.2-0.5,0.2c-0.2,0-0.4-0.1-0.5-0.2
			c-0.1-0.1-0.2-0.3-0.2-0.5v-4.1c0-0.7-0.1-1.2-0.4-1.5c-0.3-0.3-0.7-0.5-1.3-0.5c-0.7,0-1.2,0.2-1.7,0.6c-0.4,0.4-0.6,1-0.6,1.7
			v3.8c0,0.2-0.1,0.3-0.2,0.5c-0.1,0.1-0.3,0.2-0.5,0.2c-0.2,0-0.4-0.1-0.5-0.2c-0.1-0.1-0.2-0.3-0.2-0.5v-6.5
			c0-0.2,0.1-0.3,0.2-0.4c0.1-0.1,0.3-0.2,0.5-0.2c0.2,0,0.3,0.1,0.4,0.2c0.1,0.1,0.2,0.3,0.2,0.4v0.8c0.2-0.5,0.6-0.8,1-1.1
			c0.4-0.2,0.9-0.4,1.5-0.4C218.6,98.1,219.5,99.1,219.5,101.1z"/>
		<path class="st0" d="M229.4,98.3c0.1,0.1,0.2,0.3,0.2,0.4v6.6c0,1.1-0.3,2-0.9,2.5c-0.6,0.6-1.4,0.9-2.6,0.9c-1.1,0-2-0.2-2.8-0.6
			c-0.4-0.2-0.6-0.4-0.6-0.7c0-0.1,0-0.3,0.1-0.4c0.1-0.1,0.2-0.1,0.3-0.1c0.1,0,0.3,0.1,0.6,0.2c0.4,0.2,0.7,0.3,1.1,0.5
			c0.4,0.1,0.8,0.2,1.3,0.2c0.7,0,1.3-0.2,1.7-0.6c0.4-0.4,0.6-1,0.6-1.7v-1.3c-0.2,0.5-0.6,0.9-1,1.1c-0.4,0.3-1,0.4-1.6,0.4
			c-0.7,0-1.2-0.2-1.8-0.5c-0.5-0.3-0.9-0.7-1.2-1.3c-0.3-0.6-0.4-1.2-0.4-2c0-0.7,0.1-1.4,0.4-2c0.3-0.6,0.7-1,1.2-1.3
			c0.5-0.3,1.1-0.5,1.8-0.5c0.6,0,1.1,0.1,1.6,0.4c0.4,0.3,0.8,0.6,1,1.1v-0.8c0-0.2,0.1-0.3,0.2-0.4c0.1-0.1,0.3-0.2,0.5-0.2
			C229.2,98.2,229.3,98.2,229.4,98.3z M227.7,103.9c0.4-0.5,0.6-1.1,0.6-2c0-0.8-0.2-1.5-0.6-2c-0.4-0.5-1-0.7-1.7-0.7
			c-0.7,0-1.3,0.2-1.7,0.7c-0.4,0.5-0.6,1.1-0.6,2c0,0.8,0.2,1.5,0.6,2c0.4,0.5,1,0.7,1.7,0.7C226.8,104.6,227.3,104.4,227.7,103.9z
			"/>
		<path class="st0" d="M249,101.1v4.2c0,0.2-0.1,0.3-0.2,0.5c-0.1,0.1-0.3,0.2-0.4,0.2c-0.2,0-0.3-0.1-0.5-0.2
			c-0.1-0.1-0.2-0.3-0.2-0.5v-4.2c0-0.7-0.1-1.2-0.4-1.5c-0.2-0.3-0.6-0.5-1.2-0.5c-0.6,0-1.1,0.2-1.5,0.6c-0.4,0.4-0.5,1-0.5,1.7
			v3.8c0,0.2-0.1,0.3-0.2,0.5c-0.1,0.1-0.3,0.2-0.5,0.2c-0.2,0-0.3-0.1-0.4-0.2c-0.1-0.1-0.2-0.3-0.2-0.5v-4.2
			c0-0.7-0.1-1.2-0.4-1.5c-0.2-0.3-0.6-0.5-1.2-0.5c-0.6,0-1.1,0.2-1.5,0.6c-0.4,0.4-0.6,1-0.6,1.7v3.8c0,0.2-0.1,0.3-0.2,0.5
			c-0.1,0.1-0.3,0.2-0.4,0.2c-0.2,0-0.3-0.1-0.5-0.2c-0.1-0.1-0.2-0.3-0.2-0.5v-6.5c0-0.2,0.1-0.3,0.2-0.4c0.1-0.1,0.3-0.2,0.5-0.2
			c0.2,0,0.3,0.1,0.4,0.2c0.1,0.1,0.2,0.3,0.2,0.4v0.7c0.2-0.4,0.5-0.8,0.9-1c0.4-0.2,0.9-0.4,1.4-0.4c1.2,0,1.9,0.5,2.3,1.5
			c0.2-0.5,0.5-0.8,1-1.1c0.4-0.3,0.9-0.4,1.5-0.4C248.2,98.1,249,99.1,249,101.1z"/>
		<path class="st0" d="M252.4,96.3c-0.2-0.1-0.2-0.3-0.2-0.6c0-0.2,0.1-0.4,0.2-0.6c0.2-0.1,0.4-0.2,0.6-0.2c0.2,0,0.4,0.1,0.6,0.2
			c0.2,0.1,0.2,0.3,0.2,0.6c0,0.2-0.1,0.4-0.2,0.6c-0.2,0.1-0.4,0.2-0.6,0.2C252.8,96.5,252.6,96.5,252.4,96.3z M252.6,105.8
			c-0.1-0.1-0.2-0.3-0.2-0.5v-6.5c0-0.2,0.1-0.3,0.2-0.5c0.1-0.1,0.3-0.2,0.5-0.2c0.2,0,0.3,0.1,0.4,0.2c0.1,0.1,0.2,0.3,0.2,0.5
			v6.5c0,0.2-0.1,0.4-0.2,0.5c-0.1,0.1-0.3,0.2-0.4,0.2C252.8,106,252.7,105.9,252.6,105.8z"/>
		<path class="st0" d="M263.6,101.1v4.2c0,0.2-0.1,0.3-0.2,0.5c-0.1,0.1-0.3,0.2-0.5,0.2c-0.2,0-0.4-0.1-0.5-0.2
			c-0.1-0.1-0.2-0.3-0.2-0.5v-4.1c0-0.7-0.1-1.2-0.4-1.5c-0.3-0.3-0.7-0.5-1.3-0.5c-0.7,0-1.2,0.2-1.7,0.6c-0.4,0.4-0.6,1-0.6,1.7
			v3.8c0,0.2-0.1,0.3-0.2,0.5c-0.1,0.1-0.3,0.2-0.5,0.2c-0.2,0-0.4-0.1-0.5-0.2c-0.1-0.1-0.2-0.3-0.2-0.5v-6.5
			c0-0.2,0.1-0.3,0.2-0.4c0.1-0.1,0.3-0.2,0.5-0.2c0.2,0,0.3,0.1,0.4,0.2c0.1,0.1,0.2,0.3,0.2,0.4v0.8c0.2-0.5,0.6-0.8,1-1.1
			c0.4-0.2,0.9-0.4,1.5-0.4C262.7,98.1,263.6,99.1,263.6,101.1z"/>
		<path class="st0" d="M272.8,98.9c0.5,0.5,0.7,1.2,0.7,2.2v4.2c0,0.2-0.1,0.3-0.2,0.5c-0.1,0.1-0.3,0.2-0.5,0.2
			c-0.2,0-0.4-0.1-0.5-0.2c-0.1-0.1-0.2-0.3-0.2-0.5v-4.2c0-0.7-0.1-1.2-0.4-1.5c-0.3-0.3-0.7-0.5-1.3-0.5c-0.7,0-1.2,0.2-1.7,0.6
			c-0.4,0.4-0.6,1-0.6,1.7v3.8c0,0.2-0.1,0.3-0.2,0.5c-0.1,0.1-0.3,0.2-0.5,0.2c-0.2,0-0.4-0.1-0.5-0.2c-0.1-0.1-0.2-0.3-0.2-0.5
			v-9.9c0-0.2,0.1-0.3,0.2-0.4c0.1-0.1,0.3-0.2,0.5-0.2c0.2,0,0.3,0.1,0.5,0.2c0.1,0.1,0.2,0.3,0.2,0.4v4.1c0.2-0.5,0.6-0.8,1-1
			c0.4-0.2,0.9-0.4,1.5-0.4C271.6,98.1,272.3,98.4,272.8,98.9z"/>
	</g>
</g>
</svg>
