<?xml version="1.0"?>
<svg xmlns="http://www.w3.org/2000/svg" viewBox="0 0 64 64" width="512" height="512"><g id="Outline"><g><path d="M14.168,26.445a1,1,0,0,0,.277,1.387,6.391,6.391,0,0,0,7.11,0,1,1,0,1,0-1.11-1.664,4.4,4.4,0,0,1-4.89,0A1,1,0,0,0,14.168,26.445Z"/><path d="M12.445,19.168a1,1,0,0,0,1.11,1.664,1.7,1.7,0,0,1,1.89,0,1,1,0,1,0,1.11-1.664A3.7,3.7,0,0,0,12.445,19.168Z"/><path d="M36,33.912a6.4,6.4,0,0,0,3.555-1.08,1,1,0,1,0-1.11-1.664,4.4,4.4,0,0,1-4.89,0,1,1,0,0,0-1.11,1.664A6.4,6.4,0,0,0,36,33.912Z"/><path d="M33.445,25.832a1,1,0,1,0,1.11-1.664,3.7,3.7,0,0,0-4.11,0,1,1,0,0,0,1.11,1.664A1.7,1.7,0,0,1,33.445,25.832Z"/><path d="M41,26a1,1,0,0,0,.556-1.832,3.7,3.7,0,0,0-4.11,0,1,1,0,0,0,1.11,1.664,1.7,1.7,0,0,1,1.89,0A1,1,0,0,0,41,26Z"/><path d="M43,38a6.892,6.892,0,0,1,2.988.686,1,1,0,0,0,1.333-.474,1,1,0,0,0-.473-1.332A8.89,8.89,0,0,0,43,36H41.974A9.98,9.98,0,0,0,46,28V26.451A8.979,8.979,0,0,0,41,10H34.2a1,1,0,0,0,0,2H41a6.988,6.988,0,0,1,5,11.882V19a1,1,0,0,0-1-1H43a1,1,0,0,0,0,2h1v8a8,8,0,0,1-16,0V18.362A39.858,39.858,0,0,0,39.324,20a1,1,0,0,0,0-2,37.9,37.9,0,0,1-12.008-1.949A1,1,0,0,0,26,17v6.882A7.011,7.011,0,0,1,24,19V10.247L29.64,11.5a1,1,0,1,0,.433-1.952l-1.151-.256A13.868,13.868,0,0,0,18,4,14.015,14.015,0,0,0,4,18V29.721a1,1,0,1,0,2,0V18A12.013,12.013,0,0,1,18,6a11.853,11.853,0,0,1,7.268,2.48l-2.051-.456A1,1,0,0,0,22,9v5.637A13.973,13.973,0,0,1,16.6,12.2a1,1,0,0,0-1.432.245A5.727,5.727,0,0,1,10.4,15H9a1,1,0,0,0,0,2H10.4a7.719,7.719,0,0,0,5.814-2.632A16.037,16.037,0,0,0,22,16.68v1.9a3.7,3.7,0,0,0-2.555.588,1,1,0,0,0,1.11,1.664,1.685,1.685,0,0,1,1.63-.122,9.031,9.031,0,0,0,3.2,5.3A7.985,7.985,0,0,1,10,23V20a1,1,0,0,0-2,0v3a9.98,9.98,0,0,0,4.026,8H11a9.01,9.01,0,0,0-9,9V52a1,1,0,0,0,2,0V45H8v7a1,1,0,0,0,2,0V44a1,1,0,0,0-1-1H4V40a7.008,7.008,0,0,1,7-7h2a5,5,0,0,0,10,0h2a6.917,6.917,0,0,1,2.691.555A10.065,10.065,0,0,0,30.026,36H29a9.01,9.01,0,0,0-9,9V57a1,1,0,0,0,2,0V50h4v7a1,1,0,0,0,2,0V49a1,1,0,0,0-1-1H22V45a7.008,7.008,0,0,1,7-7h2a5,5,0,0,0,10,0ZM18,36a3,3,0,0,1-3-3v-.461A9.986,9.986,0,0,0,18,33a10.088,10.088,0,0,0,3-.459V33A3,3,0,0,1,18,36Zm7-5h-.983a9.9,9.9,0,0,0,2.031-2.056,9.944,9.944,0,0,0,.465,2.2A8.881,8.881,0,0,0,25,31ZM36,41a3,3,0,0,1-3-3v-.461a9.992,9.992,0,0,0,6,0V38A3,3,0,0,1,36,41Z"/><path d="M60.383,45.278a1,1,0,1,0-1.707,1.043,9.01,9.01,0,1,1-2.453-2.64,1,1,0,0,0,1.164-1.627,11.04,11.04,0,1,0,3,3.224Z"/><path d="M49,58h4a1,1,0,0,0,1-1V54h3a1,1,0,0,0,1-1V49a1,1,0,0,0-1-1H54V45a1,1,0,0,0-1-1H49a1,1,0,0,0-1,1v3H45a1,1,0,0,0-1,1v4a1,1,0,0,0,1,1h3v3A1,1,0,0,0,49,58Zm-3-6V50h3a1,1,0,0,0,1-1V46h2v3a1,1,0,0,0,1,1h3v2H53a1,1,0,0,0-1,1v3H50V53a1,1,0,0,0-1-1Z"/><path d="M48.076,28.383A1,1,0,0,0,49,29h2v7a1,1,0,0,0,1,1h6a1,1,0,0,0,1-1V29h2a1,1,0,0,0,.707-1.707l-6-6a1,1,0,0,0-1.414,0l-6,6A1,1,0,0,0,48.076,28.383ZM55,23.414,58.586,27H58a1,1,0,0,0-1,1v7H53V28a1,1,0,0,0-1-1h-.586Z"/></g></g></svg>
