<svg height="512pt" viewBox="0 -4 512 512" width="512pt" xmlns="http://www.w3.org/2000/svg"><path d="m303.09375 174.25c3.394531 2.378906 8.070312 1.550781 10.445312-1.839844l15.953126-22.789062c2.378906-3.394532 1.554687-8.070313-1.839844-10.445313-3.394532-2.375-8.070313-1.550781-10.445313 1.84375l-15.957031 22.785157c-2.375 3.394531-1.550781 8.070312 1.84375 10.445312zm0 0"/><path d="m341.671875 155.984375-5.417969 27.285156c-.804687 4.0625 1.835938 8.011719 5.898438 8.816407 4.066406.804687 8.011718-1.835938 8.816406-5.894532l5.414062-27.289062c.808594-4.0625-1.832031-8.011719-5.894531-8.816406-4.0625-.804688-8.011719 1.832031-8.816406 5.898437zm0 0"/><path d="m309.589844 121.449219c-2.144532-3.542969-6.761719-4.675781-10.300782-2.523438l-23.789062 14.421875c-3.542969 2.144532-4.671875 6.757813-2.527344 10.300782 2.148438 3.542968 6.765625 4.671874 10.304688 2.523437l23.789062-14.421875c3.542969-2.144531 4.671875-6.757812 2.523438-10.300781zm0 0"/><path d="m83.652344 152.179688c2.765625 1.363281 6.121094 1.40625 8.96875 0 7-3.453126 29.835937-16.507813 29.835937-39.464844 0-18.203125-21.214843-27.0625-34.3125-16.074219-13.078125-11.007813-34.324219-2.109375-34.324219 16.074219 0 23.015625 22.84375 36.03125 29.832032 39.464844zm-3.777344-42.367188c1.398438 2.46875 4.46875 4.625 8.023438 4.710938 3.566406.113281 6.96875-2.039063 8.460937-4.652344 3.050781-5.347656 11.097656-3.148438 11.097656 2.847656 0 12.6875-13.386719 21.5625-19.324219 24.875-5.929687-3.296875-19.3125-12.144531-19.3125-24.875 0-6.042969 8.085938-8.132812 11.054688-2.90625zm0 0"/><path d="m141.140625 103.617188h29.636719c4.144531 0 7.5-3.355469 7.5-7.5 0-4.140626-3.355469-7.5-7.5-7.5h-29.636719c-4.144531 0-7.5 3.359374-7.5 7.5 0 4.144531 3.355469 7.5 7.5 7.5zm0 0"/><path d="m141.140625 130.027344h29.636719c4.144531 0 7.5-3.355469 7.5-7.5 0-4.144532-3.355469-7.5-7.5-7.5h-29.636719c-4.144531 0-7.5 3.355468-7.5 7.5 0 4.140625 3.355469 7.5 7.5 7.5zm0 0"/><path d="m141.140625 156.4375h29.636719c4.144531 0 7.5-3.355469 7.5-7.5s-3.355469-7.5-7.5-7.5h-29.636719c-4.144531 0-7.5 3.355469-7.5 7.5s3.355469 7.5 7.5 7.5zm0 0"/><path d="m495.769531 15.007812c4.144531 0 7.5-3.355468 7.5-7.5 0-4.144531-3.355469-7.4999995-7.5-7.4999995h-73.710937c-.117188 0-.230469.0117187-.347656.015625-2.496094-.1289065-5 .9843745-6.539063 3.1835935l-25.890625 36.972657-32.839844-22.996094c-17.371094-12.164063-38.902344-16.289063-59.59375-11.539063l-2.597656-1.820312c-9.589844-6.710938-22.816406-4.347657-29.5 5.199219l-5.96875 8.523437c-6.695312 9.5625-4.363281 22.800781 5.203125 29.496094l2.046875 1.433593c-6.84375 30.554688 26.828125 54.109376 53.179688 37.238282l4.191406 2.933594c-6.847656 30.554687 26.816406 54.109374 53.175781 37.238281l4.191406 2.933593c-6.84375 30.550782 26.820313 54.109376 53.179688 37.238282l2.054687 1.4375c9.566406 6.699218 22.796875 4.363281 29.496094-5.203125l5.96875-8.523438c6.695312-9.5625 4.363281-22.796875-5.203125-29.496093l-3.269531-2.289063c-2.613282-21.066406-13.855469-39.890625-31.230469-52.054687l-30.195313-21.144532 23.652344-33.777344zm-215.457031 43.472657 24.621094 17.242187c-11.800782 2.796875-23.222656-5.238281-24.621094-17.242187zm57.367188 40.167969c15.109374 10.578124 9.519531 6.667968 24.625 17.242187-11.773438 2.796875-23.222657-5.210937-24.625-17.242187zm57.371093 40.171874c14.953125 10.46875 9.726563 6.8125 24.625 17.242188-11.773437 2.796875-23.222656-5.210938-24.625-17.242188zm64.128907 6.34375-5.96875 8.523438c-1.953126 2.789062-5.8125 3.472656-8.605469 1.519531-9.492188-6.648437-162.519531-113.800781-172.019531-120.449219-2.769532-1.941406-3.457032-5.832031-1.515626-8.605468l5.96875-8.523438c1.945313-2.777344 5.839844-3.453125 8.605469-1.515625l172.019531 120.445313c2.773438 1.941406 3.457032 5.835937 1.515626 8.605468zm-14.902344-36.289062c-7.894532-5.53125-125.046875-87.558594-128.710938-90.125 11.472656.351562 22.671875 4 32.273438 10.722656l75.324218 52.742188c9.597657 6.722656 16.859376 16 21.113282 26.660156zm0 0"/><path d="m490.820312 310.515625h-32.3125c1.1875-2.863281 1.851563-6 1.851563-9.292969 0-13.390625-10.898437-24.285156-24.289063-24.285156h-43.113281c-2.304687-6.785156-8.71875-11.6875-16.273437-11.6875h-162.855469c-.171875 0-.347656-.023438-.519531-.0625l-34.828125-8.496094c-6.816407-1.660156-14.0625.914063-18.238281 6.988282l-20.386719-4.972657c-10.4375-2.542969-20.976563 2.113281-26.375 10.773438h-3.140625c7.585937-8.929688 12.175781-20.480469 12.175781-33.089844 0-9.335937-2.523437-18.089844-6.90625-25.632813h91.257813c16.316406 0 29.59375-13.277343 29.59375-29.59375v-41.136718c0-4.144532-3.359376-7.5-7.5-7.5-4.144532 0-7.5 3.355468-7.5 7.5v41.136718c0 8.046876-6.546876 14.59375-14.59375 14.59375h-104.421876c-18.3125-14.058593-43.886718-14.070312-62.234374 0h-10.621094c-8.042969 0-14.589844-6.546874-14.589844-14.59375v-117.273437c0-8.046875 6.546875-14.59375 14.589844-14.59375h177.28125c8.042968 0 14.589844 6.546875 14.589844 14.59375v41.136719c0 4.140625 3.359374 7.5 7.5 7.5 4.144531 0 7.503906-3.359375 7.503906-7.5v-41.136719c0-16.316406-13.277344-29.59375-29.59375-29.59375h-177.28125c-16.316406 0-29.589844 13.273437-29.589844 29.59375v117.277344c0 15.480469 11.953125 28.214843 27.109375 29.480469-4.421875 7.566406-6.972656 16.359374-6.972656 25.742187 0 12.609375 4.59375 24.160156 12.179687 33.089844h-11.136718c-11.679688 0-21.179688 9.5-21.179688 21.179687v13.679688c0 5.214844 1.902344 9.984375 5.039062 13.679687-3.136718 3.691407-5.039062 8.464844-5.039062 13.675781v13.679688c0 11.328125 8.945312 20.578125 20.136719 21.128906v6.609375c0 11.679688 9.503906 21.179688 21.179687 21.179688h20.714844v95.140625c0 7.878906 6.410156 14.289062 14.292969 14.289062h14.152343c7.878907 0 14.292969-6.410156 14.292969-14.289062v-95.140625h52.445313v61.296875c0 9.480468 7.710937 17.191406 17.191406 17.191406h86.566406c4.140625 0 7.5-3.355469 7.5-7.5s-3.359375-7.5-7.5-7.5h-86.566406c-1.207031 0-2.191406-.984375-2.191406-2.191406 0-5.121094 0-176.789063 0-182.15625.003906-.035156.007812-.070313.007812-.105469.042969-1.394531 1.339844-2.394531 2.703125-2.0625l34.828125 8.496094c1.332032.324219 2.703125.488281 4.074219.488281h162.855469c1.210937 0 2.191406.980469 2.191406 2.191406v173.148438c0 1.207031-.980469 2.191406-2.191406 2.191406h-80.710938c-4.140625 0-7.5 3.355469-7.5 7.5 0 4.140625 3.359375 7.5 7.5 7.5h80.710938c9.480468 0 17.191406-7.710938 17.191406-17.191406v-61.296875h13.355469v95.136719c0 7.882812 6.410156 14.292968 14.292969 14.292968h14.152343c7.882813 0 14.292969-6.410156 14.292969-14.292968v-95.136719h20.710938c11.679687 0 21.179687-9.5 21.179687-21.179688v-6.613281c11.195313-.546875 20.140625-9.796875 20.140625-21.125v-13.679688c0-11.675781-9.5-21.179687-21.179688-21.179687zm-354.515624-37.234375 20.910156 5.101562v19.121094l-8.867188-2.164062s-16.441406-4.007813-16.441406-4.007813c-4.359375-1.0625-7.242188-5.054687-7.085938-9.363281.210938-5.777344 5.699219-10.09375 11.484376-8.6875zm-64.976563-.703125c-19.820313 0-36.191406-16.128906-36.191406-36.1875 0-18.765625 14.359375-34.269531 32.773437-36.023437 21.273438-2.003907 39.605469 14.777343 39.605469 36.023437 0 20.117187-16.425781 36.1875-36.1875 36.1875zm-56.328125 18.082031c0-3.40625 2.773438-6.179687 6.179688-6.179687h32.601562c11.253906 4.121093 23.824219 4.125 35.09375 0h21.03125c.917969 10.308593 8.390625 18.972656 18.441406 21.421875l9.371094 2.285156c-1.132812 1.417969-2.878906 2.328125-4.828125 2.328125h-111.710937c-3.40625 0-6.179688-2.769531-6.179688-6.175781zm0 54.714844v-13.679688c0-3.40625 2.773438-6.175781 6.179688-6.175781h136.035156v26.035157c-9.355469 0-133.519532 0-136.035156 0-3.40625 0-6.179688-2.773438-6.179688-6.179688zm74.765625 143.347656h-12.734375v-94.429687h12.734375zm-48.449219-109.429687c-3.40625 0-6.179687-2.773438-6.179687-6.179688v-6.558593h122.078125v12.738281c-4.972656 0-111.449219 0-115.898438 0zm404.039063-78.070313c0 5.125-4.164063 9.289063-9.285157 9.289063h-42.195312v-18.574219h42.195312c5.121094 0 9.285157 4.164062 9.285157 9.285156zm-10.386719 187.5h-12.738281v-94.429687h12.738281zm41.890625-115.609375c0 3.40625-2.769531 6.179688-6.179687 6.179688-7.121094 0-68.257813 0-76.804688 0v-12.738281h82.984375zm20.140625-27.738281c0 3.40625-2.773438 6.179688-6.179688 6.179688-10.59375 0-86.34375 0-96.945312 0v-26.035157h96.945312c3.40625 0 6.179688 2.769531 6.179688 6.179688zm0 0"/><path d="m34.773438 61.570312c-4.144532 0-7.5 3.359376-7.5 7.5v106.914063c0 4.144531 3.355468 7.5 7.5 7.5h166.914062c4.144531 0 7.5-3.355469 7.5-7.5v-106.914063c0-4.140624-3.355469-7.5-7.5-7.5zm159.414062 106.914063h-151.914062v-91.914063h151.914062zm0 0"/></svg>