<svg width="433" height="90" viewBox="0 0 433 90" fill="none" xmlns="http://www.w3.org/2000/svg">
<g clip-path="url(#clip0)">
<path d="M44.5 88C69.0767 88 89 68.3005 89 44C89 19.6995 69.0767 0 44.5 0C19.9233 0 0 19.6995 0 44C0 68.3005 19.9233 88 44.5 88Z" fill="white"/>
<path d="M5.02417 34.613L5.57879 32.7528C5.66579 32.4624 5.76366 32.1829 5.89416 31.9141C6.05728 31.5592 6.38353 31.3119 6.76415 31.2151C6.97077 31.1614 7.1774 31.1614 7.38402 31.2151C7.61239 31.2796 7.80814 31.4087 7.96039 31.5807C8.11263 31.7528 8.21051 31.9678 8.25401 32.1936C8.40626 31.9463 8.62375 31.7528 8.89563 31.6452C9.15662 31.5592 9.43937 31.5592 9.70037 31.6452C9.92874 31.7098 10.1354 31.828 10.2985 31.9893C10.4725 32.1506 10.603 32.3442 10.6682 32.5592C10.7335 32.7958 10.7335 33.0431 10.6682 33.2796C10.6682 33.4409 10.5595 33.8388 10.3529 34.4624L9.86349 36.1291L5.02417 34.613ZM6.20953 33.8603L7.35139 34.1829L7.53627 33.5485C7.64502 33.1721 7.71026 32.9248 7.72114 32.828C7.77551 32.6775 7.77551 32.527 7.72114 32.3764C7.64502 32.2581 7.52539 32.1614 7.39489 32.1291C7.26439 32.0753 7.11215 32.0753 6.98165 32.1291C6.85115 32.1936 6.7424 32.3119 6.68803 32.4517C6.68803 32.4517 6.5684 32.8173 6.41615 33.2904L6.20953 33.8603ZM8.14526 34.4302L9.45024 34.8173L9.72212 33.9141C9.79824 33.6882 9.85262 33.4732 9.88524 33.2366C9.92874 33.1076 9.92874 32.9571 9.88524 32.828C9.79824 32.699 9.66774 32.6022 9.51549 32.5592C9.385 32.5162 9.23275 32.5162 9.10225 32.5592C8.97175 32.6022 8.863 32.6882 8.78688 32.8065C8.6455 33.0753 8.52588 33.3549 8.46063 33.6452L8.14526 34.4302Z" fill="#006EB7"/>
<path d="M11.4404 31.1828L6.80768 29.1398L8.27579 25.699L9.05878 26.0431L7.91692 28.5162L8.95003 28.9893L10.0919 26.613L10.8749 26.957L9.82002 29.2689L11.0815 29.8388L12.256 27.2796L13.039 27.6237L11.4404 31.1828ZM7.29705 27.0861V27.5377L7.00343 28.1506V27.2904L7.25355 26.742L7.98217 26.2474L7.68854 26.8603L7.29705 27.0861ZM13.5066 30.3441L12.4082 30L12.8215 29.1183L13.7132 29.5269L13.5066 30.3441Z" fill="#006EB7"/>
<path d="M13.4632 26.9248L9.1676 24.2259L9.70047 23.3872H13.6915L10.8206 21.5915L11.3426 20.7958L15.6273 23.5592L15.0727 24.4194H11.1686L13.9852 26.1829L13.4632 26.9248Z" fill="#006EB7"/>
<path d="M16.2363 22.7528L12.4083 19.4625L13.0717 18.6883L14.4746 20.0001L15.8557 18.4517L14.3223 17.1614L14.9857 16.4087L18.8571 19.6775L18.1938 20.4947L16.5408 19.0323L15.1923 20.484L16.8888 21.9141L16.2363 22.7528Z" fill="#006EB7"/>
<path d="M22.163 16.742L17.5956 13.9032L18.4656 13.2258L21.815 15.2688L20.4665 11.6667L21.3148 10.9893L23.033 16.0645L22.163 16.742Z" fill="#006EB7"/>
<path d="M24.9144 14.7635L22.163 10.5162L23.033 9.96777L25.7844 14.2043L24.9144 14.7635Z" fill="#006EB7"/>
<path d="M26.6108 13.6559L24.2727 9.18283L27.6222 7.4624L28.0137 8.21509L25.5777 9.4624L26.0997 10.4624L28.3725 9.30111L28.764 10.0538L26.4912 11.2151L27.1328 12.4409L29.6558 11.1506L30.0473 11.9033L26.6108 13.6559ZM25.8496 7.91401L25.6429 8.22584L25.0448 8.53767L25.5233 7.80649L26.0779 7.51617H26.9697L26.3716 7.82799L25.8496 7.91401ZM28.6009 14.2151L28.1442 13.3549L28.9489 12.9033L29.4056 13.7635L28.6009 14.2151Z" fill="#006EB7"/>
<path d="M30.8956 11.5592L29.2208 6.79571L30.1669 6.47313L33.2445 8.96776L32.1244 5.79571L33.0705 5.48389L34.7018 10.2688L33.7339 10.5914L30.6998 8.21507L31.7982 11.3226L30.8956 11.5592Z" fill="#006EB7"/>
<path d="M38.8778 9.36564L38.2796 5.27962L36.7898 5.48392L36.6702 4.64521L40.683 4.07532L40.8026 4.91403L39.3128 5.11833L39.9109 9.20435L38.8778 9.36564Z" fill="#006EB7"/>
<path d="M42.0424 8.9786V3.94635H44.1086C44.511 3.92484 44.9133 3.96785 45.3048 4.06462C45.5549 4.15065 45.7616 4.31194 45.9029 4.53774C46.0552 4.7743 46.1313 5.05387 46.1313 5.33344C46.1422 5.67753 46.0226 6.01086 45.8051 6.26893C45.5441 6.5485 45.1961 6.72054 44.8154 6.76355C45.0221 6.87108 45.2069 7.01086 45.3701 7.17215C45.5984 7.43022 45.7942 7.69903 45.9682 7.98936L46.6098 8.96785H45.4897L44.7284 7.88183C44.5545 7.62377 44.3696 7.37645 44.1738 7.15065C44.0868 7.05387 43.9781 6.98936 43.8585 6.94635C43.6845 6.92484 43.5105 6.92484 43.3365 6.94635H43.1298V8.98936L42.0424 8.9786ZM43.0102 6.05387H43.7715C44.076 6.08613 44.3913 6.08613 44.7067 6.05387C44.8263 6.01086 44.9242 5.93559 45.0003 5.82807C45.0438 5.69903 45.0438 5.57 45.0003 5.44097C45.0003 5.29043 44.9568 5.15065 44.8589 5.03237C44.7502 4.92484 44.6197 4.86032 44.4675 4.84957H43.0211V6.05387H43.0102Z" fill="#006EB7"/>
<path d="M52.1668 4.5807L53.1347 4.72048V5.3979C53.113 5.62371 53.0586 5.83876 52.9716 6.05382C52.8955 6.20435 52.7867 6.34414 52.6453 6.44091C52.3408 6.63446 51.9711 6.72048 51.6122 6.70973V7.16134C51.5579 7.59145 51.4709 8.01081 51.3404 8.43016C51.2642 8.65597 51.1229 8.86027 50.9489 9.02156C50.4704 9.36565 49.8722 9.49468 49.2959 9.36565C48.5999 9.3764 47.9583 9.04307 47.5559 8.48393C47.4471 8.30113 47.371 8.09683 47.3493 7.89253C47.3058 7.46242 47.3058 7.03231 47.3493 6.6022L47.719 3.94629L48.7304 4.08607L48.3389 6.785C48.3171 7.06457 48.3171 7.34414 48.3389 7.62371C48.3389 8.08608 48.6325 8.35489 49.2306 8.44091C49.8287 8.52694 50.1659 8.36565 50.242 7.9678C50.3181 7.68823 50.3725 7.40866 50.4051 7.12909L50.7966 4.36564L51.808 4.50543L51.5579 6.27962C51.8297 6.29038 52.1016 6.1936 52.2973 6.01081C52.4061 5.88177 52.4713 5.73124 52.4822 5.55919H52.0037L52.1668 4.5807Z" fill="#006EB7"/>
<path d="M52.8736 9.86031L54.3635 5.03235L55.3096 5.32267L56.3209 9.15063L57.3105 5.94633L58.224 6.21514L56.7342 11.0431L55.8207 10.7528L54.7441 7.01084L53.7545 10.1614L52.8736 9.86031Z" fill="#006EB7"/>
<path d="M60.6926 10.7312L61.0624 9.97853L63.1286 10.914L62.2586 12.7312C61.8998 12.7957 61.5409 12.7957 61.182 12.7312C60.7688 12.7205 60.3555 12.6452 59.964 12.4839C59.5182 12.2904 59.1375 11.9785 58.8439 11.5807C58.5829 11.2258 58.4416 10.7957 58.4524 10.3549C58.4524 9.89251 58.5612 9.44089 58.7678 9.02154C58.9744 8.58068 59.2789 8.19358 59.6813 7.89251C60.051 7.62369 60.4969 7.47316 60.9645 7.4624C61.3886 7.4624 61.8019 7.55918 62.1825 7.75272C62.661 7.94627 63.0742 8.29036 63.3352 8.73122C63.5419 9.11831 63.5962 9.56993 63.4766 10L62.4653 9.73122C62.5088 9.49466 62.4761 9.24735 62.3565 9.03229C62.226 8.80649 62.0194 8.62369 61.7801 8.51616C61.4104 8.34412 60.9863 8.34412 60.6274 8.51616C60.2142 8.70971 59.8879 9.0538 59.7139 9.47315C59.4747 9.89251 59.3985 10.3871 59.4855 10.8602C59.5943 11.2473 59.877 11.5592 60.2468 11.7205C60.4534 11.8172 60.6709 11.871 60.8884 11.8818C61.1059 11.914 61.3125 11.914 61.53 11.8818L61.8236 11.3119L60.6926 10.7312Z" fill="#006EB7"/>
<path d="M65.4232 15.699L67.0544 10.5914L67.9461 11.2689L66.7064 15.0108L69.9689 12.785L70.8389 13.4409L66.3149 16.4086L65.4232 15.699Z" fill="#006EB7"/>
<path d="M74.8952 17.3764L75.5803 18.0753L75.0801 18.5699C74.917 18.7312 74.743 18.871 74.5472 18.9785C74.395 19.0538 74.221 19.086 74.047 19.086C73.6881 19.0538 73.351 18.9032 73.0791 18.6774L72.7529 19C72.4484 19.3118 72.1112 19.5914 71.7632 19.8387C71.5675 19.9678 71.3391 20.043 71.0999 20.0645C70.5126 20.043 69.9689 19.785 69.5883 19.3441C69.0989 18.9462 68.8161 18.3548 68.827 17.7312C68.8488 17.5161 68.914 17.3226 69.0336 17.1398C69.2838 16.7957 69.5665 16.4731 69.8819 16.1828L71.8067 14.3656L72.5354 15.0968L70.4691 17C70.2625 17.1936 70.0668 17.3979 69.8928 17.6129C69.6209 18 69.7188 18.5269 70.0994 18.7957C70.48 19.1721 70.8498 19.2473 71.1977 19.0215C71.4587 18.8495 71.698 18.6559 71.9264 18.4516L73.9926 16.4086L74.7212 17.1398L73.3727 18.4516C73.5793 18.6237 73.8512 18.7097 74.1122 18.6989C74.2536 18.6452 74.3732 18.5699 74.4602 18.4516L74.134 18.129L74.8952 17.3764Z" fill="#006EB7"/>
<path d="M78.9625 22.7957L79.5171 23.5914L78.9408 23.9785C78.7559 24.1183 78.5601 24.2258 78.3426 24.3011C78.1686 24.3441 77.9946 24.3441 77.8206 24.3011C77.6249 24.2688 77.44 24.1828 77.2878 24.0753L76.9398 24.3441C76.3852 24.7742 75.6783 24.9785 74.9714 24.8925C74.3081 24.7742 73.7317 24.3871 73.3837 23.828C72.9704 23.3011 72.8073 22.6237 72.9269 21.9678C73.0901 21.3011 73.5142 20.7204 74.1014 20.3549C74.6887 19.9032 75.4282 19.6989 76.1677 19.8065C76.8093 19.9247 77.3748 20.3011 77.7228 20.8495C78.136 21.3764 78.2991 22.0538 78.1795 22.7097C78.0925 23.1075 77.9076 23.4731 77.6467 23.7742C77.8859 23.9463 78.2121 23.9463 78.4514 23.7742L78.1795 23.3871L78.9625 22.7957ZM74.8301 21.2043C74.4386 21.4516 74.1341 21.828 73.9818 22.2688C73.8296 23.0108 74.3081 23.7312 75.0584 23.8925C75.0911 23.9032 75.1128 23.9032 75.1454 23.9032C75.6239 23.914 76.0915 23.7635 76.4722 23.4731C76.8637 23.2258 77.1682 22.8602 77.3204 22.4301C77.4618 21.6667 76.9615 20.9247 76.1894 20.785C76.1785 20.785 76.1568 20.785 76.1459 20.7742C75.6565 20.7527 75.1672 20.9032 74.7866 21.2043H74.8301Z" fill="#006EB7"/>
<path d="M75.5368 26.9247L80.126 24.7419L80.561 25.6452L78.4948 28.957L81.5506 27.4839L81.9639 28.3441L77.3747 30.5269L76.9179 29.6022L78.9841 26.3548L75.9827 27.785L75.5368 26.9247Z" fill="#006EB7"/>
<path d="M80.1805 33.1829L81.007 32.9355L81.6703 34.9786L79.7237 35.57C79.4083 35.3872 79.1365 35.1399 78.919 34.8495C78.6471 34.5269 78.4514 34.1506 78.3209 33.742C78.2012 33.2796 78.2012 32.7958 78.3209 32.3334C78.4079 31.8925 78.6471 31.5054 78.9842 31.2044C79.3322 30.8925 79.7346 30.6667 80.1805 30.5269C80.659 30.4087 81.1483 30.4087 81.6268 30.5269C82.0836 30.613 82.5077 30.8495 82.8231 31.1829C83.1058 31.4947 83.3124 31.8603 83.4212 32.2689C83.5843 32.7635 83.5843 33.2904 83.4212 33.785C83.2689 34.1936 82.9644 34.5377 82.5729 34.742L82.0944 33.8388C82.3011 33.7097 82.4642 33.5162 82.5512 33.2904C82.6382 33.0431 82.6382 32.7743 82.5512 32.5377C82.4533 32.1506 82.1814 31.8388 81.8226 31.656C81.3985 31.4947 80.92 31.4947 80.4958 31.656C80.0173 31.7743 79.6041 32.0431 79.3213 32.4302C79.1147 32.7635 79.0712 33.1829 79.2017 33.5592C79.267 33.7635 79.3757 33.9571 79.5171 34.1291C79.6476 34.2904 79.7998 34.4409 79.9738 34.5592L80.5937 34.3764L80.1805 33.1829Z" fill="#006EB7"/>
<path d="M44.4999 31.957C47.4249 31.957 49.796 29.6125 49.796 26.7204C49.796 23.8284 47.4249 21.4839 44.4999 21.4839C41.575 21.4839 39.2039 23.8284 39.2039 26.7204C39.2039 29.6125 41.575 31.957 44.4999 31.957Z" fill="#E31D42"/>
<path d="M65.3363 31.1829C62.2369 32.1614 56.3645 35.0216 53.8415 38.2367C53.4283 38.7528 53.4718 38.7851 54.1134 38.3549C56.4297 36.7851 62.0085 35.8603 63.1069 38.3549C65.1731 42.8281 56.3862 54.8711 51.4817 61.1721L49.6221 63.4195C48.8173 64.4195 48.589 63.8281 48.4258 63.5592C44.7827 57.4302 46.0442 48.742 49.4372 41.8496C52.493 35.7205 58.5721 30.7098 67.9027 29.1184C57.9196 27.8066 49.8722 30.6453 44.4783 35.9033C39.0843 30.6238 31.0369 27.7205 21.0538 29.1184C30.3735 30.7098 36.4526 35.6238 39.5193 41.8496C42.9123 48.742 44.1738 57.3442 40.5307 63.5592C40.3893 63.8281 40.1609 64.4195 39.3344 63.4195L37.4966 61.0861C32.6138 54.7958 23.8812 42.6883 25.8713 38.2689C26.9697 35.7958 32.5485 36.7205 34.8649 38.2689C35.5065 38.699 35.55 38.6775 35.1367 38.1506C32.6355 34.9463 26.7631 32.0216 23.642 31.0969C11.2338 27.1722 13.1804 37.2259 15.6163 42.7958C19.3573 51.3872 33.2336 69.3764 44.5652 77.3227C55.8316 69.4302 69.621 51.484 73.3619 42.9786C75.7979 37.2904 77.8315 27.2797 65.3363 31.1829Z" fill="#E31D42"/>
<path d="M44.5 86.3333C59.5508 86.3441 73.5033 78.5161 81.2244 65.7419C69.7079 64.4731 53.972 67.785 44.5 81.6667C35.028 67.8172 19.292 64.5054 7.77551 65.7527C15.4967 78.5269 29.4491 86.3441 44.5 86.3333Z" fill="#006EB7"/>
<path d="M44.5 0.043335C19.9228 0.043335 0 19.7423 0 44.0326C0 51.7423 2.04448 59.3122 5.93768 65.9896L7.77554 65.7423C-4.33908 45.6993 2.27285 19.7315 22.5545 7.74226C42.8361 -4.24699 69.099 2.3014 81.2245 22.3552C89.3045 35.7208 89.3045 52.3874 81.2245 65.753L83.0623 66.0003C95.3292 44.9466 88.0104 18.0433 66.7065 5.9143C59.9532 2.06484 52.2973 0.043335 44.5 0.043335Z" fill="#006EB7"/>
<path d="M44.5 90C61.3778 90.0108 76.9289 80.9678 85.1286 66.3871C84.4652 66.2366 83.7801 66.1075 83.0623 66C70.7737 87.0538 43.5539 94.2796 22.2609 82.1398C15.4858 78.2688 9.85264 72.7097 5.93769 66C5.23082 66.1075 4.5457 66.2366 3.87146 66.3871C12.0711 80.9678 27.6222 90 44.5 90Z" fill="#006EB7"/>
<path d="M56.4515 69.0431C57.2888 68.5915 58.1588 68.1721 59.0397 67.7743C64.5859 65.3334 70.5888 64.0754 76.657 64.0969C77.9402 64.0969 79.2235 64.0969 80.4632 64.2582C82.3989 60.9356 83.8562 57.3657 84.7805 53.6453C74.3189 56.6775 64.6511 61.9356 56.4515 69.0431Z" fill="#006EB7"/>
<path d="M12.4082 64.1184C18.4764 64.0969 24.4793 65.3549 30.0255 67.7958C30.9064 68.1937 31.7655 68.613 32.6137 69.0646C24.4141 61.9463 14.7463 56.6883 4.28467 53.6453C5.18728 57.3657 6.62277 60.9463 8.54762 64.2797C9.8091 64.1506 11.0597 64.1184 12.4082 64.1184Z" fill="#006EB7"/>
</g>
<g filter="url(#filter0_d)">
<path d="M103.816 40V22.7734H112.219C114.102 22.7734 115.508 23.2852 116.438 24.3086C117.141 25.0898 117.492 26.0469 117.492 27.1797C117.492 28.2578 117.238 29.1055 116.73 29.7227C116.426 30.0977 115.977 30.418 115.383 30.6836C116.375 31.0742 117.086 31.6602 117.516 32.4414C117.891 33.0977 118.078 33.9062 118.078 34.8672C118.078 35.5703 117.949 36.2227 117.691 36.8242C117.434 37.418 117.066 37.9492 116.59 38.418C115.996 38.9805 115.402 39.3633 114.809 39.5664C113.973 39.8555 112.742 40 111.117 40H103.816ZM107.273 32.418V37.0234H111.691C112.598 37.0234 113.285 36.8203 113.754 36.4141C114.23 36.0078 114.469 35.3633 114.469 34.4805C114.469 33.793 114.219 33.2773 113.719 32.9336C113.227 32.5898 112.613 32.418 111.879 32.418H107.273ZM107.273 25.7383V29.4883H111.492C112.266 29.4883 112.867 29.3438 113.297 29.0547C113.789 28.7188 114.035 28.2227 114.035 27.5664C114.035 26.8945 113.816 26.4219 113.379 26.1484C112.941 25.875 112.281 25.7383 111.398 25.7383H107.273ZM134.578 22.7734V25.7969H125.461V29.4414H133.863V32.4648H125.461V36.9297H135.012V40H121.91V22.7734H134.578ZM129.832 41.4414V44.2188H126.809V41.4414H129.832ZM129.949 17.5352L132.691 21.0391H129.996L128.461 19.0703L126.926 21.0391H124.242L126.973 17.5352H129.949ZM149.18 22.7734H152.543V40H148.945L141.938 27.707L141.891 40H138.527V22.7734H142.324L149.133 34.7734L149.18 22.7734ZM166.992 32.2773H160.266V40H156.668V22.7734H160.266V29.3008H166.992V22.7734H170.59V40H166.992V32.2773ZM191.895 22.7734H195.633L189.773 40H186.375L180.562 22.7734H184.406L188.098 35.8281L191.895 22.7734ZM201.984 22.7734V40H198.387V22.7734H201.984ZM218.391 22.7734V25.7969H209.273V29.4414H217.676V32.4648H209.273V36.9297H218.824V40H205.723V22.7734H218.391ZM213.645 41.4414V44.2188H210.621V41.4414H213.645ZM213.762 17.5352L216.504 21.0391H213.809L212.273 19.0703L210.738 21.0391H208.055L210.785 17.5352H213.762ZM232.992 22.7734H236.355V40H232.758L225.75 27.707L225.703 40H222.34V22.7734H226.137L232.945 34.7734L232.992 22.7734ZM254.977 25.7969V40H251.367V25.7969H246.141V22.7734H260.156V25.7969H254.977ZM263.027 40V22.7734H271.758C273.758 22.7734 275.23 23.3867 276.176 24.6133C276.848 25.4961 277.184 26.4961 277.184 27.6133C277.184 28.5898 276.945 29.4531 276.469 30.2031C276 30.9453 275.344 31.457 274.5 31.7383C275.312 32.0977 275.855 32.5 276.129 32.9453C276.512 33.5703 276.703 34.625 276.703 36.1094C276.703 37.2969 276.723 38.125 276.762 38.5938C276.809 39.0547 277.047 39.3633 277.477 39.5195V40H273.492C273.367 39.5547 273.27 39.0859 273.199 38.5938C273.137 38.0938 273.105 37.3945 273.105 36.4961C273.105 35.1992 272.969 34.3594 272.695 33.9766C272.344 33.4766 271.535 33.2266 270.27 33.2266H266.578V40H263.027ZM266.578 30.3555H270.809C271.762 30.3555 272.461 30.1719 272.906 29.8047C273.359 29.4297 273.586 28.8281 273.586 28C273.586 27.4062 273.426 26.918 273.105 26.5352C272.676 26.0039 271.988 25.7383 271.043 25.7383H266.578V30.3555ZM294.809 23.4883C295.129 23.3086 295.328 23.1133 295.406 22.9023C295.484 22.6836 295.523 22.3672 295.523 21.9531H294.281V19.9844H297.105V22C297.105 23.1875 296.34 24.1641 294.809 24.9297V33.9531C294.809 36.1797 294.176 37.8359 292.91 38.9219C291.707 39.9609 289.973 40.4805 287.707 40.4805C286.73 40.4805 285.816 40.3438 284.965 40.0703C283.832 39.7031 282.922 39.1367 282.234 38.3711C281.336 37.332 280.887 35.9375 280.887 34.1875V22.7734H284.578V33.9531C284.578 35.0859 284.867 35.9453 285.445 36.5312C286.023 37.1172 286.762 37.4102 287.66 37.4102C288.84 37.4102 289.707 37.1289 290.262 36.5664C290.824 36.0039 291.105 35.1797 291.105 34.0938V22.7734H294.809V23.4883ZM308.953 22.7734H312.316V40H308.719L301.711 27.707L301.664 40H298.301V22.7734H302.098L308.906 34.7734L308.953 22.7734ZM324.656 33.6133V30.6836H331.852V40H329.449L329.074 37.8438C328.363 38.6406 327.754 39.207 327.246 39.543C326.27 40.168 325.086 40.4805 323.695 40.4805C321.484 40.4805 319.652 39.7266 318.199 38.2188C316.582 36.5547 315.773 34.2852 315.773 31.4102C315.773 28.8633 316.453 26.7578 317.812 25.0938C319.352 23.2266 321.488 22.293 324.223 22.293C326.621 22.293 328.531 22.9648 329.953 24.3086C331.156 25.4414 331.758 26.7031 331.758 28.0938H328.16C328.16 27.6016 327.855 27.0508 327.246 26.4414C326.48 25.6602 325.535 25.2695 324.41 25.2695C323.004 25.2695 321.859 25.7461 320.977 26.6992C319.969 27.8086 319.465 29.3945 319.465 31.457C319.465 33.6133 319.988 35.1875 321.035 36.1797C321.879 37 323.02 37.4102 324.457 37.4102C325.52 37.4102 326.422 37.0703 327.164 36.3906C327.906 35.7109 328.398 34.7852 328.641 33.6133H324.656ZM353.004 22.7734H356.742L350.883 40H347.484L341.672 22.7734H345.516L349.207 35.8281L353.004 22.7734ZM373.465 23.4883C373.785 23.3086 373.984 23.1133 374.062 22.9023C374.141 22.6836 374.18 22.3672 374.18 21.9531H372.938V19.9844H375.762V22C375.762 23.1875 374.996 24.1641 373.465 24.9297V33.9531C373.465 36.1797 372.832 37.8359 371.566 38.9219C370.363 39.9609 368.629 40.4805 366.363 40.4805C365.387 40.4805 364.473 40.3438 363.621 40.0703C362.488 39.7031 361.578 39.1367 360.891 38.3711C359.992 37.332 359.543 35.9375 359.543 34.1875V22.7734H363.234V33.9531C363.234 35.0859 363.523 35.9453 364.102 36.5312C364.68 37.1172 365.418 37.4102 366.316 37.4102C367.496 37.4102 368.363 37.1289 368.918 36.5664C369.48 36.0039 369.762 35.1797 369.762 34.0938V22.7734H373.465V23.4883ZM389.918 24.0156C390.254 23.8438 390.512 23.5625 390.691 23.1719C390.879 22.7734 390.973 22.3828 390.973 22H389.73V20.0312H392.566V22.0469C392.566 22.7031 392.469 23.2305 392.273 23.6289C392.016 24.1602 391.551 24.5938 390.879 24.9297C391.52 25.6328 392.008 26.5078 392.344 27.5547C392.68 28.6016 392.848 29.8711 392.848 31.3633C392.848 33.8086 392.305 35.793 391.219 37.3164C390.367 38.4961 389.207 39.3594 387.738 39.9062C386.699 40.2891 385.652 40.4805 384.598 40.4805C383.488 40.4805 382.43 40.2969 381.422 39.9297C379.953 39.3828 378.793 38.5273 377.941 37.3633C376.84 35.8242 376.289 33.8242 376.289 31.3633C376.289 28.9102 376.832 26.9336 377.918 25.4336C378.77 24.2461 379.93 23.3906 381.398 22.8672C382.453 22.4844 383.52 22.293 384.598 22.293C385.441 22.293 386.238 22.3867 386.988 22.5742C388.098 22.8633 389.074 23.3438 389.918 24.0156ZM379.887 31.3633C379.887 33.5352 380.422 35.1484 381.492 36.2031C382.312 37.0078 383.348 37.4102 384.598 37.4102C385.809 37.4102 386.824 37.0078 387.645 36.2031C388.715 35.1484 389.25 33.5352 389.25 31.3633C389.25 29.1992 388.715 27.5977 387.645 26.5586C386.824 25.7617 385.809 25.3633 384.598 25.3633C383.379 25.3633 382.352 25.7617 381.516 26.5586C380.43 27.6133 379.887 29.2148 379.887 31.3633ZM405.75 22.7734H409.113V40H405.516L398.508 27.707L398.461 40H395.098V22.7734H398.895L405.703 34.7734L405.75 22.7734ZM421.453 33.6133V30.6836H428.648V40H426.246L425.871 37.8438C425.16 38.6406 424.551 39.207 424.043 39.543C423.066 40.168 421.883 40.4805 420.492 40.4805C418.281 40.4805 416.449 39.7266 414.996 38.2188C413.379 36.5547 412.57 34.2852 412.57 31.4102C412.57 28.8633 413.25 26.7578 414.609 25.0938C416.148 23.2266 418.285 22.293 421.02 22.293C423.418 22.293 425.328 22.9648 426.75 24.3086C427.953 25.4414 428.555 26.7031 428.555 28.0938H424.957C424.957 27.6016 424.652 27.0508 424.043 26.4414C423.277 25.6602 422.332 25.2695 421.207 25.2695C419.801 25.2695 418.656 25.7461 417.773 26.6992C416.766 27.8086 416.262 29.3945 416.262 31.457C416.262 33.6133 416.785 35.1875 417.832 36.1797C418.676 37 419.816 37.4102 421.254 37.4102C422.316 37.4102 423.219 37.0703 423.961 36.3906C424.703 35.7109 425.195 34.7852 425.438 33.6133H421.453Z" fill="white"/>
</g>
<path d="M104.76 63.032L104.392 63.308C103.411 61.882 102.92 60.5787 102.92 59.398C102.92 58.386 103.219 57.374 103.817 56.362C104.369 55.4267 105.082 54.6447 105.956 54.016C107.505 52.912 109.667 52.36 112.442 52.36C113.423 52.36 114.558 52.406 115.846 52.498C118.867 52.7127 120.753 52.82 121.504 52.82C121.872 52.82 122.056 52.8967 122.056 53.05C121.995 53.2187 121.788 53.855 121.435 54.959C121.251 55.3423 120.983 55.534 120.63 55.534C119.971 55.534 118.867 55.488 117.318 55.396L114.236 55.212C113.975 55.212 113.477 55.189 112.741 55.143L110.188 54.982C105.772 54.982 103.564 56.454 103.564 59.398C103.564 60.4407 103.963 61.652 104.76 63.032ZM112.074 63.032L111.89 63.492C111.185 63.1853 110.433 63.032 109.636 63.032C108.639 63.032 107.735 63.2773 106.922 63.768C105.971 64.3353 105.496 65.0867 105.496 66.022C105.496 66.6507 105.787 67.1413 106.37 67.494C106.861 67.8007 107.443 67.954 108.118 67.954C110.449 67.954 112.135 66.3287 113.178 63.078C113.837 61.0387 114.343 59.7123 114.696 59.099C115.539 57.6423 116.858 56.5307 118.652 55.764L118.928 56.04C118.606 56.6227 118.307 57.535 118.031 58.777C117.648 60.525 117.379 61.6367 117.226 62.112C116.352 64.8873 114.757 66.7427 112.442 67.678C111.231 68.1687 109.927 68.414 108.532 68.414C106.171 68.414 104.99 67.54 104.99 65.792C104.99 64.78 105.396 63.929 106.209 63.239C106.976 62.5797 107.873 62.25 108.9 62.25C109.927 62.25 110.985 62.5107 112.074 63.032ZM125.541 58.938L123.057 65.884C122.935 66.206 122.873 66.4973 122.873 66.758C122.858 67.264 123.165 67.5247 123.793 67.54C124.299 67.5553 124.936 67.3177 125.702 66.827C125.825 66.7503 126.17 66.5127 126.737 66.114L126.967 66.344C125.633 67.5093 124.161 68.092 122.551 68.092C120.573 68.1073 119.577 67.5553 119.561 66.436C119.561 66.16 119.638 65.8073 119.791 65.378L121.861 59.72L125.541 58.938ZM124.184 58.225L123.241 58.271C122.03 57.4277 120.635 56.385 119.055 55.143H122.597C122.781 56.0477 123.31 57.075 124.184 58.225ZM132.341 59.168L129.259 67.448L129.305 67.54C129.351 67.54 129.428 67.4633 129.535 67.31C130.67 64.7493 131.529 63.0243 132.111 62.135C133.476 60.0343 134.933 58.984 136.481 58.984C137.647 58.984 138.229 59.4747 138.229 60.456C138.229 60.7167 138.168 60.9927 138.045 61.284L136.251 65.654C136.067 66.0987 135.975 66.4207 135.975 66.62C135.975 67.1413 136.297 67.402 136.941 67.402C137.524 67.402 138.16 67.195 138.85 66.781C139.004 66.689 139.364 66.4667 139.931 66.114L140.115 66.39C138.613 67.5247 137.11 68.092 135.607 68.092C134.856 68.092 134.235 67.9463 133.744 67.655C133.146 67.3023 132.847 66.7733 132.847 66.068C132.847 65.6847 132.939 65.2707 133.123 64.826L135.239 59.628L135.147 59.582C135.071 59.582 134.979 59.628 134.871 59.72C133.921 60.5173 132.985 61.6673 132.065 63.17C131.605 63.9213 130.9 65.24 129.949 67.126C129.765 67.494 129.566 67.747 129.351 67.885C129.152 68.023 128.845 68.092 128.431 68.092C127.051 68.092 126.361 67.5553 126.361 66.482C126.361 66.1293 126.453 65.7153 126.637 65.24L128.707 59.812L132.341 59.168ZM147.558 52.636L142.038 67.54L142.084 67.632L142.268 67.448L143.05 65.838C145.258 61.2993 147.45 59.03 149.628 59.03C150.762 59.03 151.33 59.4747 151.33 60.364C151.33 60.7933 151.222 61.2687 151.008 61.79L149.398 65.654C149.244 66.022 149.168 66.4053 149.168 66.804C149.168 67.2947 149.428 67.54 149.95 67.54C150.348 67.54 150.77 67.448 151.215 67.264C151.322 67.218 151.958 66.8653 153.124 66.206L153.308 66.482C151.805 67.6167 150.302 68.184 148.8 68.184C148.079 68.184 147.466 68.046 146.96 67.77C146.316 67.4173 145.994 66.9113 145.994 66.252C145.994 65.7767 146.116 65.24 146.362 64.642L148.34 59.766L148.248 59.72C148.002 59.72 147.374 60.3793 146.362 61.698C145.564 62.7407 144.989 63.5303 144.637 64.067C144.023 65.0177 143.372 66.0987 142.682 67.31C142.452 67.724 142.229 67.977 142.015 68.069C141.8 68.1763 141.44 68.23 140.934 68.23C140.428 68.23 139.998 68.0843 139.646 67.793C139.308 67.4863 139.14 67.08 139.14 66.574C139.14 66.298 139.232 65.9147 139.416 65.424L143.878 53.372L147.558 52.636ZM162.058 63.032L161.69 63.308C160.709 61.882 160.218 60.5787 160.218 59.398C160.218 58.386 160.517 57.374 161.115 56.362C161.667 55.4267 162.38 54.6447 163.254 54.016C164.803 52.912 166.965 52.36 169.74 52.36C170.721 52.36 171.856 52.406 173.144 52.498C176.165 52.7127 178.051 52.82 178.802 52.82C179.17 52.82 179.354 52.8967 179.354 53.05C179.293 53.2187 179.086 53.855 178.733 54.959C178.549 55.3423 178.281 55.534 177.928 55.534C177.269 55.534 176.165 55.488 174.616 55.396L171.534 55.212C171.273 55.212 170.775 55.189 170.039 55.143L167.486 54.982C163.07 54.982 160.862 56.454 160.862 59.398C160.862 60.4407 161.261 61.652 162.058 63.032ZM169.372 63.032L169.188 63.492C168.483 63.1853 167.731 63.032 166.934 63.032C165.937 63.032 165.033 63.2773 164.22 63.768C163.269 64.3353 162.794 65.0867 162.794 66.022C162.794 66.6507 163.085 67.1413 163.668 67.494C164.159 67.8007 164.741 67.954 165.416 67.954C167.747 67.954 169.433 66.3287 170.476 63.078C171.135 61.0387 171.641 59.7123 171.994 59.099C172.837 57.6423 174.156 56.5307 175.95 55.764L176.226 56.04C175.904 56.6227 175.605 57.535 175.329 58.777C174.946 60.525 174.677 61.6367 174.524 62.112C173.65 64.8873 172.055 66.7427 169.74 67.678C168.529 68.1687 167.225 68.414 165.83 68.414C163.469 68.414 162.288 67.54 162.288 65.792C162.288 64.78 162.694 63.929 163.507 63.239C164.274 62.5797 165.171 62.25 166.198 62.25C167.225 62.25 168.283 62.5107 169.372 63.032ZM184.955 52.636L179.435 67.54L179.481 67.632L179.665 67.448L180.447 65.838C182.655 61.2993 184.848 59.03 187.025 59.03C188.16 59.03 188.727 59.4747 188.727 60.364C188.727 60.7933 188.62 61.2687 188.405 61.79L186.795 65.654C186.642 66.022 186.565 66.4053 186.565 66.804C186.565 67.2947 186.826 67.54 187.347 67.54C187.746 67.54 188.167 67.448 188.612 67.264C188.719 67.218 189.356 66.8653 190.521 66.206L190.705 66.482C189.202 67.6167 187.7 68.184 186.197 68.184C185.476 68.184 184.863 68.046 184.357 67.77C183.713 67.4173 183.391 66.9113 183.391 66.252C183.391 65.7767 183.514 65.24 183.759 64.642L185.737 59.766L185.645 59.72C185.4 59.72 184.771 60.3793 183.759 61.698C182.962 62.7407 182.387 63.5303 182.034 64.067C181.421 65.0177 180.769 66.0987 180.079 67.31C179.849 67.724 179.627 67.977 179.412 68.069C179.197 68.1763 178.837 68.23 178.331 68.23C177.825 68.23 177.396 68.0843 177.043 67.793C176.706 67.4863 176.537 67.08 176.537 66.574C176.537 66.298 176.629 65.9147 176.813 65.424L181.275 53.372L184.955 52.636ZM201.637 59.122C201.683 58.9993 201.706 58.8843 201.706 58.777C201.706 58.547 201.591 58.3937 201.361 58.317L201.223 58.271L201.154 58.041L203.523 57.627C203.784 58.1177 203.853 58.524 203.73 58.846C203.562 59.306 203.025 59.7277 202.12 60.111C201.952 60.1877 201.637 60.295 201.177 60.433L199.314 65.47C199.161 65.8687 199.084 66.2827 199.084 66.712C199.069 67.1873 199.314 67.4327 199.82 67.448C200.495 67.4633 201.492 67.0033 202.81 66.068L202.994 66.344C201.492 67.494 200.05 68.0767 198.67 68.092C197.444 68.092 196.585 67.7087 196.094 66.942C194.914 67.678 193.702 68.046 192.46 68.046C191.801 68.046 191.234 67.9003 190.758 67.609C190.206 67.2717 189.93 66.7887 189.93 66.16C189.93 65.884 189.992 65.4853 190.114 64.964L192 59.766L195.542 59.076L193.242 65.516C193.074 66.0067 192.966 66.4053 192.92 66.712C192.92 67.1873 193.181 67.4327 193.702 67.448C194.3 67.4633 195.067 67.1567 196.002 66.528L195.956 66.206C195.956 65.93 196.048 65.5313 196.232 65.01L198.072 59.812L201.637 59.122ZM209.804 63.446C210.004 62.618 210.111 61.7593 210.126 60.87C210.142 59.49 209.927 58.8 209.482 58.8C209.068 58.8 208.854 59.2753 208.838 60.226C208.823 61.4373 209.145 62.5107 209.804 63.446ZM212.035 60.042C212.572 59.674 212.84 59.2523 212.84 58.777C212.84 58.5623 212.725 58.409 212.495 58.317L212.334 58.271L212.288 58.041L214.634 57.627C214.895 58.133 214.972 58.5393 214.864 58.846C214.634 59.5053 213.707 60.0573 212.081 60.502C212.127 60.6553 212.15 60.8547 212.15 61.1C212.15 62.2653 211.874 63.354 211.322 64.366C211.752 64.55 212.227 64.642 212.748 64.642C213.362 64.642 213.944 64.5347 214.496 64.32L214.588 64.688C214.098 64.8873 213.53 64.9947 212.886 65.01C212.288 65.0253 211.721 64.9333 211.184 64.734C209.927 67.034 208.164 68.184 205.894 68.184C203.579 68.184 202.414 67.2947 202.398 65.516C202.398 64.32 202.766 63.17 203.502 62.066C204.208 61.008 205.112 60.1953 206.216 59.628C207.029 59.214 207.673 58.9993 208.148 58.984C208.286 58.984 208.363 59.0453 208.378 59.168C206.508 62.112 205.572 64.55 205.572 66.482C205.572 67.264 205.879 67.6627 206.492 67.678C207.167 67.6933 207.819 67.241 208.447 66.321C208.723 65.907 209.114 65.148 209.62 64.044C208.777 63.0627 208.348 61.9587 208.332 60.732C208.317 60.0727 208.447 59.5207 208.723 59.076C209.03 58.5393 209.498 58.2633 210.126 58.248C211.108 58.2327 211.744 58.8307 212.035 60.042ZM219.737 59.168L216.655 67.448L216.701 67.54C216.747 67.54 216.824 67.4633 216.931 67.31C218.066 64.7493 218.924 63.0243 219.507 62.135C220.872 60.0343 222.328 58.984 223.877 58.984C225.042 58.984 225.625 59.4747 225.625 60.456C225.625 60.7167 225.564 60.9927 225.441 61.284L223.647 65.654C223.463 66.0987 223.371 66.4207 223.371 66.62C223.371 67.1413 223.693 67.402 224.337 67.402C224.92 67.402 225.556 67.195 226.246 66.781C226.399 66.689 226.76 66.4667 227.327 66.114L227.511 66.39C226.008 67.5247 224.506 68.092 223.003 68.092C222.252 68.092 221.631 67.9463 221.14 67.655C220.542 67.3023 220.243 66.7733 220.243 66.068C220.243 65.6847 220.335 65.2707 220.519 64.826L222.635 59.628L222.543 59.582C222.466 59.582 222.374 59.628 222.267 59.72C221.316 60.5173 220.381 61.6673 219.461 63.17C219.001 63.9213 218.296 65.24 217.345 67.126C217.161 67.494 216.962 67.747 216.747 67.885C216.548 68.023 216.241 68.092 215.827 68.092C214.447 68.092 213.757 67.5553 213.757 66.482C213.757 66.1293 213.849 65.7153 214.033 65.24L216.103 59.812L219.737 59.168ZM238.771 59.122L235.551 68.046C236.747 67.7393 238.219 67.0647 239.967 66.022L240.151 66.344C238.924 67.1567 237.314 67.954 235.321 68.736C234.769 70.0853 233.864 71.036 232.607 71.588C231.825 71.9253 231.104 72.094 230.445 72.094C230 72.094 229.617 72.002 229.295 71.818C228.896 71.588 228.697 71.266 228.697 70.852C228.697 69.748 229.786 69.0273 231.963 68.69L232.377 67.402C231.687 67.77 230.859 67.954 229.893 67.954C227.9 67.954 226.903 67.2333 226.903 65.792C226.903 64.09 227.516 62.5337 228.743 61.123C230.016 59.6357 231.488 58.892 233.159 58.892C234.079 58.892 234.846 59.168 235.459 59.72L238.771 59.122ZM234.999 59.996C234.723 59.536 234.34 59.306 233.849 59.306C233.144 59.306 232.484 59.9193 231.871 61.146C231.58 61.7133 231.227 62.6103 230.813 63.837C230.353 65.1863 230.123 66.0833 230.123 66.528C230.123 66.804 230.215 67.0417 230.399 67.241C230.583 67.4403 230.813 67.54 231.089 67.54C231.534 67.54 232.055 67.264 232.653 66.712L234.999 59.996ZM231.825 69.104C231.181 69.2113 230.621 69.403 230.146 69.679C229.487 70.047 229.157 70.484 229.157 70.99C229.157 71.4193 229.402 71.634 229.893 71.634C230.69 71.634 231.334 70.7907 231.825 69.104ZM248.891 65.01L248.615 65.332C247.173 64.1513 246.453 62.756 246.453 61.146C246.453 57.282 249.006 54.66 254.112 53.28C256.044 52.7587 257.999 52.498 259.977 52.498C261.449 52.498 262.185 52.6207 262.185 52.866C262.185 52.9733 262.077 53.142 261.863 53.372C260.636 54.6907 259.455 56.6073 258.321 59.122C257.125 61.744 256.527 63.8907 256.527 65.562C256.527 67.1567 257.155 67.954 258.413 67.954C259.854 67.954 261.165 67.0647 262.346 65.286C263.143 64.0747 263.818 62.5873 264.37 60.824C264.937 59.0453 265.221 57.4507 265.221 56.04C265.221 54.8287 265.052 53.9393 264.715 53.372C264.592 53.05 264.531 52.866 264.531 52.82C264.531 52.636 264.853 52.544 265.497 52.544C266.57 52.544 267.375 52.912 267.912 53.648C268.387 54.292 268.625 55.166 268.625 56.27C268.625 59.1067 267.613 61.79 265.589 64.32C263.442 66.988 260.989 68.322 258.229 68.322C256.803 68.322 255.607 67.931 254.641 67.149C253.598 66.321 253.077 65.2093 253.077 63.814C253.077 61.8207 254.004 59.7737 255.86 57.673C257.301 56.0477 259.126 54.568 261.334 53.234C261.441 53.1727 261.51 53.1113 261.541 53.05C261.449 52.9887 261.372 52.958 261.311 52.958C259.578 52.958 257.677 53.303 255.607 53.993C253.414 54.7137 251.597 55.6567 250.156 56.822C248.27 58.3553 247.327 60.0727 247.327 61.974C247.327 63.2467 247.848 64.2587 248.891 65.01ZM280.21 59.076L277.726 65.746C277.696 65.8687 277.619 66.1293 277.496 66.528C277.496 67.08 277.803 67.356 278.416 67.356C279.336 67.356 280.348 66.9573 281.452 66.16L281.636 66.436C280.21 67.5553 278.677 68.1227 277.036 68.138C275.902 68.138 275.058 67.7853 274.506 67.08C273.418 67.77 272.329 68.1227 271.24 68.138C269.354 68.1533 268.404 67.3713 268.388 65.792C268.388 64.2587 269.078 62.6793 270.458 61.054C271.593 59.72 273.034 59.0453 274.782 59.03C275.672 59.0147 276.316 59.2447 276.714 59.72L280.21 59.076ZM276.438 60.088C276.132 59.7047 275.733 59.5053 275.242 59.49C274.706 59.4747 274.246 59.7737 273.862 60.387C273.755 60.5557 273.51 61.0847 273.126 61.974C272.206 64.1053 271.746 65.5313 271.746 66.252C271.746 66.988 272.068 67.356 272.712 67.356C273.004 67.356 273.287 67.287 273.563 67.149C273.594 67.1337 273.862 66.9727 274.368 66.666L274.276 66.206C274.276 65.884 274.368 65.4853 274.552 65.01L276.438 60.088ZM275.725 58.156L274.782 58.179C273.556 57.351 272.16 56.3083 270.596 55.051H274.138C274.322 55.9557 274.851 56.9907 275.725 58.156ZM290.198 63.032L289.83 63.308C288.848 61.882 288.358 60.5787 288.358 59.398C288.358 58.386 288.657 57.374 289.255 56.362C289.807 55.4267 290.52 54.6447 291.394 54.016C292.942 52.912 295.104 52.36 297.88 52.36C298.861 52.36 299.996 52.406 301.284 52.498C304.304 52.7127 306.19 52.82 306.942 52.82C307.31 52.82 307.494 52.8967 307.494 53.05C307.432 53.2187 307.225 53.855 306.873 54.959C306.689 55.3423 306.42 55.534 306.068 55.534C305.408 55.534 304.304 55.488 302.756 55.396L299.674 55.212C299.413 55.212 298.915 55.189 298.179 55.143L295.626 54.982C291.21 54.982 289.002 56.454 289.002 59.398C289.002 60.4407 289.4 61.652 290.198 63.032ZM297.512 63.032L297.328 63.492C296.622 63.1853 295.871 63.032 295.074 63.032C294.077 63.032 293.172 63.2773 292.36 63.768C291.409 64.3353 290.934 65.0867 290.934 66.022C290.934 66.6507 291.225 67.1413 291.808 67.494C292.298 67.8007 292.881 67.954 293.556 67.954C295.886 67.954 297.573 66.3287 298.616 63.078C299.275 61.0387 299.781 59.7123 300.134 59.099C300.977 57.6423 302.296 56.5307 304.09 55.764L304.366 56.04C304.044 56.6227 303.745 57.535 303.469 58.777C303.085 60.525 302.817 61.6367 302.664 62.112C301.79 64.8873 300.195 66.7427 297.88 67.678C296.668 68.1687 295.365 68.414 293.97 68.414C291.608 68.414 290.428 67.54 290.428 65.792C290.428 64.78 290.834 63.929 291.647 63.239C292.413 62.5797 293.31 62.25 294.338 62.25C295.365 62.25 296.423 62.5107 297.512 63.032ZM310.749 59.076L307.713 67.494L307.805 67.586C307.897 67.586 308.127 67.126 308.495 66.206C309.047 64.826 309.721 63.538 310.519 62.342C310.519 61.5753 310.764 60.8393 311.255 60.134C311.791 59.3367 312.42 58.938 313.141 58.938C313.785 58.938 314.107 59.1833 314.107 59.674C314.107 59.8887 313.861 60.2107 313.371 60.64C313.248 60.7473 312.995 60.9773 312.612 61.33C312.428 61.4987 312.021 61.8973 311.393 62.526L311.347 62.986C311.347 63.5227 311.492 63.9673 311.784 64.32C312.09 64.6573 312.512 64.826 313.049 64.826C313.417 64.826 313.815 64.7493 314.245 64.596L314.337 65.148C314.045 65.2093 313.754 65.24 313.463 65.24C312.113 65.24 311.163 64.55 310.611 63.17C310.166 63.6913 309.491 64.8873 308.587 66.758C308.311 67.3253 308.119 67.6627 308.012 67.77C307.797 67.9847 307.437 68.092 306.931 68.092C306.394 68.092 305.934 67.977 305.551 67.747C305.091 67.471 304.861 67.08 304.861 66.574C304.861 66.2673 304.968 65.8073 305.183 65.194L307.069 59.812L310.749 59.076ZM325.829 59.076L323.345 65.746C323.314 65.8687 323.237 66.1293 323.115 66.528C323.115 67.08 323.421 67.356 324.035 67.356C324.955 67.356 325.967 66.9573 327.071 66.16L327.255 66.436C325.829 67.5553 324.295 68.1227 322.655 68.138C321.52 68.138 320.677 67.7853 320.125 67.08C319.036 67.77 317.947 68.1227 316.859 68.138C314.973 68.1533 314.022 67.3713 314.007 65.792C314.007 64.2587 314.697 62.6793 316.077 61.054C317.211 59.72 318.653 59.0453 320.401 59.03C321.29 59.0147 321.934 59.2447 322.333 59.72L325.829 59.076ZM322.057 60.088C321.75 59.7047 321.351 59.5053 320.861 59.49C320.324 59.4747 319.864 59.7737 319.481 60.387C319.373 60.5557 319.128 61.0847 318.745 61.974C317.825 64.1053 317.365 65.5313 317.365 66.252C317.365 66.988 317.687 67.356 318.331 67.356C318.622 67.356 318.906 67.287 319.182 67.149C319.212 67.1337 319.481 66.9727 319.987 66.666L319.895 66.206C319.895 65.884 319.987 65.4853 320.171 65.01L322.057 60.088ZM321.988 55.097H325.53C325.346 55.2963 324.817 55.7027 323.943 56.316C322.854 57.0827 321.988 57.7113 321.344 58.202L320.401 58.179C321.275 57.0137 321.804 55.9863 321.988 55.097ZM335.721 66.16L335.905 66.436C334.264 67.5707 332.47 68.138 330.523 68.138C327.732 68.138 326.337 67.356 326.337 65.792C326.337 64.09 327.05 62.526 328.476 61.1C329.917 59.6587 331.489 58.938 333.191 58.938C334.479 58.938 335.123 59.536 335.123 60.732C335.123 61.514 334.87 62.296 334.364 63.078C333.796 63.9673 333.145 64.412 332.409 64.412C331.765 64.412 331.443 64.1053 331.443 63.492C331.443 63.0473 331.949 62.4263 332.961 61.629C333.973 60.8317 334.479 60.318 334.479 60.088C334.479 59.6587 334.249 59.444 333.789 59.444C332.746 59.444 331.788 60.3257 330.914 62.089C330.132 63.653 329.741 65.0407 329.741 66.252C329.741 67.172 330.262 67.632 331.305 67.632C332.47 67.632 333.942 67.1413 335.721 66.16ZM343.687 52.636L338.167 67.54L338.213 67.632L338.397 67.448L339.179 65.838C341.387 61.2993 343.579 59.03 345.757 59.03C346.891 59.03 347.459 59.4747 347.459 60.364C347.459 60.7933 347.351 61.2687 347.137 61.79L345.527 65.654C345.373 66.022 345.297 66.4053 345.297 66.804C345.297 67.2947 345.557 67.54 346.079 67.54C346.477 67.54 346.899 67.448 347.344 67.264C347.451 67.218 348.087 66.8653 349.253 66.206L349.437 66.482C347.934 67.6167 346.431 68.184 344.929 68.184C344.208 68.184 343.595 68.046 343.089 67.77C342.445 67.4173 342.123 66.9113 342.123 66.252C342.123 65.7767 342.245 65.24 342.491 64.642L344.469 59.766L344.377 59.72C344.131 59.72 343.503 60.3793 342.491 61.698C341.693 62.7407 341.118 63.5303 340.766 64.067C340.152 65.0177 339.501 66.0987 338.811 67.31C338.581 67.724 338.358 67.977 338.144 68.069C337.929 68.1763 337.569 68.23 337.063 68.23C336.557 68.23 336.127 68.0843 335.775 67.793C335.437 67.4863 335.269 67.08 335.269 66.574C335.269 66.298 335.361 65.9147 335.545 65.424L340.007 53.372L343.687 52.636ZM357.221 64.964L356.807 65.194C356.101 63.8907 355.749 62.71 355.749 61.652C355.749 59.2753 356.761 57.1363 358.785 55.235C360.778 53.3797 362.971 52.452 365.363 52.452C366.666 52.452 367.678 52.7587 368.399 53.372C369.073 53.97 369.549 54.9207 369.825 56.224C371.005 55.304 372.431 54.4913 374.103 53.786C376.142 52.9273 377.583 52.498 378.427 52.498C378.733 52.498 378.887 52.5747 378.887 52.728C378.887 52.82 378.779 53.0347 378.565 53.372C377.599 54.89 376.579 56.9523 375.506 59.559C374.294 62.4877 373.689 64.6573 373.689 66.068C373.689 67.1413 374.225 67.678 375.299 67.678C376.081 67.678 377.077 67.3407 378.289 66.666L378.381 67.172C377.507 67.5707 376.878 67.8313 376.495 67.954C375.774 68.1993 375.115 68.322 374.517 68.322C373.275 68.322 372.278 67.954 371.527 67.218C370.791 66.4667 370.423 65.47 370.423 64.228C370.423 62.1733 371.128 60.157 372.539 58.179C373.704 56.5383 375.268 55.0433 377.231 53.694C377.491 53.556 377.844 53.3107 378.289 52.958L378.151 52.912L377.921 52.958C374.486 54.1847 371.803 55.4727 369.871 56.822V57.42C369.871 58.6467 369.618 60.0113 369.112 61.514C368.606 63.0013 367.985 64.2587 367.249 65.286C366.681 66.068 366.037 66.735 365.317 67.287C364.412 67.977 363.569 68.322 362.787 68.322C361.805 68.322 361.315 67.7087 361.315 66.482C361.315 65.102 361.92 63.5303 363.132 61.767C364.082 60.387 365.24 59.0913 366.605 57.88C367.003 56.6227 367.203 55.534 367.203 54.614C367.203 53.4487 366.574 52.866 365.317 52.866C363.998 52.866 362.603 53.6097 361.131 55.097C359.981 56.247 359.015 57.5733 358.233 59.076C357.343 60.7627 356.899 62.1887 356.899 63.354C356.899 63.906 357.006 64.4427 357.221 64.964ZM366.375 58.8C365.133 59.8733 364.044 61.4527 363.109 63.538C362.342 65.24 361.959 66.4053 361.959 67.034C361.959 67.31 362.051 67.448 362.235 67.448C362.557 67.448 363.101 66.6353 363.868 65.01C364.711 63.2007 365.547 61.1307 366.375 58.8ZM385.936 52.636L380.416 67.54L380.462 67.632L380.646 67.448L381.428 65.838C383.636 61.2993 385.828 59.03 388.006 59.03C389.14 59.03 389.708 59.4747 389.708 60.364C389.708 60.7933 389.6 61.2687 389.386 61.79L387.776 65.654C387.622 66.022 387.546 66.4053 387.546 66.804C387.546 67.2947 387.806 67.54 388.328 67.54C388.726 67.54 389.148 67.448 389.593 67.264C389.7 67.218 390.336 66.8653 391.502 66.206L391.686 66.482C390.183 67.6167 388.68 68.184 387.178 68.184C386.457 68.184 385.844 68.046 385.338 67.77C384.694 67.4173 384.372 66.9113 384.372 66.252C384.372 65.7767 384.494 65.24 384.74 64.642L386.718 59.766L386.626 59.72C386.38 59.72 385.752 60.3793 384.74 61.698C383.942 62.7407 383.367 63.5303 383.015 64.067C382.401 65.0177 381.75 66.0987 381.06 67.31C380.83 67.724 380.607 67.977 380.393 68.069C380.178 68.1763 379.818 68.23 379.312 68.23C378.806 68.23 378.376 68.0843 378.024 67.793C377.686 67.4863 377.518 67.08 377.518 66.574C377.518 66.298 377.61 65.9147 377.794 65.424L382.256 53.372L385.936 52.636ZM396.937 58.938L394.453 65.884C394.33 66.2213 394.269 66.5127 394.269 66.758C394.269 67.2793 394.575 67.54 395.189 67.54C395.756 67.54 396.392 67.3023 397.098 66.827C397.19 66.7657 397.535 66.528 398.133 66.114L398.363 66.344C397.044 67.5093 395.572 68.092 393.947 68.092C391.953 68.092 390.957 67.54 390.957 66.436C390.957 66.1447 391.033 65.792 391.187 65.378L393.257 59.72L396.937 58.938ZM396.385 53.74C396.937 53.74 397.397 53.924 397.765 54.292C398.133 54.66 398.317 55.12 398.317 55.672C398.317 56.2087 398.125 56.661 397.742 57.029C397.374 57.3817 396.921 57.558 396.385 57.558C395.848 57.558 395.396 57.3817 395.028 57.029C394.675 56.661 394.499 56.2087 394.499 55.672C394.499 55.12 394.675 54.66 395.028 54.292C395.38 53.924 395.833 53.74 396.385 53.74ZM408.935 66.16L409.119 66.482C407.095 67.6167 404.78 68.184 402.173 68.184C399.398 68.184 398.002 67.448 397.987 65.976C397.987 65.2093 398.232 64.2587 398.723 63.124C399.919 60.364 402.05 58.984 405.117 58.984C406.788 58.984 407.632 59.5207 407.647 60.594C407.678 62.4033 405.822 63.9213 402.081 65.148C401.989 65.3933 401.943 65.6847 401.943 66.022C401.943 66.5587 402.165 66.9727 402.61 67.264C402.978 67.5093 403.446 67.632 404.013 67.632C405.5 67.632 407.141 67.1413 408.935 66.16ZM402.173 64.688C402.955 64.1207 403.768 63.3617 404.611 62.411C405.623 61.261 406.129 60.3793 406.129 59.766C406.129 59.444 405.93 59.2753 405.531 59.26C404.933 59.2447 404.243 59.9883 403.461 61.491C402.97 62.4263 402.541 63.492 402.173 64.688ZM402.173 68.874C402.572 68.874 402.917 69.0197 403.208 69.311C403.515 69.6177 403.676 69.9703 403.691 70.369C403.706 70.8137 403.568 71.1893 403.277 71.496C402.986 71.8027 402.618 71.956 402.173 71.956C401.713 71.956 401.345 71.8027 401.069 71.496C400.793 71.2047 400.647 70.829 400.632 70.369C400.632 69.9703 400.785 69.6177 401.092 69.311C401.414 69.0197 401.774 68.874 402.173 68.874ZM404.381 55.787H406.727C406.88 56.8143 407.248 57.857 407.831 58.915H406.911C406.681 58.7617 406.321 58.4933 405.83 58.11L404.749 57.259C404.458 57.5043 404.235 57.696 404.082 57.834L402.955 58.869H402.127C403.216 57.811 403.967 56.7837 404.381 55.787ZM414.406 59.03L411.416 67.31C411.355 67.4327 411.324 67.5247 411.324 67.586L411.37 67.678L411.554 67.54L413.072 64.228C414.667 60.732 416.43 58.984 418.362 58.984C419.558 58.984 420.156 59.4747 420.156 60.456C420.156 60.7473 420.079 61.0847 419.926 61.468L417.534 67.54L417.626 67.632C417.733 67.632 417.81 67.5553 417.856 67.402L419.006 64.918C419.497 63.86 419.934 63.0167 420.317 62.388C421.728 60.088 423.238 58.938 424.848 58.938C426.013 58.938 426.596 59.398 426.596 60.318C426.596 60.594 426.535 60.8547 426.412 61.1L424.526 65.976C424.465 66.0987 424.434 66.2827 424.434 66.528C424.434 67.08 424.71 67.356 425.262 67.356C426.029 67.356 427.056 66.9267 428.344 66.068L428.574 66.344C426.964 67.4787 425.415 68.046 423.928 68.046C423.223 68.046 422.625 67.908 422.134 67.632C421.521 67.2947 421.214 66.804 421.214 66.16C421.214 65.7307 421.306 65.286 421.49 64.826L423.56 59.674L423.468 59.582L423.284 59.674L422.824 60.088C422.011 60.8087 421.191 61.882 420.363 63.308C420.317 63.3847 419.665 64.596 418.408 66.942C418.147 67.4327 417.948 67.7317 417.81 67.839C417.611 68.0077 417.273 68.092 416.798 68.092C416.231 68.092 415.755 67.931 415.372 67.609C415.004 67.2717 414.82 66.8193 414.82 66.252C414.82 65.8993 414.927 65.4547 415.142 64.918L417.212 59.674L417.12 59.582C417.059 59.582 416.951 59.6587 416.798 59.812C415.142 61.4527 413.563 63.8753 412.06 67.08C411.876 67.4787 411.7 67.747 411.531 67.885C411.362 68.023 411.079 68.092 410.68 68.092C409.239 68.092 408.518 67.54 408.518 66.436C408.518 66.114 408.625 65.654 408.84 65.056L410.726 59.812L414.406 59.03Z" fill="white"/>
<defs>
<filter id="filter0_d" x="99.8164" y="17.5352" width="332.832" height="34.6836" filterUnits="userSpaceOnUse" color-interpolation-filters="sRGB">
<feFlood flood-opacity="0" result="BackgroundImageFix"/>
<feColorMatrix in="SourceAlpha" type="matrix" values="0 0 0 0 0 0 0 0 0 0 0 0 0 0 0 0 0 0 127 0"/>
<feOffset dy="4"/>
<feGaussianBlur stdDeviation="2"/>
<feColorMatrix type="matrix" values="0 0 0 0 0 0 0 0 0 0 0 0 0 0 0 0 0 0 0.25 0"/>
<feBlend mode="normal" in2="BackgroundImageFix" result="effect1_dropShadow"/>
<feBlend mode="normal" in="SourceGraphic" in2="effect1_dropShadow" result="shape"/>
</filter>
<clipPath id="clip0">
<rect width="89" height="90" fill="white"/>
</clipPath>
</defs>
</svg>
